<svg width="83" height="83" viewBox="0 0 83 83" fill="none" xmlns="http://www.w3.org/2000/svg">
<g id="SVG" clip-path="url(#clip0_22_80)">
<g id="Group">
<path id="Vector" d="M37.8624 24.4639C37.1989 24.4639 36.6612 25.0017 36.6612 25.6651V27.2818C36.6612 27.9452 37.1989 28.483 37.8624 28.483C38.526 28.483 39.0637 27.9452 39.0637 27.2818V25.6651C39.0637 25.0015 38.526 24.4639 37.8624 24.4639Z" fill="#F8B232"/>
<path id="Vector_2" d="M41.5449 28.483C42.2084 28.483 42.7461 27.9452 42.7461 27.2818V25.6651C42.7461 25.0017 42.2084 24.4639 41.5449 24.4639C40.8813 24.4639 40.3436 25.0017 40.3436 25.6651V27.2818C40.3436 27.9452 40.8813 28.483 41.5449 28.483Z" fill="#F8B232"/>
<path id="Vector_3" d="M45.2272 28.483C45.8908 28.483 46.4285 27.9452 46.4285 27.2818V25.6651C46.4285 25.0017 45.8908 24.4639 45.2272 24.4639C44.5637 24.4639 44.026 25.0017 44.026 25.6651V27.2818C44.026 27.9452 44.5637 28.483 45.2272 28.483Z" fill="#F8B232"/>
<path id="Vector_4" d="M30.1949 27.6739H32.9367C33.6003 27.6739 34.138 27.1361 34.138 26.4727C34.138 25.8093 33.6003 25.2715 32.9367 25.2715H30.1949C29.5313 25.2715 28.9937 25.8093 28.9937 26.4727C28.9937 27.1361 29.5315 27.6739 30.1949 27.6739Z" fill="#F8B232"/>
<path id="Vector_5" d="M50.1529 27.6739H52.8947C53.5583 27.6739 54.096 27.1361 54.096 26.4727C54.096 25.8093 53.5583 25.2715 52.8947 25.2715H50.1529C49.4893 25.2715 48.9517 25.8093 48.9517 26.4727C48.9517 27.1361 49.4893 27.6739 50.1529 27.6739Z" fill="#F8B232"/>
<path id="Vector_6" d="M46.0554 35.2867H44.4458C43.7822 35.2867 43.2445 35.8245 43.2445 36.4879C43.2445 36.9807 43.5416 37.4039 43.9664 37.589C43.8139 37.8589 43.5247 38.0418 43.1931 38.0418C42.7035 38.0418 42.3052 37.6435 42.3052 37.1538V34.563C42.3052 34.0732 42.7035 33.6749 43.1931 33.6749C43.45 33.6749 43.6858 33.7808 43.857 33.9728C44.2979 34.4682 45.0573 34.5126 45.553 34.0713C46.0485 33.6302 46.0926 32.8709 45.6513 32.3755C45.0273 31.6746 44.1314 31.2725 43.1931 31.2725C41.3788 31.2725 39.9027 32.7485 39.9027 34.563V37.1538C39.9027 38.9682 41.3788 40.4443 43.1931 40.4443C44.8479 40.4443 46.2175 39.2152 46.4464 37.6228C46.9176 37.4606 47.2568 37.0143 47.2568 36.4879C47.2566 35.8245 46.7188 35.2867 46.0554 35.2867Z" fill="#F8B232"/>
<path id="Vector_7" d="M37.3511 31.2725C36.6876 31.2725 36.1499 31.8103 36.1499 32.4737V39.243C36.1499 39.9064 36.6876 40.4443 37.3511 40.4443C38.0147 40.4443 38.5524 39.9064 38.5524 39.243V32.4737C38.5524 31.8103 38.0147 31.2725 37.3511 31.2725Z" fill="#F8B232"/>
<path id="Vector_8" d="M33.57 31.2725C32.9064 31.2725 32.3688 31.8103 32.3688 32.4737V34.6572H30.5927V32.4737C30.5927 31.8103 30.055 31.2725 29.3915 31.2725C28.7279 31.2725 28.1902 31.8103 28.1902 32.4737V39.243C28.1902 39.9064 28.7279 40.4443 29.3915 40.4443C30.055 40.4443 30.5927 39.9064 30.5927 39.243V37.0597H32.3688V39.243C32.3688 39.9064 32.9064 40.4443 33.57 40.4443C34.2336 40.4443 34.7712 39.9064 34.7712 39.243V32.4737C34.7712 31.8103 34.2334 31.2725 33.57 31.2725Z" fill="#F8B232"/>
<path id="Vector_9" d="M53.6695 31.2725C53.0059 31.2725 52.4682 31.8103 52.4682 32.4737V34.6572H50.692V32.4737C50.692 31.8103 50.1543 31.2725 49.4908 31.2725C48.8272 31.2725 48.2896 31.8103 48.2896 32.4737V39.243C48.2896 39.9064 48.8272 40.4443 49.4908 40.4443C50.1543 40.4443 50.692 39.9064 50.692 39.243V37.0597H52.4682V39.243C52.4682 39.9064 53.0059 40.4443 53.6695 40.4443C54.333 40.4443 54.8707 39.9064 54.8707 39.243V32.4737C54.8707 31.8103 54.3329 31.2725 53.6695 31.2725Z" fill="#F8B232"/>
<path id="Vector_10" d="M71.5202 42.4036C71.5282 42.1187 71.5331 41.8334 71.5331 41.5498C71.5331 32.3286 67.3484 24.0675 60.7796 18.5622V3.70909C60.7796 2.68035 60.2767 1.71328 59.4346 1.12244C58.5924 0.531751 57.5121 0.387924 56.5446 0.738202L41.5449 6.16792L26.545 0.738202C25.5772 0.387924 24.497 0.531751 23.655 1.12244C22.8127 1.71328 22.31 2.68035 22.31 3.70909V7.42121C22.31 8.08461 22.8477 8.62244 23.5112 8.62244C24.1748 8.62244 24.7124 8.08461 24.7124 7.42121V3.70909C24.7124 3.35368 24.9378 3.15732 25.0349 3.08925C25.1318 3.02134 25.3936 2.87639 25.7274 2.99716L41.136 8.57487C41.3999 8.67049 41.6897 8.67049 41.9536 8.57487L57.3622 2.99716C57.6963 2.87623 57.9579 3.02118 58.0548 3.08925C58.1517 3.15732 58.3772 3.35368 58.3772 3.70909V16.7437C53.575 13.4748 47.7793 11.5616 41.5447 11.5616C35.3102 11.5616 29.5145 13.4748 24.7123 16.7437V12.8669C24.7123 12.2035 24.1746 11.6657 23.5111 11.6657C22.8475 11.6657 22.3098 12.2035 22.3098 12.8669V18.5622C15.741 24.0675 11.5562 32.3288 11.5562 41.5499C11.5562 41.8302 11.5606 42.1121 11.5684 42.3935C10.4867 42.7822 9.70972 43.8155 9.70972 45.0293V58.2363C9.70972 59.7817 10.9672 61.0392 12.5126 61.0392H18.7548C19.8519 62.3211 21.0408 63.4983 22.3098 64.5629V79.3906C22.3098 80.4193 22.8127 81.3863 23.6549 81.9771C24.1934 82.3549 24.829 82.5499 25.4705 82.5499C25.8323 82.5499 26.1959 82.4877 26.5449 82.3615L41.5446 76.9318L56.5443 82.3615C57.5115 82.7116 58.5919 82.5679 59.4343 81.9771C60.2766 81.3863 60.7793 80.4193 60.7793 79.3906V64.5641C62.0469 63.4996 63.2351 62.3221 64.333 61.039H70.5479C72.0933 61.039 73.3507 59.7816 73.3507 58.2361V45.0292C73.3511 43.8259 72.5872 42.8002 71.5202 42.4036ZM41.5449 13.9641C56.7558 13.9641 69.1306 26.339 69.1306 41.5499C69.1306 41.7746 69.1272 42.0006 69.1219 42.2263H66.2737C66.2798 42.0006 66.2856 41.7746 66.2856 41.5499C66.2856 36.2671 64.642 31.2254 61.5327 26.9699C61.1413 26.4343 60.39 26.3172 59.8542 26.7086C59.3185 27.1001 59.2017 27.8516 59.593 28.3872C62.3995 32.2284 63.8831 36.7799 63.8831 41.5499C63.8831 41.7748 63.878 42.0006 63.8713 42.2263H19.2179C19.2111 42.0003 19.2066 41.7742 19.2066 41.5499C19.2066 29.2327 29.2275 19.2118 41.5449 19.2118C46.8766 19.2118 52.039 21.1216 56.0811 24.5894C56.5848 25.0213 57.3431 24.963 57.775 24.4598C58.2069 23.9562 58.1489 23.198 57.6454 22.7659C53.168 18.9248 47.4501 16.8094 41.5449 16.8094C27.9028 16.8094 16.8042 27.908 16.8042 41.5499C16.8042 41.7743 16.8093 42.0003 16.8154 42.2263H13.9678C13.9624 42.0006 13.9589 41.7746 13.9589 41.5499C13.9589 26.339 26.3339 13.9641 41.5449 13.9641ZM43.9887 69.0267C43.3277 69.0847 42.839 69.6674 42.897 70.3284C42.9519 70.9535 43.4763 71.4247 44.0923 71.4247C44.1275 71.4247 44.1629 71.4231 44.1987 71.42C49.3566 70.9674 54.202 69.2245 58.3772 66.383V79.3908C58.3772 79.746 58.1518 79.9425 58.0548 80.0106C57.958 80.0787 57.6966 80.2238 57.3622 80.1027L41.9536 74.5248C41.6897 74.4292 41.3999 74.4292 41.136 74.5248L25.7274 80.1025C25.3933 80.2238 25.1318 80.0785 25.0349 80.0104C24.938 79.9425 24.7124 79.746 24.7124 79.3906V66.38C28.7915 69.1547 33.5125 70.8865 38.5287 71.3877C38.5694 71.3917 38.6097 71.3938 38.6496 71.3938C39.2593 71.3938 39.7815 70.9314 39.8435 70.3119C39.9095 69.6517 39.4277 69.0632 38.7676 68.9972C32.3853 68.3595 26.5212 65.5561 22.0225 61.0392H26.303C26.3037 61.0397 26.3043 61.0403 26.305 61.0408C30.6915 64.4752 35.9614 66.2905 41.5447 66.2905C47.0553 66.2905 52.4559 64.4266 56.7845 61.039H61.067C56.4871 65.641 50.5088 68.4546 43.9887 69.0267ZM30.6139 61.039H52.4778C49.1626 62.9109 45.4423 63.888 41.5449 63.888C37.6531 63.888 33.9308 62.9105 30.6139 61.039ZM70.9486 58.2361C70.9486 58.4569 70.7691 58.6366 70.5482 58.6366H12.5127C12.2919 58.6366 12.1123 58.4569 12.1123 58.2361V45.0292C12.1123 44.8085 12.2919 44.6288 12.5127 44.6288H70.5482C70.7691 44.6288 70.9486 44.8085 70.9486 45.0292V58.2361Z" fill="#F8B232"/>
<path id="Vector_11" d="M23.6696 52.9195V50.3287C23.6696 48.5142 22.1934 47.0381 20.3791 47.0381C18.5647 47.0381 17.0885 48.5142 17.0885 50.3287V52.9195C17.0885 54.7338 18.5647 56.2099 20.3791 56.2099C20.8488 56.2099 21.2951 56.1093 21.6998 55.931C21.9219 56.1165 22.1952 56.2099 22.4684 56.2099C22.7758 56.2099 23.0833 56.0926 23.3179 55.858C23.7611 55.4148 23.785 54.7119 23.391 54.24C23.5691 53.8354 23.6696 53.3892 23.6696 52.9195ZM19.491 52.9195V50.3287C19.491 49.8389 19.8893 49.4405 20.3791 49.4405C20.8689 49.4405 21.2672 49.8389 21.2672 50.3287V52.3432C20.8684 52.2396 20.4271 52.3427 20.1146 52.655C19.8659 52.9038 19.7504 53.2342 19.7655 53.56C19.5967 53.3982 19.491 53.1711 19.491 52.9195Z" fill="#F8B232"/>
<path id="Vector_12" d="M30.1412 47.0381C29.4777 47.0381 28.94 47.5759 28.94 48.2393V52.9195C28.94 53.4091 28.5417 53.8074 28.0519 53.8074C27.5623 53.8074 27.1639 53.4091 27.1639 52.9195V48.2393C27.1639 47.5759 26.6263 47.0381 25.9627 47.0381C25.2991 47.0381 24.7615 47.5759 24.7615 48.2393V52.9195C24.7615 54.7338 26.2375 56.2099 28.0519 56.2099C29.8662 56.2099 31.3425 54.7338 31.3425 52.9195V48.2393C31.3425 47.5759 30.8048 47.0381 30.1412 47.0381Z" fill="#F8B232"/>
<path id="Vector_13" d="M49.4863 47.0381C48.8228 47.0381 48.2851 47.5759 48.2851 48.2393V55.0087C48.2851 55.6721 48.8228 56.2099 49.4863 56.2099C50.1499 56.2099 50.6876 55.6721 50.6876 55.0087V48.2393C50.6876 47.5759 50.1497 47.0381 49.4863 47.0381Z" fill="#F8B232"/>
<path id="Vector_14" d="M36.0119 47.0723C34.2091 47.0723 32.7424 48.5389 32.7424 50.3417V54.9743C32.7424 55.6377 33.2801 56.1755 33.9437 56.1755C34.6072 56.1755 35.1449 55.6377 35.1449 54.9743V53.6821H36.8787V54.9743C36.8787 55.6377 37.4163 56.1755 38.0799 56.1755C38.7435 56.1755 39.2811 55.6377 39.2811 54.9743V50.3417C39.2811 48.5389 37.8145 47.0723 36.0119 47.0723ZM35.1449 51.2795V50.3415C35.1449 49.8636 35.5339 49.4746 36.0119 49.4746C36.4898 49.4746 36.8787 49.8634 36.8787 50.3415V51.2795H35.1449Z" fill="#F8B232"/>
<path id="Vector_15" d="M45.9275 53.8073H43.0272V48.2735C43.0272 47.6101 42.4895 47.0723 41.826 47.0723C41.1624 47.0723 40.6248 47.6101 40.6248 48.2735V55.0086C40.6248 55.672 41.1624 56.2098 41.826 56.2098H45.9275C46.591 56.2098 47.1287 55.672 47.1287 55.0086C47.1287 54.3452 46.5909 53.8073 45.9275 53.8073Z" fill="#F8B232"/>
<path id="Vector_16" d="M65.4899 47.2946C64.9583 46.8976 64.2057 47.0065 63.8085 47.5381L62.6816 49.0465L61.5546 47.5381C61.1574 47.0065 60.4048 46.8976 59.8732 47.2946C59.3418 47.6917 59.2329 48.4445 59.6298 48.9759L61.4803 51.4527V55.0262C61.4803 55.6896 62.018 56.2275 62.6816 56.2275C63.3451 56.2275 63.8828 55.6896 63.8828 55.0262V51.4527L65.7333 48.9759C66.1304 48.4445 66.0215 47.6917 65.4899 47.2946Z" fill="#F8B232"/>
<path id="Vector_17" d="M57.2527 47.0557H53.074C52.4104 47.0557 51.8727 47.5935 51.8727 48.2569C51.8727 48.9203 52.4104 49.4581 53.074 49.4581H53.9621V55.0262C53.9621 55.6896 54.4998 56.2275 55.1633 56.2275C55.8269 56.2275 56.3645 55.6896 56.3645 55.0262V49.4581H57.2527C57.9162 49.4581 58.4539 48.9203 58.4539 48.2569C58.4539 47.5935 57.9161 47.0557 57.2527 47.0557Z" fill="#F8B232"/>
</g>
</g>
<defs>
<clipPath id="clip0_22_80">
<rect width="82" height="82" fill="white" transform="translate(0.530396 0.549805)"/>
</clipPath>
</defs>
</svg>
