<svg width="83" height="83" viewBox="0 0 83 83" fill="none" xmlns="http://www.w3.org/2000/svg">
<g id="SVG">
<g id="14-Rating">
<path id="Vector" d="M70.8989 59.4985C72.0361 58.3232 72.802 56.8391 73.1012 55.2313C73.4003 53.6235 73.2195 51.9632 72.5812 50.4575C71.943 48.9518 70.8756 47.6673 69.5121 46.7643C68.1486 45.8613 66.5494 45.3797 64.9141 45.3796C63.2787 45.3795 61.6794 45.8609 60.3159 46.7638C58.9523 47.6666 57.8847 48.951 57.2463 50.4566C56.6078 51.9622 56.4268 53.6225 56.7258 55.2303C57.0248 56.8381 57.7905 58.3223 58.9275 59.4978C58.1262 59.5119 57.3306 59.6355 56.5629 59.8651C54.4581 57.9731 51.7281 56.9259 48.8979 56.9249H47.9674C49.5349 55.5507 50.6462 53.7313 51.153 51.7092C51.6597 49.6872 51.5379 47.5587 50.8038 45.6077C50.0697 43.6566 48.7581 41.9758 47.0441 40.7894C45.3301 39.603 43.295 38.9674 41.2104 38.9674C39.1259 38.9674 37.0908 39.603 35.3768 40.7894C33.6628 41.9758 32.3512 43.6566 31.6171 45.6077C30.883 47.5587 30.7612 49.6872 31.2679 51.7092C31.7747 53.7313 32.886 55.5507 34.4535 56.9249H33.5229C30.6928 56.9259 27.9628 57.9731 25.858 59.8651C25.0903 59.6355 24.2947 59.5119 23.4934 59.4978C24.6304 58.3223 25.3961 56.8381 25.6951 55.2303C25.9941 53.6225 25.8131 51.9622 25.1746 50.4566C24.5362 48.951 23.4686 47.6666 22.105 46.7638C20.7415 45.8609 19.1422 45.3795 17.5068 45.3796C15.8715 45.3797 14.2723 45.8613 12.9088 46.7643C11.5453 47.6673 10.4779 48.9518 9.83965 50.4575C9.2014 51.9632 9.02058 53.6235 9.31975 55.2313C9.61891 56.8391 10.3848 58.3232 11.522 59.4985C9.18395 59.5572 6.96122 60.5263 5.32708 62.1994C3.69294 63.8725 2.77651 66.1174 2.77295 68.4562V78.7062C2.77295 79.046 2.90794 79.3719 3.14822 79.6121C3.3885 79.8524 3.71439 79.9874 4.0542 79.9874C4.39401 79.9874 4.7199 79.8524 4.96018 79.6121C5.20046 79.3719 5.33545 79.046 5.33545 78.7062V68.4562C5.33744 66.7577 6.01303 65.1294 7.214 63.9285C8.41497 62.7275 10.0433 62.0519 11.7417 62.0499H23.2729C23.4904 62.0499 23.6945 62.0892 23.9052 62.1095C22.656 63.9903 21.9903 66.1983 21.9917 68.4562V78.7062C21.9917 79.046 22.1267 79.3719 22.367 79.6121C22.6072 79.8524 22.9331 79.9874 23.2729 79.9874C23.6128 79.9874 23.9387 79.8524 24.1789 79.6121C24.4192 79.3719 24.5542 79.046 24.5542 78.7062V68.4562C24.557 66.0784 25.5028 63.7987 27.1841 62.1174C28.8655 60.436 31.1451 59.4902 33.5229 59.4874H36.4785L37.9686 63.4588L36.103 74.6522C36.0694 74.8533 36.0844 75.0595 36.1466 75.2536C36.2089 75.4478 36.3166 75.6242 36.4609 75.7683L40.3046 79.612C40.4235 79.731 40.5648 79.8254 40.7202 79.8899C40.8756 79.9543 41.0422 79.9874 41.2105 79.9874C41.3787 79.9874 41.5453 79.9543 41.7008 79.8899C41.8562 79.8254 41.9974 79.731 42.1164 79.612L45.9601 75.7683C46.1044 75.6242 46.2121 75.4478 46.2743 75.2536C46.3366 75.0595 46.3515 74.8533 46.318 74.6522L44.4524 63.4588L45.9424 59.4874H48.8979C51.2758 59.4902 53.5554 60.436 55.2368 62.1174C56.9181 63.7987 57.8639 66.0784 57.8667 68.4562V78.7062C57.8667 79.046 58.0017 79.3719 58.242 79.6121C58.4823 79.8524 58.8081 79.9874 59.1479 79.9874C59.4878 79.9874 59.8136 79.8524 60.0539 79.6121C60.2942 79.3719 60.4292 79.046 60.4292 78.7062V68.4562C60.4306 66.1983 59.7649 63.9903 58.5157 62.1095C58.7264 62.0892 58.9305 62.0499 59.1479 62.0499H70.6792C72.3776 62.0519 74.0059 62.7275 75.2069 63.9285C76.4079 65.1294 77.0835 66.7577 77.0854 68.4562V78.7062C77.0854 79.046 77.2204 79.3719 77.4607 79.6121C77.701 79.8524 78.0269 79.9874 78.3667 79.9874C78.7065 79.9874 79.0324 79.8524 79.2727 79.6121C79.513 79.3719 79.6479 79.046 79.6479 78.7062V68.4562C79.6444 66.1174 78.728 63.8725 77.0938 62.1994C75.4597 60.5263 73.2369 59.5572 70.8989 59.4985ZM17.5073 47.9562C18.6477 47.9562 19.7624 48.2943 20.7105 48.9278C21.6587 49.5614 22.3977 50.4618 22.8341 51.5154C23.2705 52.5689 23.3846 53.7282 23.1622 54.8466C22.9397 55.965 22.3906 56.9924 21.5842 57.7987C20.7779 58.605 19.7506 59.1542 18.6321 59.3766C17.5137 59.5991 16.3544 59.4849 15.3009 59.0485C14.2474 58.6121 13.3469 57.8731 12.7134 56.925C12.0798 55.9768 11.7417 54.8621 11.7417 53.7218C11.7434 52.1932 12.3513 50.7276 13.4323 49.6467C14.5132 48.5658 15.9787 47.9578 17.5073 47.9562ZM33.5229 49.2374C33.5229 47.717 33.9738 46.2307 34.8185 44.9665C35.6632 43.7023 36.8639 42.7169 38.2686 42.1351C39.6733 41.5532 41.219 41.401 42.7102 41.6976C44.2014 41.9942 45.5712 42.7264 46.6463 43.8015C47.7215 44.8766 48.4536 46.2464 48.7502 47.7376C49.0469 49.2289 48.8946 50.7746 48.3128 52.1793C47.7309 53.584 46.7456 54.7846 45.4814 55.6293C44.2172 56.474 42.7309 56.9249 41.2104 56.9249C39.1723 56.9227 37.2182 56.112 35.777 54.6708C34.3358 53.2296 33.5252 51.2756 33.5229 49.2374ZM41.2104 76.8944L38.7387 74.4232L40.3738 64.6124H42.0471L43.6822 74.4232L41.2104 76.8944ZM42.244 62.0499H40.1769L39.216 59.4874H43.2049L42.244 62.0499ZM64.9136 47.9562C66.0539 47.9562 67.1686 48.2943 68.1168 48.9278C69.0649 49.5614 69.8039 50.4618 70.2403 51.5154C70.6767 52.5689 70.7909 53.7282 70.5684 54.8466C70.3459 55.965 69.7968 56.9924 68.9905 57.7987C68.1842 58.605 67.1568 59.1542 66.0384 59.3766C64.92 59.5991 63.7607 59.4849 62.7072 59.0485C61.6536 58.6121 60.7532 57.8731 60.1196 56.925C59.4861 55.9768 59.1479 54.8621 59.1479 53.7218C59.1496 52.1932 59.7576 50.7276 60.8385 49.6467C61.9194 48.5658 63.3849 47.9578 64.9136 47.9562ZM11.7417 71.0187V78.7062C11.7417 79.046 11.6067 79.3719 11.3664 79.6121C11.1261 79.8524 10.8003 79.9874 10.4604 79.9874C10.1206 79.9874 9.79475 79.8524 9.55447 79.6121C9.31419 79.3719 9.1792 79.046 9.1792 78.7062V71.0187C9.1792 70.6788 9.31419 70.353 9.55447 70.1127C9.79475 69.8724 10.1206 69.7374 10.4604 69.7374C10.8003 69.7374 11.1261 69.8724 11.3664 70.1127C11.6067 70.353 11.7417 70.6788 11.7417 71.0187ZM73.2417 71.0187V78.7062C73.2417 79.046 73.1067 79.3719 72.8664 79.6121C72.6262 79.8524 72.3003 79.9874 71.9604 79.9874C71.6206 79.9874 71.2947 79.8524 71.0545 79.6121C70.8142 79.3719 70.6792 79.046 70.6792 78.7062V71.0187C70.6792 70.6788 70.8142 70.353 71.0545 70.1127C71.2947 69.8724 71.6206 69.7374 71.9604 69.7374C72.3003 69.7374 72.6262 69.8724 72.8664 70.1127C73.1067 70.353 73.2417 70.6788 73.2417 71.0187ZM30.9604 71.0187V78.7062C30.9604 79.046 30.8255 79.3719 30.5852 79.6121C30.3449 79.8524 30.019 79.9874 29.6792 79.9874C29.3394 79.9874 29.0135 79.8524 28.7732 79.6121C28.5329 79.3719 28.3979 79.046 28.3979 78.7062V71.0187C28.3979 70.6788 28.5329 70.353 28.7732 70.1127C29.0135 69.8724 29.3394 69.7374 29.6792 69.7374C30.019 69.7374 30.3449 69.8724 30.5852 70.1127C30.8255 70.353 30.9604 70.6788 30.9604 71.0187ZM54.0229 71.0187V78.7062C54.0229 79.046 53.888 79.3719 53.6477 79.6121C53.4074 79.8524 53.0815 79.9874 52.7417 79.9874C52.4019 79.9874 52.076 79.8524 51.8357 79.6121C51.5954 79.3719 51.4604 79.046 51.4604 78.7062V71.0187C51.4604 70.6788 51.5954 70.353 51.8357 70.1127C52.076 69.8724 52.4019 69.7374 52.7417 69.7374C53.0815 69.7374 53.4074 69.8724 53.6477 70.1127C53.888 70.353 54.0229 70.6788 54.0229 71.0187ZM33.7713 19.5591L32.4538 27.2397C32.4134 27.4753 32.4398 27.7176 32.5299 27.939C32.62 28.1605 32.7703 28.3523 32.9637 28.4928C33.1571 28.6333 33.386 28.7169 33.6245 28.7342C33.8629 28.7514 34.1015 28.7016 34.3131 28.5904L41.2104 24.9644L48.1078 28.5904C48.3194 28.7016 48.558 28.7514 48.7964 28.7342C49.0349 28.7169 49.2638 28.6333 49.4572 28.4928C49.6506 28.3523 49.8009 28.1605 49.891 27.939C49.9811 27.7176 50.0075 27.4753 49.9671 27.2397L48.6496 19.5591L54.2294 14.1207C54.4007 13.9538 54.522 13.7424 54.5794 13.5103C54.6368 13.2782 54.6281 13.0346 54.5543 12.8071C54.4804 12.5797 54.3445 12.3775 54.1617 12.2233C53.9789 12.0691 53.7566 11.9692 53.52 11.9348L45.8081 10.8143L42.3597 3.82686C42.2417 3.62705 42.0737 3.46146 41.8721 3.34643C41.6706 3.2314 41.4425 3.1709 41.2105 3.1709C40.9784 3.1709 40.7504 3.2314 40.5489 3.34643C40.3473 3.46146 40.1793 3.62705 40.0612 3.82686L36.6128 10.8143L28.901 11.9348C28.6644 11.9692 28.4421 12.0691 28.2593 12.2233C28.0765 12.3775 27.9405 12.5797 27.8667 12.8071C27.7929 13.0346 27.7842 13.2782 27.8416 13.5103C27.899 13.7424 28.0202 13.9538 28.1916 14.1207L33.7713 19.5591ZM37.6476 13.2535C37.8533 13.2236 38.0487 13.1442 38.2168 13.022C38.385 12.8998 38.5209 12.7386 38.6129 12.5522L41.2104 7.28899L43.808 12.5522C43.9 12.7387 44.0359 12.8999 44.2041 13.0221C44.3722 13.1442 44.5676 13.2237 44.7733 13.2536L50.5821 14.0975L46.3786 18.194C46.2299 18.3391 46.1186 18.5181 46.0543 18.7156C45.99 18.9132 45.9746 19.1234 46.0095 19.3282L47.0024 25.1139L41.8067 22.3824C41.6228 22.2858 41.4182 22.2354 41.2104 22.2354C41.0027 22.2354 40.7981 22.2858 40.6142 22.3824L35.4185 25.1138L36.4114 19.3282C36.4463 19.1234 36.4309 18.9131 36.3666 18.7156C36.3023 18.518 36.191 18.339 36.0423 18.194L31.8388 14.0974L37.6476 13.2535ZM10.7745 30.3821L9.7754 36.2084C9.73504 36.4441 9.76141 36.6863 9.85152 36.9078C9.94163 37.1292 10.0919 37.3211 10.2853 37.4616C10.4788 37.6021 10.7076 37.6857 10.9461 37.7029C11.1846 37.7202 11.4231 37.6704 11.6347 37.5591L16.8667 34.8083L22.0987 37.5592C22.3103 37.6704 22.5488 37.7202 22.7873 37.703C23.0258 37.6857 23.2546 37.6021 23.4481 37.4616C23.6415 37.3211 23.7918 37.1293 23.8819 36.9078C23.972 36.6864 23.9984 36.4441 23.958 36.2085L22.9589 30.3822L27.1912 26.2569C27.3625 26.0901 27.4837 25.8787 27.5411 25.6465C27.5985 25.4144 27.5898 25.1709 27.516 24.9434C27.4422 24.716 27.3062 24.5137 27.1234 24.3596C26.9406 24.2054 26.7183 24.1054 26.4817 24.071L20.6316 23.2208L18.016 17.9206C17.898 17.7208 17.7299 17.5552 17.5284 17.4402C17.3268 17.3251 17.0988 17.2646 16.8667 17.2646C16.6347 17.2646 16.4066 17.3251 16.2051 17.4402C16.0036 17.5552 15.8355 17.7208 15.7175 17.9206L13.1018 23.2208L7.25174 24.071C7.01509 24.1054 6.7928 24.2053 6.61 24.3595C6.4272 24.5137 6.2912 24.7159 6.21738 24.9434C6.14355 25.1708 6.13485 25.4144 6.19227 25.6465C6.24968 25.8787 6.37091 26.0901 6.54225 26.2569L10.7745 30.3821ZM14.1372 25.66C14.3428 25.6301 14.538 25.5506 14.706 25.4284C14.8741 25.3062 15.0099 25.145 15.1019 24.9587L16.8667 21.3821L18.6315 24.9587C18.7235 25.145 18.8593 25.3062 19.0274 25.4284C19.1954 25.5506 19.3906 25.6301 19.5962 25.66L23.5438 26.2337L20.6879 29.0171C20.5392 29.1621 20.4279 29.3411 20.3636 29.5387C20.2993 29.7363 20.284 29.9465 20.3188 30.1513L20.9932 34.0826L17.4629 32.2264C17.279 32.1299 17.0744 32.0794 16.8667 32.0794C16.659 32.0794 16.4544 32.1299 16.2705 32.2264L12.7402 34.0826L13.4146 30.1513C13.4494 29.9465 13.4341 29.7363 13.3698 29.5387C13.3055 29.3411 13.1942 29.1621 13.0455 29.0171L10.1896 26.2337L14.1372 25.66ZM59.462 30.3821L58.4629 36.2084C58.4225 36.4441 58.4489 36.6863 58.539 36.9078C58.6291 37.1292 58.7794 37.3211 58.9728 37.4616C59.1663 37.6021 59.3951 37.6857 59.6336 37.7029C59.8721 37.7202 60.1106 37.6704 60.3222 37.5591L65.5542 34.8083L70.7862 37.5592C70.9978 37.6704 71.2363 37.7202 71.4748 37.703C71.7133 37.6857 71.9421 37.6021 72.1356 37.4616C72.329 37.3211 72.4793 37.1293 72.5694 36.9078C72.6595 36.6864 72.6859 36.4441 72.6455 36.2085L71.6464 30.3822L75.8787 26.2569C76.05 26.0901 76.1712 25.8787 76.2286 25.6465C76.286 25.4144 76.2773 25.1709 76.2035 24.9434C76.1297 24.716 75.9937 24.5137 75.8109 24.3596C75.6281 24.2054 75.4058 24.1054 75.1692 24.071L69.3191 23.2208L66.7035 17.9206C66.5855 17.7208 66.4174 17.5552 66.2159 17.4402C66.0143 17.3251 65.7863 17.2646 65.5542 17.2646C65.3222 17.2646 65.0941 17.3251 64.8926 17.4402C64.6911 17.5552 64.523 17.7208 64.405 17.9206L61.7893 23.2208L55.9392 24.071C55.7026 24.1054 55.4803 24.2053 55.2975 24.3595C55.1148 24.5137 54.9788 24.7159 54.905 24.9434C54.8311 25.1708 54.8224 25.4144 54.8798 25.6465C54.9372 25.8786 55.0585 26.09 55.2298 26.2569L59.462 30.3821ZM62.8247 25.66C63.0303 25.6301 63.2255 25.5506 63.3935 25.4284C63.5616 25.3062 63.6974 25.145 63.7894 24.9587L65.5542 21.3821L67.319 24.9587C67.411 25.145 67.5468 25.3062 67.7149 25.4284C67.8829 25.5506 68.0781 25.6301 68.2837 25.66L72.2313 26.2337L69.3754 29.0171C69.2267 29.1621 69.1154 29.3411 69.0511 29.5387C68.9868 29.7363 68.9715 29.9465 69.0063 30.1513L69.6807 34.0826L66.1504 32.2264C65.9665 32.1299 65.7619 32.0794 65.5542 32.0794C65.3465 32.0794 65.1419 32.1299 64.958 32.2264L61.4277 34.0826L62.1021 30.1513C62.1369 29.9465 62.1216 29.7363 62.0573 29.5387C61.993 29.3411 61.8817 29.1621 61.733 29.0171L58.8771 26.2337L62.8247 25.66Z" fill="#10417A"/>
</g>
</g>
</svg>
