<svg width="83" height="83" viewBox="0 0 83 83" fill="none" xmlns="http://www.w3.org/2000/svg">
<g id="SVG" clip-path="url(#clip0_22_57)">
<g id="XMLID_1220_">
<g id="XMLID_339_">
<path id="XMLID_349_" d="M77.1657 73.1349L65.122 52.2747C65.5545 51.7707 66.1424 51.3978 66.8285 51.2361C68.7257 50.7891 70.2989 49.5255 71.1445 47.7695C71.9902 46.0134 71.9971 43.9957 71.1638 42.2338C70.5259 40.8854 70.8905 39.2882 72.0503 38.35C73.5656 37.124 74.4348 35.3031 74.4348 33.3541C74.4348 31.405 73.5656 29.584 72.0503 28.3582C70.8905 27.42 70.5259 25.8228 71.1638 24.4743C71.9973 22.7124 71.9902 20.6946 71.1445 18.9386C70.2989 17.1825 68.7257 15.9189 66.8284 15.4719C65.3764 15.1298 64.355 13.8491 64.3446 12.3573C64.3311 10.4083 63.4492 8.59342 61.9253 7.37819C60.4015 6.16297 58.4356 5.70702 56.5327 6.12757C55.0758 6.44916 53.6 5.73857 52.9434 4.39906C52.0855 2.64893 50.5037 1.39639 48.6033 0.962696C46.7028 0.528846 44.7342 0.971184 43.2019 2.17568C42.0293 3.09767 40.3911 3.09767 39.2183 2.17568C37.686 0.971184 35.7174 0.529166 33.817 0.962696C31.9167 1.39639 30.3349 2.64893 29.4769 4.39906C28.8203 5.73857 27.3439 6.44964 25.8878 6.12757C23.9846 5.70734 22.0189 6.16297 20.4952 7.37819C18.9713 8.59342 18.0895 10.4083 18.0759 12.3573C18.0655 13.8489 17.0441 15.1298 15.592 15.4719C13.6948 15.9189 12.1217 17.1825 11.2761 18.9386C10.4303 20.6946 10.4234 22.7124 11.2567 24.4742C11.8946 25.8227 11.5301 27.4198 10.3703 28.358C8.85491 29.584 7.98577 31.4049 7.98577 33.3539C7.98577 35.303 8.85491 37.124 10.3703 38.3498C11.5301 39.288 11.8946 40.8852 11.2567 42.2337C10.4233 43.9957 10.4303 46.0134 11.2761 47.7695C12.1217 49.5255 13.6948 50.7891 15.5921 51.2361C16.2782 51.3977 16.8662 51.7707 17.2987 52.2747L5.25519 73.1349C4.93088 73.6967 4.97749 74.3986 5.37306 74.9125C5.76879 75.4265 6.43534 75.6508 7.06137 75.4812L15.4496 73.2055L17.673 81.6078C17.8389 82.235 18.3668 82.6999 19.0098 82.7856C19.0807 82.795 19.1515 82.7997 19.2218 82.7997C19.7883 82.7997 20.3197 82.4986 20.6082 81.9989L30.8848 64.1995C31.6987 64.9529 32.7024 65.491 33.8174 65.7455C35.7174 66.1788 37.6863 65.737 39.2188 64.5325C40.3914 63.6105 42.0296 63.6105 43.2024 64.5325C44.3491 65.4338 45.7398 65.9084 47.1637 65.9084C47.6426 65.9084 48.1254 65.8547 48.6036 65.7455C49.7186 65.491 50.7224 64.9529 51.5362 64.1995L61.8128 81.9989C62.1014 82.4987 62.6327 82.7997 63.1992 82.7997C63.2693 82.7997 63.3403 82.795 63.4112 82.7856C64.0542 82.6999 64.5821 82.2348 64.748 81.6078L66.9714 73.2055L75.3596 75.4812C75.9857 75.6513 76.6524 75.4265 77.048 74.9125C77.4435 74.3986 77.4901 73.6967 77.1657 73.1349ZM19.7761 77.0342L18.1339 70.8284C18.0247 70.4161 17.7558 70.0643 17.3865 69.8511C17.017 69.6378 16.578 69.5808 16.1665 69.6924L9.97084 71.3732L18.4995 56.6012C18.9031 57.6588 19.5831 58.6022 20.4955 59.33C22.0193 60.5452 23.9852 61.0012 25.8881 60.5806C26.9629 60.3433 28.0473 60.6693 28.8062 61.394L19.7761 77.0342ZM47.8908 62.6228C46.9373 62.8402 45.9503 62.6185 45.1819 62.0146C44.0126 61.0953 42.6117 60.6359 41.2104 60.6359C39.8094 60.6359 38.4079 61.0955 37.239 62.0146C36.4706 62.6187 35.4836 62.8405 34.53 62.6228C33.577 62.4054 32.7836 61.7771 32.3533 60.8993C31.0442 58.2286 28.1011 56.8114 25.1971 57.453C24.2424 57.6639 23.2567 57.4352 22.4924 56.8257C21.7282 56.2162 21.2858 55.306 21.279 54.3285C21.2583 51.3543 19.2218 48.8007 16.3268 48.1186C15.3751 47.8944 14.5862 47.2607 14.162 46.3798C13.7379 45.499 13.7344 44.4872 14.1524 43.6033C15.424 40.9147 14.6972 37.7304 12.3848 35.8598C11.6247 35.245 11.189 34.3316 11.189 33.3541C11.189 32.3765 11.6249 31.4632 12.385 30.8484C14.6972 28.9778 15.4242 25.7935 14.1524 23.1047C13.7344 22.221 13.7379 21.209 14.1622 20.3283C14.5862 19.4475 15.3753 18.8138 16.3268 18.5896C19.2218 17.9075 21.2583 15.3539 21.279 12.3797C21.2858 11.4022 21.728 10.4919 22.4924 9.88248C23.2567 9.27294 24.2422 9.04409 25.1972 9.25517C28.1009 9.89625 31.0442 8.47955 32.3533 5.80887C32.7836 4.93108 33.577 4.30281 34.53 4.08532C35.4834 3.868 36.4706 4.08949 37.239 4.69358C39.5774 6.53196 42.8435 6.53196 45.1819 4.69358C45.9504 4.08949 46.9374 3.868 47.8908 4.08532C48.8439 4.30281 49.6373 4.93108 50.0676 5.80887C51.3767 8.47955 54.3196 9.89625 57.2238 9.25517C58.1781 9.04393 59.1642 9.27294 59.9284 9.88248C60.6927 10.492 61.135 11.4022 61.1419 12.3797C61.1625 15.3539 63.199 17.9075 66.0941 18.5896C67.0457 18.8138 67.8346 19.4475 68.2588 20.3283C68.6829 21.2092 68.6865 22.221 68.2685 23.1049C66.9969 25.7935 67.7236 28.9778 70.036 30.8484C70.7961 31.4632 71.2319 32.3765 71.2319 33.3541C71.2319 34.3316 70.796 35.245 70.0359 35.8598C67.7236 37.7304 66.9967 40.9147 68.2685 43.6034C68.6865 44.4872 68.6829 45.4992 68.2587 46.3798C67.8346 47.2607 67.0455 47.8944 66.0941 48.1186C63.199 48.8007 61.1625 51.3543 61.1419 54.3285C61.135 55.306 60.6928 56.2163 59.9284 56.8257C59.1642 57.4352 58.1784 57.6638 57.2236 57.453C54.3196 56.8113 51.3767 58.2286 50.0676 60.8993C49.6373 61.7771 48.8439 62.4052 47.8908 62.6228ZM66.2544 69.6924C65.8426 69.5808 65.4037 69.638 65.0344 69.8511C64.6651 70.0644 64.396 70.4161 64.2869 70.8284L62.6447 77.0342L53.6148 61.394C54.3739 60.6692 55.4583 60.3429 56.5327 60.5806C58.4361 61.001 60.4015 60.5452 61.9253 59.33C62.8377 58.6024 63.5177 57.6588 63.9213 56.6012L72.45 71.3732L66.2544 69.6924Z" fill="#F8B232"/>
<path id="XMLID_357_" d="M48.8301 45.4652C49.1605 45.4652 49.4909 45.3632 49.7715 45.1593C50.3314 44.7525 50.5666 44.032 50.3547 43.3733L47.8303 35.5246L54.4876 30.6331C55.0454 30.2233 55.2768 29.5013 55.0613 28.8436C54.8455 28.1858 54.2317 27.7411 53.5395 27.7411H45.3013L42.7323 19.9137C42.5165 19.2561 41.9028 18.8115 41.2108 18.8115C40.5187 18.8115 39.9049 19.2561 39.6892 19.9137L37.1202 27.7411H28.882C28.1898 27.7411 27.5758 28.1858 27.3602 28.8436C27.1445 29.5013 27.3759 30.2233 27.9339 30.6331L34.5912 35.5246L32.0668 43.3733C31.8549 44.0321 32.0901 44.7525 32.65 45.1593C33.2101 45.5661 33.9679 45.567 34.5289 45.162L41.2111 40.3373L47.8932 45.162C48.1725 45.3641 48.5012 45.4652 48.8301 45.4652ZM42.148 37.0636C41.868 36.8615 41.5392 36.7605 41.2104 36.7605C40.8816 36.7605 40.5529 36.8615 40.2729 37.0636L36.6096 39.7087L37.9932 35.4072C38.2041 34.7514 37.972 34.0341 37.4168 33.6262L33.7661 30.9438H38.2798C38.9718 30.9438 39.5857 30.4992 39.8014 29.8416L41.2104 25.5484L42.6194 29.8416C42.8353 30.4992 43.449 30.9438 44.141 30.9438H48.6547L45.0041 33.6262C44.4489 34.0341 44.2168 34.7512 44.4277 35.4072L45.8113 39.7087L42.148 37.0636Z" fill="#F8B232"/>
<path id="XMLID_358_" d="M63.6317 33.3538C63.6317 20.9908 53.5735 10.9326 41.2105 10.9326C28.8474 10.9326 18.7893 20.9908 18.7893 33.3538C18.7893 42.759 24.7272 51.2318 33.5652 54.4372C34.3965 54.7386 35.3152 54.3093 35.6169 53.4778C35.9184 52.6463 35.4889 51.7278 34.6574 51.4261C27.0821 48.6787 21.9925 41.416 21.9925 33.3538C21.9925 22.7569 30.6138 14.1356 41.2106 14.1356C51.8075 14.1356 60.4288 22.7569 60.4288 33.3538C60.4288 41.4164 55.3387 48.6793 47.7629 51.4265C46.9314 51.7281 46.5017 52.6466 46.8033 53.4781C47.0395 54.1292 47.654 54.5341 48.3089 54.5341C48.4902 54.5341 48.6745 54.503 48.8548 54.4377C57.6932 51.2326 63.6317 42.7596 63.6317 33.3538Z" fill="#F8B232"/>
<path id="XMLID_676_" d="M41.2104 52.5723C40.7892 52.5723 40.376 52.7436 40.0781 53.0415C39.7802 53.3394 39.6089 53.7526 39.6089 54.1738C39.6089 54.595 39.7802 55.0082 40.0781 55.306C40.376 55.6039 40.7892 55.7753 41.2104 55.7753C41.6316 55.7753 42.0448 55.6039 42.3427 55.306C42.6406 55.0082 42.8119 54.595 42.8119 54.1738C42.8119 53.7526 42.6406 53.3394 42.3427 53.0415C42.0448 52.7436 41.6316 52.5723 41.2104 52.5723Z" fill="#F8B232"/>
</g>
</g>
</g>
<defs>
<clipPath id="clip0_22_57">
<rect width="82" height="82" fill="white" transform="translate(0.210449 0.799805)"/>
</clipPath>
</defs>
</svg>
