<svg width="55" height="55" viewBox="0 0 55 55" fill="none" xmlns="http://www.w3.org/2000/svg">
<g id="SVG">
<g id="Icon">
<path id="Vector" fill-rule="evenodd" clip-rule="evenodd" d="M31.9219 16.6963C33.5467 16.6963 35.1898 17.3127 36.4387 18.5617C37.6877 19.8107 38.3042 21.4538 38.3042 23.0786C38.3042 24.0273 39.0742 24.7973 40.0229 24.7973C40.9717 24.7973 41.7417 24.0273 41.7417 23.0786C41.7417 20.5784 40.7929 18.053 38.8702 16.1302C36.9475 14.2098 34.4221 13.2588 31.9219 13.2588C30.9731 13.2588 30.2031 14.0288 30.2031 14.9775C30.2031 15.9263 30.9731 16.6963 31.9219 16.6963Z" fill="black"/>
<path id="Vector_2" fill-rule="evenodd" clip-rule="evenodd" d="M31.9288 8.59295C35.6344 8.57691 39.3377 9.99545 42.1725 12.828C45.005 15.6627 46.4236 19.3661 46.4075 23.0717C46.4029 24.0205 47.1706 24.7927 48.1171 24.7973C49.0659 24.8019 49.8404 24.0365 49.845 23.0877C49.8656 18.4975 48.1125 13.9073 44.6017 10.3988C41.0931 6.88795 36.5029 5.13483 31.9127 5.15545C30.964 5.16004 30.1986 5.93462 30.2031 6.88337C30.2077 7.82983 30.98 8.59754 31.9288 8.59295Z" fill="black"/>
<path id="Vector_3" fill-rule="evenodd" clip-rule="evenodd" d="M29.6296 38.0024C24.4482 34.7963 20.204 30.5522 16.9957 25.373C18.0727 24.0805 20.0046 21.7613 21.1092 20.4322C22.0052 19.3574 22.2734 17.8861 21.815 16.5593C20.7059 13.3188 20.0825 10.0715 20.0229 6.82197C20.0046 4.6403 18.2148 2.86655 16.0148 2.86426H7.00628C4.87503 2.86426 3.11732 4.52801 3.00044 6.65467L2.86523 9.16634C2.86523 32.8805 22.1198 52.1351 45.834 52.1351L48.3457 51.9999C50.4723 51.883 52.1361 50.1253 52.1361 47.9941C52.1361 45.5511 52.1361 41.5934 52.1223 39.0588C52.1223 37.9932 51.6892 36.962 50.9215 36.2103C50.1584 35.4655 49.1294 35.0553 48.0615 35.0713C44.8829 35.0965 41.7044 34.4893 38.5282 33.2701C37.1761 32.7453 35.6384 32.9974 34.5177 33.9278L29.6296 38.0024ZM28.1996 41.158L28.2042 41.1626C29.2492 41.7882 30.5761 41.6851 31.5111 40.9059C32.689 39.9274 35.2625 37.7824 36.7154 36.5724C36.8759 36.4395 37.0959 36.4028 37.2906 36.4784L37.2975 36.4807C40.8932 37.8603 44.4911 38.5363 48.089 38.5088H48.1142C48.2632 38.5043 48.4098 38.5638 48.5175 38.667C48.6229 38.7724 48.6848 38.9168 48.6848 39.068V39.0772C48.6986 41.6072 48.6986 45.5557 48.6986 47.9941C48.6986 48.2988 48.4602 48.5509 48.1577 48.567L45.7882 48.6976C24.0173 48.6724 6.34398 31.0105 6.30273 9.24197L6.43336 6.84259C6.4494 6.54009 6.70148 6.30176 7.00628 6.30176H16.0125C16.3265 6.30176 16.5832 6.55613 16.5854 6.87009V6.88613C16.6519 10.4841 17.3348 14.0797 18.5632 17.6776L18.5654 17.6845C18.6319 17.8724 18.5929 18.0809 18.4646 18.2345L18.4623 18.2368C17.2638 19.6828 15.0844 22.2976 14.0921 23.487C13.3129 24.422 13.2075 25.7488 13.8354 26.7961L13.84 26.803C17.4334 32.7384 22.2619 37.567 28.1996 41.158Z" fill="black"/>
</g>
</g>
</svg>
