<svg width="83" height="83" viewBox="0 0 83 83" fill="none" xmlns="http://www.w3.org/2000/svg">
<g id="SVG">
<path id="Vector" d="M17.2461 54.1729V59.2979C17.2461 59.6377 17.3811 59.9636 17.6214 60.2038C17.8616 60.4441 18.1875 60.5791 18.5273 60.5791H21.7305C22.2168 62.4323 22.9585 64.2089 23.9342 65.8579L21.6536 68.1385C21.5335 68.2576 21.4382 68.3993 21.3731 68.5554C21.3081 68.7116 21.2746 68.879 21.2746 69.0482C21.2746 69.2173 21.3081 69.3848 21.3731 69.5409C21.4382 69.697 21.5335 69.8388 21.6536 69.9579L27.0861 75.3904C27.2052 75.5105 27.3469 75.6058 27.503 75.6708C27.6592 75.7359 27.8266 75.7694 27.9958 75.7694C28.1649 75.7694 28.3324 75.7359 28.4885 75.6708C28.6447 75.6058 28.7864 75.5105 28.9055 75.3904L31.1861 73.1097C32.835 74.0855 34.6116 74.8271 36.4648 75.3135V78.5166C36.4648 78.8564 36.5998 79.1823 36.8401 79.4226C37.0804 79.6629 37.4063 79.7979 37.7461 79.7979H45.4336C45.7734 79.7979 46.0993 79.6629 46.3396 79.4226C46.5799 79.1823 46.7148 78.8564 46.7148 78.5166V75.3135C48.5681 74.8271 50.3447 74.0855 51.9936 73.1097L54.2742 75.3904C54.3933 75.5105 54.535 75.6058 54.6912 75.6708C54.8473 75.7359 55.0148 75.7694 55.1839 75.7694C55.353 75.7694 55.5205 75.7359 55.6766 75.6708C55.8328 75.6058 55.9745 75.5105 56.0936 75.3904L61.5261 69.9579C61.6462 69.8388 61.7415 69.697 61.8065 69.5409C61.8716 69.3848 61.9051 69.2173 61.9051 69.0482C61.9051 68.879 61.8716 68.7116 61.8065 68.5554C61.7415 68.3993 61.6462 68.2576 61.5261 68.1385L59.2455 65.8579C60.2212 64.2089 60.9629 62.4323 61.4492 60.5791H64.6523C64.9922 60.5791 65.318 60.4441 65.5583 60.2038C65.7986 59.9636 65.9336 59.6377 65.9336 59.2979V54.1729C65.9336 53.8331 65.7986 53.5072 65.5583 53.2669C65.318 53.0266 64.9922 52.8916 64.6523 52.8916H54.4023C54.2239 52.8909 54.0473 52.9274 53.8839 52.9989C53.7204 53.0704 53.5736 53.1752 53.453 53.3067C53.3324 53.4382 53.2406 53.5934 53.1834 53.7624C53.1263 53.9314 53.105 54.1105 53.1211 54.2882C53.2913 55.8959 53.1215 57.5214 52.6227 59.0593C52.124 60.5971 51.3075 62.0129 50.2261 63.2147C49.1448 64.4166 47.8228 65.3776 46.346 66.0354C44.8692 66.6933 43.2706 67.0332 41.6539 67.0332C40.0372 67.0332 38.4386 66.6933 36.9618 66.0354C35.485 65.3776 34.163 64.4166 33.0817 63.2147C32.0003 62.0129 31.1838 60.5971 30.6851 59.0593C30.1863 57.5214 30.0165 55.8959 30.1867 54.2882C30.2028 54.1105 30.1815 53.9314 30.1244 53.7624C30.0672 53.5934 29.9754 53.4382 29.8548 53.3067C29.7342 53.1752 29.5874 53.0704 29.424 52.9989C29.2605 52.9274 29.0839 52.8909 28.9055 52.8916H18.5273C18.1875 52.8916 17.8616 53.0266 17.6214 53.2669C17.3811 53.5072 17.2461 53.8331 17.2461 54.1729ZM19.8086 55.4541H27.4961C27.4961 59.192 28.981 62.7768 31.6241 65.4199C34.2671 68.063 37.8519 69.5479 41.5898 69.5479C45.3277 69.5479 48.9125 68.063 51.5556 65.4199C54.1987 62.7768 55.6836 59.192 55.6836 55.4541H63.3711V58.0166H60.4242C60.1245 58.0106 59.8321 58.1098 59.598 58.2971C59.3639 58.4844 59.2029 58.7479 59.143 59.0416C58.6943 61.2858 57.8248 63.4247 56.5805 65.3454C56.406 65.5903 56.3232 65.8888 56.3466 66.1886C56.37 66.4885 56.4982 66.7705 56.7086 66.9854L58.8098 69.0738L55.1839 72.6997L53.1211 70.5729C52.9126 70.363 52.6379 70.2317 52.3436 70.2014C52.0494 70.171 51.7537 70.2434 51.5067 70.4063C49.586 71.6507 47.4471 72.5202 45.203 72.9688C44.9092 73.0287 44.6458 73.1897 44.4585 73.4238C44.2712 73.6579 44.1719 73.9503 44.178 74.25V77.2354H39.0273V74.2885C39.0334 73.9887 38.9341 73.6964 38.7468 73.4623C38.5596 73.2282 38.2961 73.0671 38.0023 73.0072C35.7582 72.5586 33.6193 71.6891 31.6986 70.4447C31.4537 70.2702 31.1551 70.1874 30.8553 70.2109C30.5555 70.2343 30.2735 70.3624 30.0586 70.5729L27.9702 72.6741L24.3442 69.0482L26.4711 66.9854C26.681 66.7769 26.8122 66.5022 26.8426 66.2079C26.8729 65.9136 26.8005 65.6179 26.6377 65.371C25.3933 63.4503 24.5238 61.3114 24.0752 59.0672C24.0153 58.7735 23.8542 58.51 23.6201 58.3227C23.386 58.1355 23.0936 58.0362 22.7939 58.0422H19.8086V55.4541Z" fill="#F8B232"/>
<path id="Vector_2" d="M23.6523 42.6416H26.2148V45.2041H23.6523V42.6416Z" fill="#F8B232"/>
<path id="Vector_3" d="M67.9708 23.3079C68.1358 23.383 68.3148 23.4223 68.4961 23.4232C68.8075 23.4227 69.1081 23.3089 69.3417 23.1029L79.5917 14.1341C79.7281 14.0139 79.8372 13.866 79.912 13.7003C79.9868 13.5347 80.0255 13.355 80.0255 13.1732C80.0255 12.9914 79.9868 12.8117 79.912 12.646C79.8372 12.4804 79.7281 12.3325 79.5917 12.2122L69.3417 3.2435C69.1567 3.08099 68.9288 2.97522 68.6853 2.93886C68.4418 2.90249 68.1929 2.93707 67.9686 3.03845C67.7442 3.13983 67.5537 3.30372 67.4201 3.5105C67.2864 3.71729 67.2152 3.95821 67.2148 4.20443V6.76693H62.0898V9.32943H68.4961C68.8359 9.32943 69.1618 9.19445 69.4021 8.95417C69.6424 8.71388 69.7773 8.38799 69.7773 8.04818V7.02318L76.7986 13.1732L69.7773 19.3232V18.2982C69.7773 17.9584 69.6424 17.6325 69.4021 17.3922C69.1618 17.1519 68.8359 17.0169 68.4961 17.0169H60.0014C58.3145 13.5716 55.6947 10.6687 52.4399 8.63835C49.1852 6.60799 45.426 5.53161 41.5898 5.53161C37.7537 5.53161 33.9945 6.60799 30.7397 8.63835C27.485 10.6687 24.8652 13.5716 23.1783 17.0169H3.15234V19.5794H22.1277C20.7442 23.7382 20.7442 28.2331 22.1277 32.3919H15.9648V29.8294C15.9645 29.5832 15.8933 29.3423 15.7596 29.1355C15.6259 28.9287 15.4355 28.7648 15.2111 28.6634C14.9867 28.5621 14.7379 28.5275 14.4944 28.5639C14.2508 28.6002 14.023 28.706 13.838 28.8685L3.58797 37.8372C3.45164 37.9575 3.34245 38.1054 3.26766 38.271C3.19287 38.4367 3.15419 38.6164 3.15419 38.7982C3.15419 38.98 3.19287 39.1597 3.26766 39.3253C3.34245 39.491 3.45164 39.6389 3.58797 39.7591L13.838 48.7279C14.0715 48.9339 14.3722 49.0477 14.6836 49.0482C14.8649 49.0473 15.0439 49.008 15.2089 48.9329C15.4337 48.8318 15.6246 48.6681 15.7587 48.4613C15.8927 48.2545 15.9643 48.0134 15.9648 47.7669V45.2044H21.0898V42.6419H14.6836C14.3438 42.6419 14.0179 42.7769 13.7776 43.0172C13.5373 43.2575 13.4023 43.5834 13.4023 43.9232V44.9482L6.38109 38.7982L13.4023 32.6482V33.6732C13.4023 34.013 13.5373 34.3389 13.7776 34.5792C14.0179 34.8194 14.3438 34.9544 14.6836 34.9544H23.1783C24.7579 38.2204 27.1759 41.0086 30.1855 43.0345C33.195 45.0604 36.6883 46.2513 40.3086 46.4857V51.6107H39.0273C38.6875 51.6107 38.3616 51.7457 38.1214 51.986C37.8811 52.2262 37.7461 52.5521 37.7461 52.8919V60.5794C37.7461 61.5989 38.1511 62.5765 38.8719 63.2974C39.5927 64.0182 40.5704 64.4232 41.5898 64.4232C42.6093 64.4232 43.5869 64.0182 44.3078 63.2974C45.0286 62.5765 45.4336 61.5989 45.4336 60.5794V52.8919C45.4336 52.5521 45.2986 52.2262 45.0583 51.986C44.818 51.7457 44.4922 51.6107 44.1523 51.6107H42.8711V46.4857C46.4914 46.2513 49.9847 45.0604 52.9942 43.0345C56.0038 41.0086 58.4218 38.2204 60.0014 34.9544H80.0273V32.3919H61.052C62.4355 28.2331 62.4355 23.7382 61.052 19.5794H67.2148V22.1419C67.2154 22.3884 67.2869 22.6295 67.421 22.8363C67.5551 23.0431 67.746 23.2068 67.9708 23.3079ZM42.8711 60.5794C42.8711 60.9192 42.7361 61.2451 42.4958 61.4854C42.2555 61.7257 41.9297 61.8607 41.5898 61.8607C41.25 61.8607 40.9241 61.7257 40.6839 61.4854C40.4436 61.2451 40.3086 60.9192 40.3086 60.5794V54.1732H42.8711V60.5794ZM41.5898 43.9232C38.0421 43.9232 34.5741 42.8712 31.6243 40.9002C28.6745 38.9292 26.3754 36.1277 25.0178 32.8501C23.6601 29.5724 23.3049 25.9658 23.997 22.4863C24.6891 19.0067 26.3975 15.8106 28.9061 13.302C31.4147 10.7934 34.6109 9.08497 38.0904 8.39285C41.5699 7.70073 45.1766 8.05595 48.4542 9.4136C51.7319 10.7712 54.5333 13.0703 56.5043 16.0201C58.4753 18.9699 59.5273 22.438 59.5273 25.9857C59.5273 30.743 57.6375 35.3055 54.2736 38.6694C50.9096 42.0333 46.3472 43.9232 41.5898 43.9232Z" fill="#F8B232"/>
<path id="Vector_4" d="M56.9648 6.7666H59.5273V9.3291H56.9648V6.7666Z" fill="#F8B232"/>
<path id="Vector_5" d="M41.5898 10.6104C38.549 10.6104 35.5764 11.5121 33.048 13.2015C30.5196 14.8909 28.5489 17.2922 27.3852 20.1016C26.2215 22.911 25.917 26.0024 26.5103 28.9849C27.1035 31.9673 28.5679 34.7069 30.7181 36.8571C32.8683 39.0074 35.6079 40.4717 38.5903 41.0649C41.5728 41.6582 44.6642 41.3537 47.4736 40.19C50.283 39.0263 52.6843 37.0557 54.3737 34.5272C56.0631 31.9988 56.9648 29.0262 56.9648 25.9854C56.9648 21.9076 55.345 17.997 52.4616 15.1136C49.5782 12.2302 45.6676 10.6104 41.5898 10.6104ZM41.5898 38.7979C39.0558 38.7979 36.5786 38.0464 34.4716 36.6386C32.3646 35.2307 30.7224 33.2297 29.7526 30.8885C28.7829 28.5473 28.5292 25.9711 29.0235 23.4858C29.5179 21.0004 30.7382 18.7174 32.53 16.9255C34.3219 15.1337 36.6049 13.9134 39.0903 13.419C41.5756 12.9247 44.1518 13.1784 46.493 14.1481C48.8342 15.1179 50.8352 16.7601 52.2431 18.8671C53.6509 20.9741 54.4023 23.4513 54.4023 25.9854C54.4023 29.3834 53.0525 32.6423 50.6497 35.0452C48.2468 37.448 44.9879 38.7979 41.5898 38.7979Z" fill="#F8B232"/>
<path id="Vector_6" d="M33.9023 25.9854H31.3398C31.3398 28.7038 32.4198 31.3109 34.342 33.2332C36.2642 35.1554 38.8714 36.2354 41.5898 36.2354V33.6729C39.551 33.6729 37.5956 32.8629 36.154 31.4212C34.7123 29.9796 33.9023 28.0242 33.9023 25.9854Z" fill="#F8B232"/>
<path id="Vector_7" d="M41.5898 15.7354V18.2979C43.6287 18.2979 45.584 19.1078 47.0257 20.5495C48.4674 21.9912 49.2773 23.9465 49.2773 25.9854H51.8398C51.8398 23.2669 50.7599 20.6598 48.8377 18.7375C46.9154 16.8153 44.3083 15.7354 41.5898 15.7354Z" fill="#F8B232"/>
<path id="Vector_8" d="M56.9648 42.6416H59.5273V45.2041H56.9648V42.6416Z" fill="#F8B232"/>
<path id="Vector_9" d="M62.0898 42.6416H64.6523V45.2041H62.0898V42.6416Z" fill="#F8B232"/>
<path id="Vector_10" d="M67.2148 42.6416H69.7773V45.2041H67.2148V42.6416Z" fill="#F8B232"/>
<path id="Vector_11" d="M72.3398 42.6416H74.9023V45.2041H72.3398V42.6416Z" fill="#F8B232"/>
<path id="Vector_12" d="M77.4648 42.6416H80.0273V45.2041H77.4648V42.6416Z" fill="#F8B232"/>
<path id="Vector_13" d="M3.15234 6.7666H5.71484V9.3291H3.15234V6.7666Z" fill="#F8B232"/>
<path id="Vector_14" d="M8.27734 6.7666H10.8398V9.3291H8.27734V6.7666Z" fill="#F8B232"/>
<path id="Vector_15" d="M13.4023 6.7666H15.9648V9.3291H13.4023V6.7666Z" fill="#F8B232"/>
<path id="Vector_16" d="M18.5273 6.7666H21.0898V9.3291H18.5273V6.7666Z" fill="#F8B232"/>
<path id="Vector_17" d="M23.6523 6.7666H26.2148V9.3291H23.6523V6.7666Z" fill="#F8B232"/>
</g>
</svg>
