<svg width="83" height="83" viewBox="0 0 83 83" fill="none" xmlns="http://www.w3.org/2000/svg">
<g id="SVG" clip-path="url(#clip0_28_4889)">
<g id="Group">
<path id="Vector" d="M22.0508 22.5811C13.5728 22.5811 6.67578 29.478 6.67578 37.9561C6.67578 46.4341 13.5728 53.3311 22.0508 53.3311C30.5288 53.3311 37.4258 46.4341 37.4258 37.9561H34.8633C34.8633 45.0209 29.1156 50.7686 22.0508 50.7686C14.986 50.7686 9.23828 45.0209 9.23828 37.9561C9.23828 30.8912 14.986 25.1436 22.0508 25.1436V22.5811Z" fill="#F8B232"/>
<path id="Vector_2" d="M41.2695 22.5811C43.3887 22.5811 45.1133 20.8565 45.1133 18.7373C45.1133 16.6181 43.3887 14.8936 41.2695 14.8936C39.1503 14.8936 37.4258 16.6181 37.4258 18.7373C37.4258 20.8565 39.1503 22.5811 41.2695 22.5811ZM41.2695 17.4561C41.9755 17.4561 42.5508 18.0301 42.5508 18.7373C42.5508 19.4446 41.9755 20.0186 41.2695 20.0186C40.5636 20.0186 39.9883 19.4446 39.9883 18.7373C39.9883 18.0301 40.5636 17.4561 41.2695 17.4561Z" fill="#F8B232"/>
<path id="Vector_3" d="M41.2695 27.7061C46.2152 27.7061 50.2383 23.6816 50.2383 18.7373C50.2383 13.793 46.2152 9.76855 41.2695 9.76855C36.3239 9.76855 32.3008 13.793 32.3008 18.7373C32.3008 23.6816 36.3239 27.7061 41.2695 27.7061ZM41.2695 12.3311C44.8019 12.3311 47.6758 15.2049 47.6758 18.7373C47.6758 22.2697 44.8019 25.1436 41.2695 25.1436C37.7371 25.1436 34.8633 22.2697 34.8633 18.7373C34.8633 15.2049 37.7371 12.3311 41.2695 12.3311Z" fill="#F8B232"/>
<path id="Vector_4" d="M29.4398 23.6599C29.7088 24.3031 29.6025 24.9731 29.163 25.4126L26.7709 27.7945L32.2137 33.2359L34.5942 30.8426C35.0337 30.4031 35.7038 30.2955 36.4008 30.5901C37.0337 30.8515 37.4258 31.3973 37.4258 32.0111V35.3936H45.1133V32.0111C45.1133 31.3973 45.5066 30.8515 46.1934 30.5671C46.834 30.298 47.5067 30.4031 47.9448 30.8426L50.3254 33.2359L55.7682 27.7945L53.3761 25.4126C52.9379 24.9744 52.8302 24.3056 53.098 23.665C53.1121 23.6342 53.1647 23.5138 53.198 23.4485C53.4837 22.9052 53.9872 22.5811 54.5446 22.5811H57.9258V14.8936H54.5446C53.9385 14.8936 53.3799 14.4925 53.0993 13.8147C52.8341 13.1818 52.9417 12.4938 53.3761 12.062L55.7682 9.68015L50.3254 4.23868L47.9448 6.63205C47.5067 7.07152 46.8353 7.17915 46.1383 6.88446C45.5066 6.62309 45.1133 6.07727 45.1133 5.46355V2.08105H37.4258V5.46355C37.4258 6.07727 37.0324 6.62309 36.3457 6.90752C35.7038 7.17659 35.0324 7.07024 34.5942 6.63205L32.2137 4.23868L26.7709 9.68015L29.163 12.0633C29.5961 12.4938 29.7037 13.1818 29.4154 13.8686C29.1579 14.4912 28.5993 14.8936 27.9932 14.8936H24.6133V22.5811H27.9945C28.6005 22.5811 29.1592 22.9821 29.4398 23.6599ZM27.1758 17.4561H27.9945C29.6409 17.4561 31.1272 16.4323 31.8024 14.8064C32.4738 13.2074 32.1483 11.4162 30.9721 10.2477L30.3994 9.67759L32.2098 7.86718L32.78 8.43862C33.9523 9.61737 35.7435 9.9428 37.3822 9.25221C38.9646 8.59493 39.9883 7.10868 39.9883 5.46355V4.64355H42.5508V5.46355C42.5508 7.10868 43.5745 8.59493 45.1991 9.27015C46.7994 9.9428 48.588 9.61737 49.7604 8.4399L50.3292 7.86846L52.1397 9.67887L51.5682 10.2477C50.392 11.4175 50.0653 13.2087 50.7546 14.8513C51.4119 16.4323 52.8982 17.4561 54.5446 17.4561H55.3633V20.0186H54.5446C53.0429 20.0186 51.6579 20.8744 50.9353 22.2441C50.8738 22.3581 50.7482 22.6438 50.738 22.6643L50.7367 22.6682C50.0653 24.2659 50.3907 26.0558 51.5669 27.2269L52.1397 27.797L50.3292 29.6074L49.7591 29.036C48.588 27.8598 46.7981 27.5318 45.1568 28.2224C43.5745 28.8797 42.5508 30.3659 42.5508 32.0111V32.8311H39.9883V32.0111C39.9883 30.3659 38.9646 28.8797 37.3399 28.2045C35.7384 27.5305 33.9497 27.8572 32.7787 29.0347L32.2098 29.6061L30.3994 27.7957L30.9721 27.2256C32.1483 26.0545 32.4738 24.2646 31.7844 22.6233C31.1272 21.0423 29.6409 20.0186 27.9945 20.0186H27.1758V17.4561Z" fill="#F8B232"/>
<path id="Vector_5" d="M20.7695 37.9561H23.332V40.5186H20.7695V37.9561Z" fill="#F8B232"/>
<path id="Vector_6" d="M25.8945 37.9561H28.457V40.5186H25.8945V37.9561Z" fill="#F8B232"/>
<path id="Vector_7" d="M15.6445 37.9561H18.207V40.5186H15.6445V37.9561Z" fill="#F8B232"/>
<path id="Vector_8" d="M60.4883 4.64355H63.0508V7.20605H60.4883V4.64355Z" fill="#F8B232"/>
<path id="Vector_9" d="M65.6133 4.64355H78.4258V7.20605H65.6133V4.64355Z" fill="#F8B232"/>
<path id="Vector_10" d="M60.4883 9.76855H78.4258V12.3311H60.4883V9.76855Z" fill="#F8B232"/>
<path id="Vector_11" d="M60.4883 14.8936H78.4258V17.4561H60.4883V14.8936Z" fill="#F8B232"/>
<path id="Vector_12" d="M60.4883 20.0186H63.0508V22.5811H60.4883V20.0186Z" fill="#F8B232"/>
<path id="Vector_13" d="M65.6133 20.0186H68.1758V22.5811H65.6133V20.0186Z" fill="#F8B232"/>
<path id="Vector_14" d="M70.7383 20.0186H73.3008V22.5811H70.7383V20.0186Z" fill="#F8B232"/>
<path id="Vector_15" d="M75.8633 40.5186H82.2695L72.0195 26.8515L61.7695 40.5186H68.1758V78.9561H60.4883V55.8936H66.8945L56.6445 42.2265L46.3945 55.8936H52.8008V78.9561H45.1133V71.2686H51.5195L41.2695 57.6015L31.0195 71.2686H37.4258V78.9561H26.94C27.0835 78.5537 27.1758 78.1258 27.1758 77.6748V63.3453C28.6633 62.8149 29.7383 61.4055 29.7383 59.7373V56.9467C37.2413 53.8986 42.5508 46.5404 42.5508 37.9561H39.9883C39.9883 47.8473 31.942 55.8936 22.0508 55.8936C12.1595 55.8936 4.11328 47.8473 4.11328 37.9561C4.11328 28.0648 12.1595 20.0186 22.0508 20.0186V17.4561C10.7476 17.4561 1.55078 26.6529 1.55078 37.9561C1.55078 46.5404 6.86028 53.8986 14.3633 56.9467V59.7373C14.3633 61.4055 15.4382 62.8149 16.9258 63.3453V77.6748C16.9258 79.794 18.6503 81.5186 20.7695 81.5186H80.9883V78.9561H75.8633V40.5186ZM66.8945 37.9561L72.0195 31.1231L77.1445 37.9561H73.3008V78.9561H70.7383V37.9561H66.8945ZM51.5195 53.3311L56.6445 46.4981L61.7695 53.3311H57.9258V78.9561H55.3633V53.3311H51.5195ZM36.1445 68.7061L41.2695 61.8731L46.3945 68.7061H42.5508V78.9561H39.9883V68.7061H36.1445ZM22.0508 58.4561C23.8228 58.4561 25.5345 58.2062 27.1758 57.7808V59.7373C27.1758 60.4446 26.6005 61.0186 25.8945 61.0186H18.207C17.5011 61.0186 16.9258 60.4446 16.9258 59.7373V57.7808C18.5671 58.2062 20.2788 58.4561 22.0508 58.4561ZM20.7695 78.9561C20.0636 78.9561 19.4883 78.3821 19.4883 77.6748V63.5811H24.6133V77.6748C24.6133 78.3821 24.038 78.9561 23.332 78.9561H20.7695Z" fill="#F8B232"/>
</g>
</g>
<defs>
<clipPath id="clip0_28_4889">
<rect width="82" height="82" fill="white" transform="translate(0.269531 0.799805)"/>
</clipPath>
</defs>
</svg>
