<svg width="83" height="83" viewBox="0 0 83 83" fill="none" xmlns="http://www.w3.org/2000/svg">
<g id="SVG" clip-path="url(#clip0_28_4873)">
<g id="Group">
<g id="Group_2">
<path id="Vector" d="M80.1382 27.3744V12.8213C81.0242 11.9688 81.577 10.7724 81.577 9.44875C81.577 6.86639 79.4762 4.76562 76.8939 4.76562C75.5702 4.76562 74.3738 5.31864 73.5213 6.20447H37.7488C35.9599 6.20447 34.5045 7.65981 34.5045 9.44875C34.5045 11.2377 35.9599 12.693 37.7488 12.693H37.937V23.4749H36.67C35.566 23.4749 34.6681 24.3729 34.6681 25.4769V30.2498C34.6681 31.3538 35.566 32.2518 36.67 32.2518H46.5097C47.6136 32.2518 48.5116 31.3538 48.5116 30.2498V25.4769C48.5116 24.3729 47.6136 23.4749 46.5097 23.4749H45.2427V12.693H59.0469C59.7104 12.693 60.248 12.1554 60.248 11.4919C60.248 10.8283 59.7104 10.2907 59.0469 10.2907H37.749C37.2848 10.2907 36.907 9.91305 36.907 9.44875C36.907 8.98446 37.2847 8.60681 37.749 8.60681H72.2881C72.2383 8.8802 72.2109 9.16127 72.2109 9.44875C72.2109 9.73639 72.2385 10.0173 72.2884 10.2907H64.6523C63.9888 10.2907 63.4512 10.8283 63.4512 11.4919C63.4512 12.1554 63.9888 12.693 64.6523 12.693H73.5226C73.5644 12.7364 73.6062 12.7797 73.6496 12.8213V27.3744C72.2697 27.548 71.1979 28.7264 71.1979 30.1526V38.3485H56.9335C56.0061 38.3485 55.2518 39.1028 55.2518 40.0301V54.8564H51.3717V40.0301C51.3717 39.1028 50.6174 38.3485 49.6901 38.3485H33.4895C32.5622 38.3485 31.8078 39.1028 31.8078 40.0301V54.8564H27.9277V49.487C27.9277 48.8235 27.3901 48.2858 26.7265 48.2858C26.063 48.2858 25.5254 48.8235 25.5254 49.487V54.8564H10.766V40.7508H25.5254V43.8815C25.5254 44.5451 26.063 45.0827 26.7265 45.0827C27.3901 45.0827 27.9277 44.5451 27.9277 43.8815V40.0301C27.9277 39.1028 27.1734 38.3485 26.2461 38.3485H10.0453C9.118 38.3485 8.36367 39.1028 8.36367 40.0301V54.8907C4.01447 55.2677 0.589844 58.926 0.589844 63.3711V64.4347C0.589844 68.3017 3.18181 71.5726 6.71902 72.6068V76.8315C6.71902 77.9354 7.61702 78.8334 8.72098 78.8334H56.8047C57.4682 78.8334 58.0059 78.2958 58.0059 77.6322C58.0059 76.9687 57.4682 76.4311 56.8047 76.4311H9.12137V72.9494H74.0583V76.4311H62.4102C61.7466 76.4311 61.209 76.9687 61.209 77.6322C61.209 78.2958 61.7466 78.8334 62.4102 78.8334H74.4587C75.5627 78.8334 76.4607 77.9354 76.4607 76.8315V72.6068C79.9979 71.5726 82.5898 68.3017 82.5898 64.4347V30.1526C82.5898 28.7264 81.5181 27.548 80.1382 27.3744ZM46.1093 29.8495H37.0704V25.8773H46.1093V29.8495ZM42.8403 23.4749H40.3395V12.693H42.8403V23.4749ZM77.7358 27.3499H76.0519V14.0547C76.3253 14.1045 76.6064 14.1319 76.8939 14.1319C77.1814 14.1319 77.4624 14.1045 77.7358 14.0547V27.3499ZM79.1748 9.44875C79.1748 10.7065 78.1516 11.7295 76.8941 11.7295C75.6365 11.7295 74.6133 10.7063 74.6133 9.44875C74.6133 8.19121 75.6365 7.16797 76.8941 7.16797C78.1516 7.16797 79.1748 8.19105 79.1748 9.44875ZM63.6302 40.7508H66.4376V45.8723H63.6302V40.7508ZM57.6543 40.7508H61.2279V46.593C61.2279 47.5203 61.9822 48.2746 62.9095 48.2746H67.1583C68.0856 48.2746 68.84 47.5203 68.84 46.593V40.7508H72.4135V54.8564H57.6542V40.7508H57.6543ZM40.1861 40.7508H42.9935V45.8723H40.1861V40.7508ZM34.2102 40.7508H37.7837V46.593C37.7837 47.5203 38.5381 48.2746 39.4654 48.2746H43.7142C44.6415 48.2746 45.3958 47.5203 45.3958 46.593V40.7508H48.9694V54.8564H34.21L34.2102 40.7508ZM80.1875 64.4347C80.1875 67.805 77.4455 70.5471 74.0751 70.5471H9.10455C5.73422 70.5471 2.99219 67.805 2.99219 64.4347V63.3711C2.99219 60.0008 5.73422 57.2588 9.10455 57.2588H74.0751C77.4455 57.2588 80.1875 60.0008 80.1875 63.3711V64.4347ZM80.1875 57.4537C78.7999 56.0217 76.9166 55.0728 74.816 54.8907V40.0301C74.816 39.2646 74.3014 38.6183 73.6004 38.4156V30.1526C73.6004 29.9318 73.78 29.7522 74.0008 29.7522H79.7871C80.008 29.7522 80.1875 29.9318 80.1875 30.1526V57.4537Z" fill="#10417A"/>
<path id="Vector_2" d="M10.1763 59.2197C7.59393 59.2197 5.49316 61.3205 5.49316 63.9029C5.49316 66.4852 7.59393 68.586 10.1763 68.586C12.7587 68.586 14.8594 66.4852 14.8594 63.9029C14.8594 61.3205 12.7587 59.2197 10.1763 59.2197ZM10.1763 66.1836C8.91859 66.1836 7.89551 65.1604 7.89551 63.9029C7.89551 62.6453 8.91875 61.6221 10.1763 61.6221C11.4338 61.6221 12.4571 62.6453 12.4571 63.9029C12.4571 65.1604 11.434 66.1836 10.1763 66.1836Z" fill="#10417A"/>
<path id="Vector_3" d="M35.3072 59.2197C32.7248 59.2197 30.624 61.3205 30.624 63.9029C30.624 66.4852 32.7248 68.586 35.3072 68.586C37.8895 68.586 39.9903 66.4852 39.9903 63.9029C39.9903 61.3205 37.8897 59.2197 35.3072 59.2197ZM35.3072 66.1836C34.0494 66.1836 33.0264 65.1604 33.0264 63.9029C33.0264 62.6453 34.0496 61.6221 35.3072 61.6221C36.5647 61.6221 37.5879 62.6453 37.5879 63.9029C37.5879 65.1604 36.5649 66.1836 35.3072 66.1836Z" fill="#10417A"/>
<path id="Vector_4" d="M47.8726 59.2197C45.2902 59.2197 43.1895 61.3205 43.1895 63.9029C43.1895 66.4852 45.2902 68.586 47.8726 68.586C50.4549 68.586 52.5557 66.4852 52.5557 63.9029C52.5557 61.3205 50.4549 59.2197 47.8726 59.2197ZM47.8726 66.1836C46.6149 66.1836 45.5918 65.1604 45.5918 63.9029C45.5918 62.6453 46.615 61.6221 47.8726 61.6221C49.1301 61.6221 50.1534 62.6453 50.1534 63.9029C50.1534 65.1604 49.1301 66.1836 47.8726 66.1836Z" fill="#10417A"/>
<path id="Vector_5" d="M60.438 59.2197C57.8557 59.2197 55.7549 61.3205 55.7549 63.9029C55.7549 66.4852 57.8557 68.586 60.438 68.586C63.0204 68.586 65.1211 66.4852 65.1211 63.9029C65.1211 61.3205 63.0204 59.2197 60.438 59.2197ZM60.438 66.1836C59.1803 66.1836 58.1572 65.1604 58.1572 63.9029C58.1572 62.6453 59.1805 61.6221 60.438 61.6221C61.6956 61.6221 62.7188 62.6453 62.7188 63.9029C62.7188 65.1604 61.6956 66.1836 60.438 66.1836Z" fill="#10417A"/>
<path id="Vector_6" d="M22.7417 59.2197C20.1594 59.2197 18.0586 61.3205 18.0586 63.9029C18.0586 66.4852 20.1594 68.586 22.7417 68.586C25.3241 68.586 27.4249 66.4852 27.4249 63.9029C27.4249 61.3205 25.3241 59.2197 22.7417 59.2197ZM22.7417 66.1836C21.484 66.1836 20.4609 65.1604 20.4609 63.9029C20.4609 62.6453 21.4842 61.6221 22.7417 61.6221C23.9993 61.6221 25.0225 62.6453 25.0225 63.9029C25.0225 65.1604 23.9994 66.1836 22.7417 66.1836Z" fill="#10417A"/>
<path id="Vector_7" d="M73.0034 59.2197C70.4211 59.2197 68.3203 61.3205 68.3203 63.9029C68.3203 66.4852 70.4211 68.586 73.0034 68.586C75.5858 68.586 77.6866 66.4852 77.6866 63.9029C77.6866 61.3205 75.5858 59.2197 73.0034 59.2197ZM73.0034 66.1836C71.7457 66.1836 70.7227 65.1604 70.7227 63.9029C70.7227 62.6453 71.7459 61.6221 73.0034 61.6221C74.261 61.6221 75.2842 62.6453 75.2842 63.9029C75.2842 65.1604 74.261 66.1836 73.0034 66.1836Z" fill="#10417A"/>
</g>
</g>
</g>
<defs>
<clipPath id="clip0_28_4873">
<rect width="82" height="82" fill="white" transform="translate(0.589844 0.799805)"/>
</clipPath>
</defs>
</svg>
