<svg width="83" height="83" viewBox="0 0 83 83" fill="none" xmlns="http://www.w3.org/2000/svg">
<g id="SVG" clip-path="url(#clip0_28_4934)">
<g id="Group">
<path id="Vector" d="M44.2416 15.2537C43.5823 15.1796 42.9878 15.6538 42.9136 16.3128C42.8395 16.972 43.3137 17.5667 43.9729 17.6408C56.0409 18.9999 65.1412 29.1971 65.1412 41.3605C65.1412 54.523 54.4328 65.2314 41.2703 65.2314C28.1078 65.2314 17.3994 54.523 17.3994 41.3605C17.3994 29.213 26.4866 19.0172 38.5369 17.6444C39.196 17.5692 39.6695 16.9741 39.5944 16.3149C39.5193 15.6557 38.9248 15.1815 38.265 15.2574C25.0002 16.7688 14.9971 27.9905 14.9971 41.3605C14.9971 55.8477 26.7832 67.6338 41.2703 67.6338C55.7574 67.6338 67.5435 55.8477 67.5435 41.3605C67.5435 27.9732 57.5258 16.7497 44.2416 15.2537Z" fill="#10417A"/>
<path id="Vector_2" d="M70.7971 52.0729C70.2159 50.2154 70.7657 48.1637 72.1976 46.8456C73.7271 45.438 74.6044 43.4385 74.6044 41.3598C74.6044 39.2812 73.7271 37.2816 72.1978 35.874C70.7657 34.5561 70.2159 32.5042 70.7971 30.6468C71.4178 28.6629 71.1777 26.4927 70.1385 24.6925C69.0993 22.8924 67.3396 21.5993 65.3113 21.1451C63.4122 20.7197 61.9101 19.2176 61.4847 17.3185C61.0305 15.2902 59.7374 13.5307 57.9373 12.4913C56.1371 11.4519 53.9669 11.2118 51.9831 11.8327C50.1256 12.4139 48.0738 11.8641 46.7558 10.4322C45.3482 8.90272 43.3486 8.02539 41.27 8.02539C39.1913 8.02539 37.1918 8.90272 35.7842 10.432C34.4663 11.8641 32.4147 12.4139 30.5569 11.8327C28.5731 11.212 26.4028 11.4519 24.6027 12.4913C22.8025 13.5305 21.5095 15.2902 21.0553 17.3185C20.6299 19.2176 19.1278 20.7197 17.2287 21.1451C15.2003 21.5993 13.4409 22.8924 12.4015 24.6925C11.3621 26.4927 11.1221 28.6629 11.7429 30.6468C12.3241 32.5042 11.7743 34.556 10.3424 35.874C8.81287 37.2816 7.93555 39.2812 7.93555 41.3598C7.93555 43.4385 8.81287 45.438 10.3422 46.8456C11.7743 48.1635 12.3241 50.2154 11.7429 52.0729C11.1221 54.0567 11.3622 56.227 12.4015 58.0271C13.4407 59.8273 15.2003 61.1203 17.2287 61.5745C19.1278 61.9999 20.6299 63.502 21.0553 65.4011C21.5095 67.4295 22.8025 69.1889 24.6027 70.2284C26.403 71.2676 28.5731 71.5078 30.5569 70.8869C32.4149 70.3059 34.4663 70.8555 35.7842 72.2875C37.1918 73.8169 39.1913 74.6943 41.27 74.6943C43.3486 74.6943 45.3482 73.8169 46.7558 72.2876C48.0738 70.8555 50.1257 70.3057 51.9831 70.8869C53.9666 71.5075 56.1371 71.2676 57.9373 70.2284C59.7374 69.1891 61.0305 67.4295 61.4847 65.4011C61.9101 63.502 63.4122 61.9999 65.3113 61.5745C67.3396 61.1203 69.0991 59.8273 70.1385 58.0271C71.1779 56.227 71.4178 54.0567 70.7971 52.0729ZM68.5044 52.7904C68.9314 54.1547 68.7729 55.588 68.0581 56.826C67.3433 58.064 66.1814 58.9179 64.7863 59.2304C61.9842 59.858 59.7682 62.0741 59.1405 64.8761C58.8281 66.2711 57.9743 67.433 56.7361 68.1479C55.498 68.8627 54.0647 69.0211 52.7005 68.5943C49.9598 67.7365 46.9327 68.5478 44.9883 70.6608C44.0202 71.7127 42.6997 72.2921 41.2701 72.2921C39.8406 72.2921 38.5201 71.7128 37.552 70.6608C36.122 69.1071 34.1066 68.2573 32.0504 68.2573C31.3103 68.2573 30.5649 68.3675 29.8397 68.5943C28.4755 69.0209 27.0422 68.8625 25.8042 68.1479C24.5662 67.4332 23.7122 66.2712 23.3998 64.8761C22.7721 62.0741 20.5561 59.858 17.754 59.2304C16.359 58.9179 15.1971 58.0641 14.4822 56.826C13.7674 55.588 13.6089 54.1547 14.0358 52.7904C14.8933 50.05 14.0823 47.0227 11.9694 45.0781C10.9175 44.11 10.338 42.7895 10.338 41.36C10.338 39.9304 10.9173 38.61 11.9694 37.6418C14.0821 35.6972 14.8933 32.67 14.0358 29.9296C13.6089 28.5652 13.7674 27.132 14.4822 25.894C15.197 24.656 16.3589 23.8021 17.754 23.4896C20.5561 22.862 22.7721 20.6459 23.3998 17.8438C23.7122 16.4489 24.566 15.287 25.8042 14.572C27.0423 13.8571 28.4757 13.6987 29.8397 14.1257C32.58 14.9832 35.6074 14.172 37.552 12.0592C38.5201 11.0073 39.8406 10.4279 41.2701 10.4279C42.6997 10.4279 44.0202 11.0072 44.9883 12.0592C46.9331 14.172 49.9601 14.9832 52.7005 14.1257C54.0646 13.6987 55.498 13.8571 56.7361 14.572C57.9741 15.2868 58.8281 16.4487 59.1405 17.8438C59.7682 20.6459 61.9842 22.862 64.7863 23.4896C66.1812 23.8021 67.3432 24.6559 68.0581 25.894C68.7729 27.132 68.9314 28.5652 68.5044 29.9296C67.647 32.67 68.458 35.6972 70.5709 37.6418C71.6228 38.61 72.2023 39.9304 72.2023 41.36C72.2023 42.7895 71.623 44.11 70.5709 45.0781C68.458 47.0227 67.6468 50.05 68.5044 52.7904Z" fill="#10417A"/>
<path id="Vector_3" d="M70.6874 12.8095C70.9948 12.8095 71.3023 12.6922 71.5367 12.4576L81.5836 2.41077C82.0527 1.94168 82.0527 1.1811 81.5836 0.712171C81.1145 0.243078 80.3539 0.243078 79.885 0.712171L69.8381 10.759C69.3691 11.2281 69.3691 11.9887 69.8381 12.4576C70.0726 12.6921 70.38 12.8095 70.6874 12.8095Z" fill="#10417A"/>
<path id="Vector_4" d="M81.8933 17.1773C81.7189 16.5373 81.0588 16.16 80.4185 16.3347L75.395 17.7051C74.7551 17.8797 74.3777 18.54 74.5525 19.18C74.6982 19.7141 75.1824 20.0653 75.7105 20.0653C75.8151 20.0653 75.9216 20.0516 76.0275 20.0226L81.0509 18.6521C81.6907 18.4777 82.068 17.8172 81.8933 17.1773Z" fill="#10417A"/>
<path id="Vector_5" d="M63.0092 7.74401C63.1151 7.773 63.2214 7.78678 63.3262 7.78678C63.8544 7.78678 64.3385 7.43556 64.4842 6.90144L65.8547 1.87803C66.0293 1.23805 65.6521 0.577573 65.0121 0.403164C64.3721 0.228115 63.7118 0.60576 63.5372 1.24574L62.1668 6.26915C61.9919 6.90913 62.3691 7.56945 63.0092 7.74401Z" fill="#10417A"/>
<path id="Vector_6" d="M11.0022 12.4576C11.2366 12.6921 11.5441 12.8095 11.8515 12.8095C12.1588 12.8095 12.4663 12.6922 12.7008 12.4576C13.1699 11.9885 13.1699 11.2279 12.7008 10.759L2.65394 0.712171C2.18484 0.243078 1.42427 0.243078 0.955335 0.712171C0.486242 1.18126 0.486242 1.94184 0.955335 2.41077L11.0022 12.4576Z" fill="#10417A"/>
<path id="Vector_7" d="M7.14444 17.7052L2.12103 16.3347C1.48105 16.1599 0.820571 16.5373 0.646162 17.1773C0.471594 17.8173 0.848758 18.4778 1.48874 18.6522L6.51215 20.0226C6.61801 20.0516 6.72435 20.0654 6.82909 20.0654C7.35728 20.0654 7.84143 19.7142 7.98717 19.1801C8.16158 18.5401 7.78442 17.8798 7.14444 17.7052Z" fill="#10417A"/>
<path id="Vector_8" d="M18.0556 6.90137C18.2013 7.43549 18.6855 7.78671 19.2136 7.78671C19.3182 7.78671 19.4247 7.77294 19.5306 7.74395C20.1706 7.56938 20.5479 6.90906 20.3732 6.26908L19.0027 1.24567C18.8282 0.605854 18.1685 0.228209 17.5279 0.403098C16.8879 0.577667 16.5106 1.23798 16.6853 1.87796L18.0556 6.90137Z" fill="#10417A"/>
<path id="Vector_9" d="M71.5367 70.263C71.0677 69.7939 70.3071 69.7939 69.8381 70.263C69.3691 70.732 69.3691 71.4926 69.8381 71.9616L79.885 82.0084C80.1194 82.2428 80.4269 82.3602 80.7343 82.3602C81.0416 82.3602 81.3491 82.243 81.5836 82.0084C82.0527 81.5393 82.0527 80.7787 81.5836 80.3098L71.5367 70.263Z" fill="#10417A"/>
<path id="Vector_10" d="M81.0507 64.0684L76.0273 62.698C75.387 62.5232 74.727 62.9006 74.5524 63.5406C74.3778 64.1805 74.755 64.841 75.395 65.0154L80.4184 66.3859C80.5243 66.4148 80.6306 66.4286 80.7353 66.4286C81.2635 66.4286 81.7477 66.0774 81.8934 65.5433C82.068 64.9033 81.6907 64.243 81.0507 64.0684Z" fill="#10417A"/>
<path id="Vector_11" d="M64.4842 75.8189C64.3096 75.1791 63.6493 74.8015 63.0093 74.9763C62.3693 75.1509 61.992 75.8112 62.1667 76.4512L63.5372 81.4746C63.6829 82.0087 64.1671 82.36 64.6952 82.36C64.7998 82.36 64.9062 82.3462 65.0122 82.3172C65.6522 82.1426 66.0295 81.4823 65.8548 80.8423L64.4842 75.8189Z" fill="#10417A"/>
<path id="Vector_12" d="M11.0022 70.263L0.955335 80.3098C0.486242 80.7789 0.486242 81.5394 0.955335 82.0084C1.1898 82.2428 1.4973 82.3602 1.80464 82.3602C2.11197 82.3602 2.41947 82.243 2.65394 82.0084L12.7008 71.9616C13.1699 71.4925 13.1699 70.7319 12.7008 70.263C12.2317 69.7939 11.4711 69.7939 11.0022 70.263Z" fill="#10417A"/>
<path id="Vector_13" d="M6.5122 62.6981L1.48879 64.0685C0.848813 64.2431 0.471489 64.9034 0.646218 65.5434C0.791958 66.0775 1.27611 66.4287 1.8043 66.4287C1.90888 66.4287 2.01538 66.415 2.12124 66.386L7.14465 65.0155C7.78463 64.841 8.16196 64.1806 7.98723 63.5407C7.81282 62.9007 7.1525 62.523 6.5122 62.6981Z" fill="#10417A"/>
<path id="Vector_14" d="M19.5305 74.9763C18.8906 74.8016 18.2302 75.1789 18.0557 75.8189L16.6852 80.8423C16.5107 81.4823 16.8878 82.1427 17.5278 82.3171C17.6337 82.3461 17.74 82.3599 17.8447 82.3599C18.3729 82.3599 18.8571 82.0087 19.0028 81.4746L20.3733 76.4512C20.5478 75.8113 20.1705 75.1509 19.5305 74.9763Z" fill="#10417A"/>
<path id="Vector_15" d="M46.4414 45.2473C45.9723 45.7164 45.9723 46.477 46.4414 46.9459C46.9105 47.415 47.6711 47.415 48.14 46.9459L57.9961 37.0898C58.699 36.3869 59.0861 35.4526 59.0861 34.4585C59.0861 33.4644 58.699 32.5301 57.9961 31.8273L54.8986 28.7296C53.4475 27.2789 51.0869 27.2789 49.636 28.7296L37.4236 40.942L33.151 36.6693C32.4481 35.9664 31.5137 35.5793 30.5196 35.5793C29.5256 35.5793 28.5912 35.9664 27.8883 36.6693L24.5441 40.0135C23.8412 40.7164 23.4541 41.6507 23.4541 42.6448C23.4541 43.6389 23.8412 44.5732 24.5441 45.276L33.1122 53.8443C34.2328 54.9649 35.7048 55.5253 37.1768 55.5253C38.6488 55.5253 40.1208 54.9649 41.2414 53.8443L44.1949 50.8907C44.664 50.4216 44.664 49.661 44.1949 49.1921C43.7258 48.723 42.9653 48.723 42.4963 49.1921L39.5428 52.1457C38.2381 53.4501 36.1153 53.4501 34.8108 52.1457L26.2427 43.5774C25.9935 43.3284 25.8564 42.9972 25.8564 42.645C25.8564 42.2926 25.9937 41.9614 26.2427 41.7124L29.5869 38.3682C29.8361 38.1192 30.1673 37.9819 30.5195 37.9819C30.8717 37.9819 31.2029 38.119 31.4521 38.3682L36.5741 43.4903C37.0432 43.9594 37.8038 43.9594 38.2727 43.4903L51.3346 30.4285C51.8487 29.9144 52.6855 29.9143 53.1998 30.4285L56.2973 33.5262C56.5465 33.7753 56.6836 34.1065 56.6836 34.4587C56.6836 34.8108 56.5464 35.1422 56.2973 35.3912L46.4414 45.2473Z" fill="#10417A"/>
</g>
</g>
<defs>
<clipPath id="clip0_28_4934">
<rect width="82" height="82" fill="white" transform="translate(0.269531 0.360352)"/>
</clipPath>
</defs>
</svg>
