<svg width="71" height="71" viewBox="0 0 71 71" fill="none" xmlns="http://www.w3.org/2000/svg">
<g id="SVG" clip-path="url(#clip0_17_2721)">
<g id="Group">
<path id="Vector" d="M68.8492 63.6096H67.5709V57.8402C67.5709 56.3839 66.6196 55.1463 65.306 54.7143V11.3012H65.4518C66.6203 11.3012 67.5709 10.3505 67.5709 9.18201V6.83961C67.5709 5.67107 66.6203 4.72047 65.4518 4.72047H61.9084V3.40332C61.9084 1.63172 60.4672 0.19043 58.6956 0.19043H23.4336C21.662 0.19043 20.2207 1.63172 20.2207 3.40332V4.72047H16.6774C15.5088 4.72047 14.5582 5.67107 14.5582 6.83961V9.18201C14.5582 10.3505 15.5088 11.3012 16.6774 11.3012H16.8232V14.2649C16.8232 14.8314 17.2823 15.2903 17.8486 15.2903C18.4149 15.2903 18.874 14.8314 18.874 14.2649V11.3012H49.6653V54.5498H18.874V18.3662C18.874 17.7998 18.4149 17.3408 17.8486 17.3408C17.2823 17.3408 16.8232 17.7998 16.8232 18.3662V29.635H12.1862C7.87405 29.635 4.36584 33.1432 4.36584 37.4553V63.6096H3.08752C1.91899 63.6096 0.968384 64.5602 0.968384 65.7288V68.0713C0.968384 69.2398 1.91899 70.1904 3.08752 70.1904H7.87036C8.43665 70.1904 8.89575 69.7315 8.89575 69.165C8.89575 68.5986 8.43665 68.1396 7.87036 68.1396H3.08752C3.04979 68.1396 3.01917 68.1089 3.01917 68.0713V65.7288C3.01917 65.6912 3.04979 65.6604 3.08752 65.6604H68.8492C68.887 65.6604 68.9176 65.6912 68.9176 65.7288V68.0713C68.9176 68.1089 68.887 68.1396 68.8492 68.1396H11.9719C11.4056 68.1396 10.9465 68.5986 10.9465 69.165C10.9465 69.7315 11.4056 70.1904 11.9719 70.1904H68.8492C70.0178 70.1904 70.9684 69.2398 70.9684 68.0713V65.7288C70.9684 64.5602 70.0178 63.6096 68.8492 63.6096ZM63.2551 54.5498H58.511V11.3012H63.2551V54.5498ZM56.4602 11.3012V15.2903H51.7161V11.3012H56.4602ZM56.4602 21.3302H51.7161V17.341H56.4602V21.3302ZM56.4602 23.3809V27.3701H51.7161V23.3809H56.4602ZM56.4602 29.4209V33.4101H51.7161V29.4209H56.4602ZM56.4602 35.4609V39.45H51.7161V35.4609H56.4602ZM56.4602 41.5007V45.4899H51.7161V41.5007H56.4602ZM56.4602 47.5406V51.5298H51.7161V47.5406H56.4602ZM56.4602 53.5806V57.5698H51.7161V55.5766C51.7161 55.5761 51.7161 55.5757 51.7161 55.5752C51.7161 55.5746 51.7161 55.5744 51.7161 55.5738V53.5806H56.4602ZM51.7161 59.6206H56.4602V63.6097H51.7161V59.6206ZM22.2715 3.40332C22.2715 2.76252 22.7928 2.24121 23.4336 2.24121H58.6957C59.3365 2.24121 59.8578 2.76252 59.8578 3.40332V4.72047H22.2715V3.40332ZM16.6774 9.25037C16.6396 9.25037 16.609 9.21961 16.609 9.18201V6.83961C16.609 6.80201 16.6396 6.77125 16.6774 6.77125H65.4518C65.4895 6.77125 65.5201 6.80201 65.5201 6.83961V9.18201C65.5201 9.21961 65.4895 9.25037 65.4518 9.25037H16.6774ZM14.5582 57.8402V63.6096H10.9465V49.8057H16.8231V54.7141C15.5097 55.1463 14.5582 56.3839 14.5582 57.8402ZM10.9465 45.2758H16.8231V47.7549H10.9465V45.2758ZM16.8232 43.225H10.9465V37.4554C10.9465 36.772 11.5026 36.216 12.186 36.216H16.8231L16.8232 43.225ZM6.41663 37.4553C6.41663 34.2739 9.00485 31.6858 12.1862 31.6858H16.8232V34.165H12.1862C10.3719 34.165 8.89588 35.6411 8.89588 37.4553V63.6096H6.41663V37.4553ZM16.609 57.8402C16.609 57.1566 17.165 56.6006 17.8486 56.6006H49.6653V63.6097H16.609V57.8402ZM58.511 63.6096V56.6006H64.2805C64.964 56.6006 65.52 57.1566 65.52 57.8402V63.6096H58.511Z" fill="#F8B232"/>
<path id="Vector_2" d="M42.6562 32.9254C42.6562 27.9889 38.64 23.9727 33.7035 23.9727C28.767 23.9727 24.7507 27.9889 24.7507 32.9254C24.7507 37.8619 28.767 41.8782 33.7035 41.8782C38.64 41.8782 42.6562 37.8619 42.6562 32.9254ZM26.8014 32.9254C26.8014 29.1196 29.8975 26.0234 33.7033 26.0234C37.5092 26.0234 40.6053 29.1196 40.6053 32.9254C40.6053 36.7312 37.5091 39.8274 33.7033 39.8274C29.8976 39.8274 26.8014 36.7312 26.8014 32.9254Z" fill="#F8B232"/>
<path id="Vector_3" d="M36.9935 33.7753C36.9935 33.1998 36.8406 32.6312 36.551 32.1307L35.0814 29.5814C34.798 29.0907 34.2698 28.7861 33.7031 28.7861C33.1364 28.7861 32.6083 29.0909 32.3245 29.5822L30.8564 32.1288C30.5663 32.6297 30.4127 33.1991 30.4127 33.7753C30.4127 35.5895 31.8887 37.0655 33.703 37.0655C35.5175 37.0657 36.9935 35.5897 36.9935 33.7753ZM32.4636 33.7753C32.4636 33.5565 32.52 33.3484 32.6321 33.155L33.7033 31.2968L34.7745 33.155C34.7747 33.1555 34.7751 33.1562 34.7756 33.1569C34.8867 33.3484 34.9429 33.5567 34.9429 33.7753C34.9429 34.4587 34.3869 35.0148 33.7033 35.0148C33.0197 35.0149 32.4636 34.4587 32.4636 33.7753Z" fill="#F8B232"/>
</g>
</g>
<defs>
<clipPath id="clip0_17_2721">
<rect width="70" height="70" fill="white" transform="translate(0.968384 0.19043)"/>
</clipPath>
</defs>
</svg>
