<svg width="71" height="71" viewBox="0 0 71 71" fill="none" xmlns="http://www.w3.org/2000/svg">
<g id="SVG" clip-path="url(#clip0_17_2729)">
<g id="Group">
<g id="Group_2">
<path id="Vector" d="M35.2184 66.3622C35.0747 66.3622 34.9325 66.3339 34.7998 66.2789C34.6671 66.224 34.5465 66.1434 34.4449 66.0419C34.3434 65.9403 34.2628 65.8197 34.2078 65.687C34.1529 65.5543 34.1246 65.412 34.1246 65.2684V34.6178C34.1263 34.5542 34.1335 34.491 34.146 34.4287C34.1881 34.2156 34.293 34.0199 34.4472 33.8669C34.4857 33.8292 34.5267 33.7942 34.57 33.7622C34.6511 33.7022 34.7403 33.654 34.8349 33.6191L62.1563 22.6901C62.3682 22.6056 62.6014 22.5895 62.823 22.644C63.0446 22.6986 63.2436 22.8212 63.3921 22.9945L69.9557 30.6508C70.0657 30.7794 70.1443 30.9318 70.1855 31.096C70.2266 31.2602 70.2291 31.4317 70.1928 31.597C70.1565 31.7623 70.0823 31.917 69.9761 32.0487C69.8699 32.1805 69.7346 32.2859 69.5807 32.3566L63.6559 35.0728V52.1434C63.6559 52.3495 63.5977 52.5515 63.4879 52.7259C63.3781 52.9003 63.2212 53.0402 63.0353 53.1293L35.6916 66.2543C35.544 66.3256 35.3822 66.3624 35.2184 66.3622ZM36.3121 37.5519V63.5306L61.4684 51.4556V36.0757L43.3382 44.3878C43.124 44.4857 42.884 44.5119 42.6537 44.4627C42.4234 44.4134 42.215 44.2913 42.0596 44.1144L36.3121 37.5519ZM37.0588 35.0845L43.1673 42.0594L62.0954 33.382L62.1178 33.3713L67.3505 30.9723L62.2417 25.0122L37.0588 35.0845Z" fill="#F8B232"/>
<path id="Vector_2" d="M35.2173 66.3622C35.0538 66.3624 34.8924 66.3255 34.7452 66.2544L7.40143 53.1294C7.21556 53.0403 7.05867 52.9004 6.94887 52.726C6.83907 52.5516 6.78083 52.3496 6.78088 52.1435V34.3594C6.78088 34.0693 6.89612 33.7911 7.10124 33.586C7.30635 33.3809 7.58455 33.2656 7.87463 33.2656C8.16471 33.2656 8.44291 33.3809 8.64803 33.586C8.85315 33.7911 8.96838 34.0693 8.96838 34.3594V51.4556L35.6916 64.2826C35.9151 64.3899 36.0955 64.57 36.2033 64.7934C36.311 65.0167 36.3396 65.27 36.2845 65.5117C36.2294 65.7535 36.0937 65.9693 35.8998 66.1239C35.7059 66.2784 35.4652 66.3625 35.2173 66.3622Z" fill="#F8B232"/>
<path id="Vector_3" d="M27.5621 44.4868C27.4047 44.487 27.2491 44.4531 27.106 44.3875L0.856035 32.3423C0.702107 32.2715 0.566727 32.1659 0.460554 32.0338C0.35438 31.9017 0.28031 31.7468 0.244176 31.5813C0.208042 31.4157 0.210829 31.244 0.252319 31.0797C0.293809 30.9155 0.372868 30.763 0.483274 30.6345L7.06393 22.9921C7.21259 22.819 7.41169 22.6968 7.63332 22.6426C7.85494 22.5884 8.08797 22.6049 8.29974 22.6898L35.6253 33.6273C35.7876 33.6924 35.9319 33.7953 36.0462 33.9276C36.1604 34.0598 36.2414 34.2176 36.2822 34.3875C36.3229 34.5575 36.3224 34.7348 36.2806 34.9045C36.2388 35.0742 36.157 35.2314 36.0419 35.363L28.3856 44.113C28.283 44.2305 28.1564 44.3246 28.0144 44.3891C27.8723 44.4535 27.7181 44.4869 27.5621 44.4868ZM3.08947 30.9602L27.2769 42.059L33.378 35.0842L8.21215 25.0118L3.08947 30.9602Z" fill="#F8B232"/>
<path id="Vector_4" d="M7.89716 24.7994C7.64616 24.7995 7.40275 24.7133 7.20779 24.5552C7.01283 24.3971 6.87819 24.1768 6.82646 23.9312C6.77473 23.6856 6.80906 23.4296 6.9237 23.2064C7.03833 22.9831 7.22629 22.806 7.45603 22.7049L14.0078 19.8178C14.2732 19.7013 14.574 19.695 14.8441 19.8002C15.1142 19.9054 15.3314 20.1135 15.448 20.3788C15.5647 20.6441 15.5712 20.9449 15.4662 21.2151C15.3612 21.4852 15.1532 21.7026 14.888 21.8194L8.33616 24.7064C8.19787 24.7676 8.04836 24.7993 7.89716 24.7994Z" fill="#F8B232"/>
<path id="Vector_5" d="M62.561 24.7998C62.4091 24.7996 62.2589 24.768 62.1199 24.7068C60.8467 24.1428 59.5714 23.5817 58.2939 23.0235C57.0164 22.4627 55.7397 21.9009 54.4636 21.338C54.3319 21.2801 54.213 21.1968 54.1135 21.0929C54.014 20.9889 53.936 20.8664 53.884 20.7323C53.8319 20.5982 53.8068 20.4551 53.8101 20.3113C53.8134 20.1675 53.845 20.0257 53.9032 19.8941C53.9613 19.7626 54.0448 19.6437 54.1489 19.5445C54.253 19.4452 54.3757 19.3674 54.5099 19.3156C54.6441 19.2638 54.7872 19.239 54.9311 19.2425C55.0749 19.2461 55.2166 19.278 55.348 19.3363C56.6212 19.9003 57.8965 20.4614 59.174 21.0197C60.4515 21.5804 61.7283 22.1423 63.0043 22.7052C63.234 22.8066 63.4218 22.9839 63.5362 23.2073C63.6506 23.4308 63.6847 23.6868 63.6327 23.9324C63.5807 24.178 63.4459 24.3982 63.2507 24.5562C63.0556 24.7141 62.8121 24.8001 62.561 24.7998Z" fill="#F8B232"/>
</g>
<path id="Vector_6" d="M31.9371 34.4299C31.7935 34.43 31.6512 34.4018 31.5185 34.3468C31.3857 34.2919 31.2651 34.2114 31.1636 34.1098C31.062 34.0082 30.9814 33.8876 30.9265 33.7548C30.8715 33.6221 30.8433 33.4798 30.8434 33.3362V20.4248C30.8433 20.1953 30.9155 19.9716 31.0497 19.7855C31.1839 19.5993 31.3733 19.4601 31.5911 19.3877L54.5598 11.7314C54.7242 11.6763 54.8993 11.6612 55.0707 11.6871C55.2422 11.7131 55.4049 11.7795 55.5456 11.8809C55.6863 11.9822 55.8008 12.1156 55.8798 12.2699C55.9587 12.4243 55.9998 12.5952 55.9996 12.7686V26.7683C55.9996 27.0584 55.8844 27.3366 55.6793 27.5417C55.4742 27.7469 55.196 27.8621 54.9059 27.8621C54.6158 27.8621 54.3376 27.7469 54.1325 27.5417C53.9274 27.3366 53.8121 27.0584 53.8121 26.7683V14.2864L33.0309 21.2131V33.3362C33.031 33.4799 33.0027 33.6221 32.9478 33.7549C32.8929 33.8876 32.8123 34.0082 32.7107 34.1098C32.6091 34.2114 32.4885 34.2919 32.3558 34.3469C32.2231 34.4018 32.0808 34.43 31.9371 34.4299Z" fill="#F8B232"/>
<path id="Vector_7" d="M14.4521 27.4316C14.1622 27.4315 13.8843 27.3164 13.6792 27.1115C13.4742 26.9067 13.3588 26.6288 13.3583 26.339L13.3434 12.7697C13.3431 12.5879 13.3881 12.4089 13.4744 12.2489C13.5607 12.0889 13.6856 11.953 13.8376 11.8534C13.9897 11.7538 14.1642 11.6937 14.3454 11.6786C14.5265 11.6635 14.7086 11.6937 14.8751 11.7667L32.3751 19.4229C32.6391 19.5401 32.8461 19.7571 32.9507 20.0264C33.0553 20.2958 33.0491 20.5955 32.9334 20.8603C32.8176 21.125 32.6019 21.3332 32.3331 21.4393C32.0644 21.5454 31.7646 21.5409 31.4992 21.4267L15.5331 14.4412L15.5459 26.3369C15.546 26.4805 15.5179 26.6227 15.4631 26.7555C15.4082 26.8883 15.3278 27.0089 15.2263 27.1106C15.1249 27.2122 15.0044 27.2929 14.8717 27.348C14.7391 27.4031 14.5969 27.4316 14.4532 27.4317L14.4521 27.4316Z" fill="#F8B232"/>
<path id="Vector_8" d="M54.9059 13.8625C54.783 13.8626 54.6609 13.842 54.5448 13.8016L33.0629 6.28206L14.8537 13.7802C14.5854 13.8907 14.2843 13.8901 14.0164 13.7785C13.7486 13.6669 13.5361 13.4535 13.4256 13.1853C13.3151 12.917 13.3158 12.6158 13.4273 12.348C13.5389 12.0802 13.7523 11.8677 14.0206 11.7572L32.6143 4.10097C32.8622 3.999 33.1388 3.9914 33.3919 4.07959L55.2669 11.7358C55.5109 11.8211 55.7168 11.9899 55.8482 12.2124C55.9796 12.435 56.0279 12.6969 55.9846 12.9516C55.9414 13.2064 55.8093 13.4377 55.6119 13.6044C55.4144 13.7711 55.1643 13.8625 54.9059 13.8625Z" fill="#F8B232"/>
<path id="Vector_9" d="M38.4996 59.8001C38.2478 59.8001 38.0036 59.7131 37.8085 59.5539C37.6133 59.3947 37.4791 59.173 37.4285 58.9262C37.3779 58.6795 37.414 58.4228 37.5307 58.1997C37.6475 57.9765 37.8377 57.8004 38.0692 57.7012L45.7254 54.42C45.9918 54.3069 46.2922 54.304 46.5607 54.4119C46.8292 54.5199 47.044 54.7299 47.1579 54.996C47.2718 55.262 47.2757 55.5624 47.1685 55.8312C47.0614 56.1 46.852 56.3154 46.5863 56.4302L38.9301 59.7114C38.7942 59.7703 38.6477 59.8005 38.4996 59.8001Z" fill="#F8B232"/>
<path id="Vector_10" d="M38.4996 55.4251C38.2478 55.4251 38.0036 55.3381 37.8085 55.1789C37.6133 55.0197 37.4791 54.798 37.4285 54.5512C37.3779 54.3045 37.414 54.0478 37.5307 53.8247C37.6475 53.6015 37.8377 53.4254 38.0692 53.3262L45.7254 50.045C45.9918 49.9319 46.2922 49.929 46.5607 50.0369C46.8292 50.1449 47.044 50.3549 47.1579 50.621C47.2718 50.887 47.2757 51.1874 47.1685 51.4562C47.0614 51.725 46.852 51.9404 46.5863 52.0552L38.9301 55.3364C38.7942 55.3953 38.6477 55.4255 38.4996 55.4251Z" fill="#F8B232"/>
<path id="Vector_11" d="M30.8434 57.6124C30.7044 57.6125 30.5666 57.5861 30.4375 57.5344L24.9688 55.3469C24.7656 55.2658 24.5915 55.1257 24.4689 54.9446C24.3463 54.7635 24.2808 54.5498 24.2809 54.3311V48.8624C24.2809 48.6837 24.3247 48.5077 24.4084 48.3498C24.4922 48.1919 24.6133 48.057 24.7613 47.9568C24.9093 47.8565 25.0795 47.7941 25.2572 47.7749C25.4349 47.7557 25.6146 47.7803 25.7805 47.8466L31.2493 50.0341C31.4523 50.1153 31.6263 50.2555 31.7489 50.4365C31.8715 50.6176 31.9371 50.8312 31.9371 51.0499V56.5186C31.9371 56.8087 31.8219 57.0869 31.6168 57.292C31.4117 57.4971 31.1335 57.6124 30.8434 57.6124ZM26.4684 53.5909L29.7496 54.9026V51.7901L26.4684 50.4774V53.5909Z" fill="#F8B232"/>
<path id="Vector_12" d="M41.781 33.1255C41.6373 33.1256 41.495 33.0973 41.3623 33.0424C41.2296 32.9875 41.109 32.9069 41.0074 32.8053C40.9058 32.7037 40.8252 32.5831 40.7703 32.4504C40.7154 32.3176 40.6871 32.1754 40.6872 32.0317V17.8589L22.9394 10.0884C22.8071 10.0312 22.6873 9.94852 22.587 9.84495C22.4868 9.74139 22.408 9.61903 22.3551 9.4849C22.3023 9.35078 22.2765 9.20753 22.2792 9.06341C22.282 8.91928 22.3132 8.77712 22.371 8.64508C22.4289 8.51305 22.5122 8.39375 22.6164 8.29405C22.7205 8.19435 22.8433 8.11622 22.9777 8.06413C23.1121 8.01205 23.2555 7.98704 23.3996 7.99056C23.5437 7.99408 23.6857 8.02604 23.8174 8.08462L42.22 16.1414C42.4146 16.2267 42.5802 16.3669 42.6965 16.5449C42.8128 16.7228 42.8747 16.9307 42.8747 17.1433V32.0317C42.8748 32.1754 42.8466 32.3176 42.7916 32.4504C42.7367 32.5831 42.6561 32.7037 42.5545 32.8053C42.453 32.9069 42.3324 32.9875 42.1996 33.0424C42.0669 33.0973 41.9246 33.1256 41.781 33.1255Z" fill="#F8B232"/>
</g>
</g>
<defs>
<clipPath id="clip0_17_2729">
<rect width="70" height="70" fill="white" transform="translate(0.218384 0.19043)"/>
</clipPath>
</defs>
</svg>
