<svg width="71" height="71" viewBox="0 0 71 71" fill="none" xmlns="http://www.w3.org/2000/svg">
<g id="SVG" clip-path="url(#clip0_17_2716)">
<path id="Vector" d="M67.3933 24.58H64.3498C63.3321 24.58 62.5041 25.4079 62.5041 26.4257V38.6755H57.4826V37.0709H57.6904C58.7081 37.0709 59.5361 36.2429 59.5361 35.2252V32.0192C59.5361 31.0015 58.7081 30.1735 57.6904 30.1735H39.2908V27.307C44.2556 26.4787 46.7761 25.6599 46.7761 23.8128C46.7761 21.9688 44.2557 21.1498 39.2908 20.3204V17.7414H57.6904C58.7081 17.7414 59.5361 16.9135 59.5361 15.8957V12.6897C59.5361 11.6719 58.7081 10.844 57.6904 10.844H47.1234V6.08027C47.1234 2.83252 44.4819 0.19043 41.2349 0.19043H30.2017C27.3453 0.19043 24.9583 2.23561 24.4252 4.93867H20.1265C19.6965 3.65529 18.4837 2.72752 17.0575 2.72752C15.2727 2.72752 13.8208 4.17947 13.8208 5.96434C13.8208 7.74906 15.2727 9.20102 17.0575 9.20102C18.4837 9.20102 19.6967 8.27311 20.1265 6.98945H24.3131V10.8438H13.7463C12.7285 10.8438 11.9006 11.6718 11.9006 12.6895V15.8954C11.9006 16.9132 12.7285 17.7412 13.7463 17.7412H24.6627C24.6622 17.7589 24.6605 17.7763 24.6605 17.7942C24.6605 19.6383 27.1809 20.4572 32.1459 21.2867V26.3395C27.1809 27.168 24.6605 27.9866 24.6605 29.8323C24.6605 29.9515 24.6734 30.0647 24.6954 30.1733H13.7463C12.7285 30.1733 11.9006 31.0012 11.9006 32.019V35.2249C11.9006 36.2426 12.7285 37.0706 13.7463 37.0706H13.9541V38.6753H8.93253V26.4254C8.93253 25.4077 8.10457 24.5797 7.08683 24.5797H4.04333C3.0256 24.5797 2.19763 25.4077 2.19763 26.4254V30.3221C2.19763 30.8886 2.65673 31.3475 3.22302 31.3475C3.78931 31.3475 4.24841 30.8886 4.24841 30.3221V26.6305H6.88175V68.1396H4.24841V35.1076C4.24841 34.5412 3.78931 34.0822 3.22302 34.0822C2.65673 34.0822 2.19763 34.5412 2.19763 35.1076V68.3447C2.19763 69.3625 3.0256 70.1904 4.04333 70.1904H7.08683C8.10457 70.1904 8.93253 69.3625 8.93253 68.3447V40.7262H13.9541V45.8913C13.9541 56.8707 22.887 65.8031 33.8672 65.8031H37.5695C42.9055 65.8031 47.918 63.7202 51.6837 59.9382C52.0832 59.5368 52.0818 58.8875 51.6805 58.4881C51.2791 58.0882 50.6298 58.0899 50.2305 58.4911C46.8526 61.8838 42.3562 63.7523 37.5696 63.7523H33.8673C24.0179 63.7523 16.005 55.7399 16.005 45.8913V37.0706H55.4319V45.8913C55.4319 49.0566 54.5925 52.1673 53.0044 54.8871C52.7188 55.3761 52.8838 56.0041 53.3728 56.2897C53.8598 56.5741 54.4887 56.4123 54.7753 55.9214C56.5466 52.888 57.4827 49.4197 57.4827 45.8914V40.7262H62.5043V68.3447C62.5043 69.3625 63.3322 70.1904 64.35 70.1904H67.3935C68.4112 70.1904 69.2392 69.3625 69.2392 68.3447V26.4257C69.239 25.4078 68.4111 24.58 67.3933 24.58ZM34.1967 30.1734V28.0897C34.7517 28.0045 36.78 27.7014 37.24 27.6315V30.1734H34.1967ZM42.7315 23.1152C43.8106 23.4069 44.3286 23.6593 44.5694 23.8132C44.3287 23.9672 43.811 24.22 42.732 24.5117C41.7058 24.7894 40.4504 25.0296 39.2907 25.2275V22.3996C40.4511 22.5977 41.7066 22.838 42.7315 23.1152ZM37.24 25.5568C36.6814 25.6424 34.6532 25.9456 34.1967 26.0151V17.7413H37.24V25.5568ZM17.0575 7.15023C16.4035 7.15023 15.8716 6.61826 15.8716 5.96434C15.8716 5.31041 16.4035 4.7783 17.0575 4.7783C17.7112 4.7783 18.2432 5.31027 18.2432 5.96406C18.2432 6.61826 17.7114 7.15023 17.0575 7.15023ZM26.364 6.08027C26.364 3.96346 28.0856 2.24121 30.2017 2.24121H41.2349C43.3511 2.24121 45.0726 3.96346 45.0726 6.08027V10.844H26.364V6.08027ZM13.9513 12.8947H57.4853V15.6905C53.0704 15.6905 18.3633 15.6905 13.9513 15.6905V12.8947ZM28.7052 18.4919C27.6285 18.2008 27.1104 17.9487 26.8689 17.7947C26.8949 17.7781 26.9253 17.76 26.9579 17.7412H32.1459V19.2073C30.9855 19.0094 29.7301 18.769 28.7052 18.4919ZM26.8669 29.8323C27.1074 29.6785 27.6253 29.4258 28.7047 29.1342C29.7298 28.8571 30.9855 28.6169 32.1459 28.419V30.1735H27.5815C27.2236 30.036 27.0017 29.9186 26.8669 29.8323ZM13.9513 32.2242H57.4853V35.0199H56.4651C56.4624 35.0199 56.4599 35.0195 56.4572 35.0195C56.4545 35.0195 56.452 35.0199 56.4493 35.0199H14.9874C14.9847 35.0199 14.9822 35.0195 14.9795 35.0195C14.9767 35.0195 14.9743 35.0199 14.9715 35.0199H13.9513V32.2242ZM67.1883 68.1396H64.5549V26.6307H67.1883V68.1396Z" fill="#F8B232"/>
</g>
<defs>
<clipPath id="clip0_17_2716">
<rect width="70" height="70" fill="white" transform="translate(0.718384 0.19043)"/>
</clipPath>
</defs>
</svg>
