<svg width="71" height="71" viewBox="0 0 71 71" fill="none" xmlns="http://www.w3.org/2000/svg">
<g id="SVG" clip-path="url(#clip0_17_2746)">
<g id="Group">
<path id="Vector" d="M64.6536 17.6338H63.9441C63.5246 16.1607 62.9387 14.7473 62.1938 13.4111L62.6982 12.9066C63.2752 12.3298 63.5928 11.5605 63.5928 10.7403C63.5928 9.92018 63.2752 9.15102 62.6978 8.57354L59.3373 5.21704C58.7602 4.63641 57.99 4.31677 57.1683 4.31677C56.3468 4.31677 55.5764 4.63641 55.0022 5.21417L54.4984 5.71797C53.1612 4.97082 51.7473 4.38376 50.2751 3.96445V3.25504C50.2753 1.56524 48.9006 0.19043 47.2107 0.19043H42.4595C40.7697 0.19043 39.3949 1.56524 39.3949 3.25504V3.96445C37.923 4.38362 36.5083 4.97082 35.1684 5.71851L34.6669 5.21704C34.0895 4.63641 33.3193 4.31677 32.4978 4.31691C31.6762 4.31691 30.906 4.63668 30.3318 5.21431L26.972 8.57422C26.3949 9.15102 26.0773 9.92032 26.0773 10.7405C26.0773 11.5606 26.3949 12.3298 26.9719 12.9066L27.4761 13.4109C26.7281 14.7513 26.1419 16.1649 25.7248 17.6338H25.0126C23.3228 17.6338 21.948 19.0086 21.948 20.6984V25.4536C21.948 27.1434 23.3228 28.5182 25.0126 28.5182H25.7248C26.1419 29.987 26.7281 31.4006 27.4761 32.7411L26.9719 33.2454C26.3948 33.8223 26.0772 34.5915 26.0772 35.4117C26.0772 36.2317 26.3948 37.001 26.9717 37.5778L30.3289 40.935C30.906 41.5156 31.6761 41.8353 32.4976 41.8353H32.4978C33.3193 41.8353 34.0897 41.5156 34.664 40.9379L35.1682 40.4335C36.5095 41.1819 37.9243 41.7683 39.3948 42.1853V42.8971C39.3948 44.5869 40.7696 45.9617 42.4594 45.9617H47.2105C48.9003 45.9617 50.2751 44.5869 50.2751 42.8971V42.1853C51.746 41.7681 53.1597 41.182 54.4984 40.4341L54.9993 40.935C55.5764 41.5156 56.3467 41.8353 57.1682 41.8353C57.9898 41.8353 58.7602 41.5155 59.3339 40.9384L62.6982 37.5778C63.2751 37.0009 63.5927 36.2316 63.5927 35.4116C63.5927 34.5914 63.2751 33.8223 62.6982 33.2454L62.1937 32.741C62.9385 31.4047 63.5243 29.9914 63.9439 28.5182H64.6535C66.3433 28.5182 67.7181 27.1434 67.7181 25.4536V20.6984C67.7182 19.0086 66.3435 17.6338 64.6536 17.6338ZM47.541 42.897C47.541 43.0761 47.3898 43.2273 47.2107 43.2273H42.4595C42.2804 43.2273 42.1292 43.0761 42.1292 42.897V41.122V32.5031C42.1292 31.9313 41.7735 31.42 41.2376 31.2212C37.5638 29.8587 35.0955 26.323 35.0955 22.4231C35.0955 19.3323 36.6345 16.4351 39.2116 14.6735C39.3272 14.5945 39.4295 14.5299 39.5189 14.477C39.514 14.6548 39.5014 14.8237 39.4947 14.9119C39.4845 15.0507 39.4763 15.1602 39.4763 15.2689V21.7214C39.4763 24.6831 41.7904 27.1566 44.7444 27.3525C44.8047 27.3564 44.8652 27.3564 44.9255 27.3525C47.8774 27.1567 50.1898 24.6832 50.1898 21.7214V15.2689C50.1898 15.1608 50.1818 15.0519 50.1716 14.914C50.1651 14.8254 50.1525 14.6555 50.1477 14.4769C50.2368 14.5297 50.3386 14.5941 50.4538 14.673C53.0316 16.4349 54.5706 19.3322 54.5706 22.4229C54.5706 26.3225 52.1037 29.8583 48.4321 31.2212C47.8963 31.4202 47.5407 31.9313 47.5407 32.5029V41.1219V42.897H47.541ZM64.9839 25.4536C64.9839 25.6296 64.8296 25.7839 64.6536 25.7839H62.8826C62.2439 25.7839 61.6902 26.2262 61.5492 26.8492C61.1162 28.7623 60.3664 30.5713 59.3204 32.226C58.9788 32.7663 59.0573 33.4712 59.5093 33.9231L60.765 35.1789C60.8465 35.2604 60.8587 35.3596 60.8587 35.4116C60.8587 35.4634 60.8465 35.5628 60.7654 35.6437L57.3983 39.0072C57.3213 39.0846 57.2307 39.1008 57.1683 39.1008C57.1061 39.1008 57.0156 39.0846 56.9358 39.0042L55.68 37.7484C55.2274 37.2959 54.5218 37.218 53.9815 37.5603C52.8145 38.2998 51.5723 38.8866 50.2753 39.3203V33.4124C54.5167 31.4385 57.3052 27.137 57.3052 22.4228C57.3052 18.4284 55.3207 14.6873 51.9972 12.4155C51.4881 12.0676 49.9398 11.009 48.5856 11.7884C47.2559 12.554 47.3884 14.3487 47.4449 15.1151C47.4498 15.1817 47.4546 15.2376 47.4557 15.2689V21.7214C47.4557 23.2179 46.3119 24.4726 44.8351 24.6168C43.3562 24.4724 42.2107 23.2178 42.2107 21.7214L42.2106 15.2787C42.2118 15.2376 42.2167 15.1817 42.2216 15.1148C42.2787 14.3488 42.4122 12.5551 41.0836 11.7891C39.73 11.0083 38.1794 12.0673 37.6693 12.4155C34.3455 14.6874 32.3612 18.4285 32.3612 22.4229C32.3612 27.1378 35.1511 31.4396 39.3949 33.4129V39.3204C38.0976 38.8867 36.8539 38.2997 35.6835 37.5598C35.4585 37.4176 35.2053 37.3483 34.9533 37.3483C34.6002 37.3483 34.2499 37.4849 33.9862 37.7487L32.7279 39.0072C32.6509 39.0847 32.5602 39.101 32.4979 39.101C32.4356 39.101 32.3452 39.0847 32.2654 39.0044L28.9054 35.6444C28.8238 35.5629 28.8117 35.4635 28.8117 35.4117C28.8117 35.3598 28.8238 35.2605 28.9054 35.1789L30.161 33.9231C30.613 33.4712 30.6915 32.7663 30.35 32.226C29.2986 30.5625 28.5489 28.7544 28.1216 26.8515C27.9817 26.2274 27.4274 25.7838 26.7877 25.7838H25.0129C24.8369 25.7838 24.6826 25.6295 24.6826 25.4535V20.6983C24.6826 20.5192 24.8338 20.368 25.0129 20.368H26.7877C27.4274 20.368 27.9815 19.9243 28.1216 19.3002C28.5489 17.3974 29.2985 15.5891 30.35 13.9258C30.6915 13.3855 30.613 12.6806 30.161 12.2286L28.9053 10.9729C28.8238 10.8914 28.8117 10.7922 28.8117 10.7402C28.8117 10.6882 28.8238 10.589 28.9054 10.5074L32.2682 7.14445C32.3452 7.06707 32.4357 7.0508 32.498 7.0508C32.5604 7.0508 32.6509 7.06707 32.7307 7.14732L33.9863 8.40305C34.4386 8.85517 35.1435 8.93351 35.6836 8.59199C37.3449 7.54175 39.1551 6.7905 41.0635 6.35943C41.687 6.21862 42.1295 5.66478 42.1295 5.02591V3.25504C42.1295 3.07594 42.2807 2.92474 42.4598 2.92474H47.2109C47.39 2.92474 47.5412 3.07594 47.5412 3.25504V5.02619C47.5412 5.66519 47.9838 6.21889 48.6071 6.35971C50.5173 6.79118 52.3254 7.54202 53.9818 8.59158C54.5222 8.93392 55.2276 8.85599 55.6803 8.40346L56.9388 7.14486C57.0157 7.06748 57.1064 7.05121 57.1686 7.05121C57.2309 7.05121 57.3214 7.06748 57.4018 7.14828L60.7653 10.5078C60.8468 10.5893 60.8589 10.6885 60.8589 10.7405C60.8589 10.7924 60.8468 10.8917 60.7652 10.9733L59.5096 12.229C59.0576 12.681 58.9791 13.3859 59.3206 13.9262C60.3665 15.5809 61.1165 17.3898 61.5495 19.303C61.6904 19.926 62.2441 20.3682 62.8829 20.3682H64.6539C64.833 20.3682 64.9842 20.5194 64.9842 20.6985V25.4536H64.9839Z" fill="#F8B232"/>
<path id="Vector_2" d="M52.8011 60.3895C52.2672 60.9233 52.2672 61.789 52.8011 62.323C53.0681 62.5899 53.4179 62.7235 53.7678 62.7235C54.1176 62.7235 54.4675 62.5899 54.7345 62.323L54.7383 62.3192C55.2722 61.7853 55.2703 60.9216 54.7363 60.3877C54.2023 59.8538 53.3349 59.8559 52.8011 60.3895Z" fill="#F8B232"/>
<path id="Vector_3" d="M59.1345 47.1451L48.2806 52.7191C47.3605 51.7662 46.0713 51.1717 44.6452 51.1717H37.2084C36.792 51.1717 36.6903 51.1387 36.6834 51.1363C36.6231 51.1046 36.4326 50.9255 36.2796 50.7817L36.2118 50.718C30.1952 45.0543 25.1128 45.4132 19.3332 47.6941C18.398 48.0632 18.38 48.0641 17.4409 48.1041L15.7593 48.1053C15.2802 46.6601 13.9169 45.6143 12.3131 45.6143H6.84505C4.84531 45.6143 3.21854 47.243 3.21854 49.2447V63.5956C3.21854 65.5952 4.84531 67.2221 6.84505 67.2221H12.3131C13.9168 67.2221 15.28 66.1775 15.7592 64.734H18.8352C19.1069 64.734 19.1069 64.734 19.4229 64.823C19.5377 64.8554 19.6774 64.8948 19.8579 64.9433L34.0071 68.7287C34.6308 68.8971 35.2028 69.063 35.7561 69.2232C37.5689 69.7485 39.0928 70.1901 40.681 70.1901C42.4761 70.1901 44.353 69.626 46.8217 67.9807C46.8336 67.9728 46.8455 67.9646 46.8572 67.9563L49.5585 66.0301C50.1733 65.5916 50.3163 64.738 49.8778 64.1232C49.4394 63.5082 48.5854 63.3654 47.9711 63.8038L45.2877 65.7171C41.7053 68.1 40.184 67.6595 36.517 66.5969C35.9521 66.4333 35.3681 66.264 34.7172 66.0882L20.5669 62.3027C20.4012 62.2581 20.2712 62.2215 20.1645 62.1914C19.6483 62.0459 19.4553 62 18.8354 62H15.9436V50.8407H17.4211C17.4408 50.8407 17.4602 50.8403 17.4799 50.8395L17.5578 50.8362C18.7039 50.7873 19.0245 50.756 20.3372 50.2377C25.4133 48.2345 29.3316 47.9965 34.3394 52.7109L34.4071 52.7744C35.263 53.5787 35.7558 53.9063 37.2085 53.9063H44.6453C45.5181 53.9063 46.2792 54.3908 46.6759 55.1046C46.6802 55.1126 46.6851 55.1201 46.6895 55.128C46.8667 55.4557 46.9676 55.8306 46.9676 56.2287C46.9676 57.5071 45.9259 58.5471 44.6455 58.5471H32.593C31.8381 58.5471 31.2259 59.1592 31.2259 59.9143C31.2259 60.6693 31.8381 61.2814 32.593 61.2814H44.6455C47.4336 61.2814 49.7019 59.0148 49.7019 56.2287C49.7019 55.85 49.6587 55.4814 49.5794 55.1264L60.3837 49.5778C61.4063 49.0528 62.8047 49.1091 63.4989 50.2356C64.113 51.2286 63.7752 52.5485 62.7136 53.3053L57.9741 56.6808C57.359 57.1189 57.2155 57.9725 57.6535 58.5876C57.9202 58.962 58.341 59.1618 58.7683 59.1618C59.0427 59.1618 59.3197 59.0793 59.5601 58.9082L64.3002 55.5323C66.5513 53.9274 67.2065 51.032 65.8254 48.7993C64.4673 46.5952 61.591 45.884 59.1345 47.1451ZM13.2091 63.5956C13.2091 64.0793 12.7989 64.4878 12.3131 64.4878H6.84505C6.36135 64.4878 5.95284 64.0792 5.95284 63.5956V49.2449C5.95284 48.7508 6.35314 48.3487 6.84505 48.3487H12.3131C12.7989 48.3487 13.2091 48.759 13.2091 49.2449V63.5956Z" fill="#F8B232"/>
</g>
</g>
<defs>
<clipPath id="clip0_17_2746">
<rect width="70" height="70" fill="white" transform="translate(0.468384 0.19043)"/>
</clipPath>
</defs>
</svg>
