<svg width="96" height="96" viewBox="0 0 96 96" fill="none" xmlns="http://www.w3.org/2000/svg">
<g id="SVG" clip-path="url(#clip0_25_2636)">
<g id="Group">
<g id="Page-1_29_">
<g id="_x30_30---Forklift-Truck">
<path id="Shape_174_" d="M90.5192 29.3H74.686C72.0627 29.3 69.936 31.4267 69.936 34.0499V49.8832C69.9401 51.0554 70.3804 52.1843 71.171 53.0499C70.3804 53.9155 69.9401 55.0443 69.936 56.2166V72.0498C69.9412 72.5905 70.0397 73.1262 70.2273 73.6331H66.7693V8.71678C66.7693 6.09353 64.6425 3.9668 62.0193 3.9668C59.396 3.9668 57.2693 6.09353 57.2693 8.71678V34.9779L46.8414 24.55H47.7693C50.3928 24.55 52.5193 22.4233 52.5193 19.8C52.5193 17.1768 50.3928 15.05 47.7693 15.05H5.01951C2.70872 15.0458 0.731727 16.7086 0.340224 18.986C-0.051278 21.2634 1.25664 23.4911 3.43625 24.2589V56.5081C1.54516 57.1764 0.277881 58.9608 0.269531 60.9666V78.3832C0.269531 81.0065 2.39626 83.1332 5.01951 83.1332H6.72951C7.07481 85.5409 8.20515 87.767 9.94521 89.4665H5.01951C4.14503 89.4665 3.43625 90.1752 3.43625 91.0497C3.43625 91.9242 4.14522 92.633 5.01951 92.633H76.2692C77.1437 92.633 77.8525 91.9242 77.8525 91.0497C77.8525 90.1752 77.1435 89.4665 76.2692 89.4665H66.5936C68.3336 87.767 69.464 85.5407 69.8093 83.1332H90.5192C92.3963 83.1416 94.1008 82.0389 94.8626 80.3231C95.6245 78.6074 95.2994 76.6035 94.0342 75.2167C94.8248 74.3511 95.2651 73.2223 95.2692 72.05V56.2168C95.2651 55.0445 94.8248 53.9156 94.0342 53.0501C94.8248 52.1845 95.2651 51.0556 95.2692 49.8833V34.0501C95.2692 31.4267 93.1426 29.3 90.5192 29.3ZM79.4359 32.4667H85.7692V40.3834L84.3585 39.4428C83.2959 38.7317 81.9093 38.7317 80.8467 39.4428L79.4359 40.3834V32.4667ZM73.1025 34.0499C73.1025 33.1755 73.8113 32.4667 74.6858 32.4667H76.269V40.3834C76.2692 41.551 76.912 42.6237 77.9414 43.1747C78.9708 43.7256 80.2199 43.6655 81.1916 43.0181L82.6023 42.0761L84.013 43.0167C84.9845 43.664 86.2332 43.7243 87.2625 43.1736C88.2919 42.6231 88.9348 41.5508 88.9355 40.3836V32.4669H90.5188C91.3933 32.4669 92.1021 33.1758 92.1021 34.0501V49.8833C92.1021 50.7578 91.3933 51.4666 90.5188 51.4666H74.6856C73.8111 51.4666 73.1023 50.7576 73.1023 49.8833L73.1025 34.0499ZM79.4359 54.6333H85.7692V62.55L84.3585 61.6095C83.2959 60.8983 81.9093 60.8983 80.8467 61.6095L79.4359 62.55V54.6333ZM73.1025 72.0498V56.2166C73.1025 55.3421 73.8113 54.6333 74.6858 54.6333H76.269V62.55C76.2692 63.7177 76.912 64.7903 77.9414 65.3414C78.9708 65.8923 80.2199 65.8322 81.1916 65.1848L82.6023 64.2428L84.013 65.1833C84.9845 65.8307 86.2332 65.891 87.2625 65.3403C88.2917 64.7896 88.9348 63.7175 88.9355 62.5502V54.6335H90.5188C91.3933 54.6335 92.1021 55.3425 92.1021 56.2168V72.05C92.1021 72.9245 91.3933 73.6333 90.5188 73.6333H74.6856C73.8115 73.6333 73.1025 72.9243 73.1025 72.0498ZM60.436 8.71678C60.436 7.8423 61.1448 7.13351 62.0193 7.13351C62.8938 7.13351 63.6026 7.84248 63.6026 8.71678V71.551C62.6013 71.0736 61.5337 70.7508 60.4358 70.5931V8.71678H60.436ZM57.2693 39.4555V64.1333H50.9361V48.3001C50.9361 47.8802 50.7691 47.4776 50.4722 47.1807L44.4666 41.1751L47.3055 38.3363C47.9055 37.715 47.897 36.7274 47.2862 36.1167C46.6754 35.5059 45.6879 35.4974 45.0667 36.0975L37.15 44.0141C36.7384 44.4118 36.5733 45.0003 36.7182 45.554C36.8631 46.1077 37.2954 46.5398 37.8489 46.6847C38.4026 46.8296 38.9912 46.6645 39.3888 46.2529L42.2276 43.4141L47.7693 48.9554V64.1333H37.5775C35.2706 64.1374 33.0205 63.4175 31.1444 62.075L26.6668 58.8783C24.9359 57.6423 22.9487 56.8122 20.8529 56.4495V47.5084C20.8529 44.4478 18.3718 41.9666 15.3112 41.9666C12.2506 41.9666 9.76949 44.4478 9.76949 47.5084V56.2166H6.60278V24.55H42.3638L57.2693 39.4555ZM17.6862 56.2166H12.9362V47.5084C12.9362 46.1967 13.9996 45.1334 15.3112 45.1334C16.6228 45.1334 17.6862 46.1967 17.6862 47.5084V56.2166ZM5.01951 18.2167H47.7693C48.6438 18.2167 49.3526 18.9255 49.3526 19.8C49.3526 20.6745 48.6436 21.3833 47.7693 21.3833H5.01951C4.14503 21.3833 3.43625 20.6743 3.43625 19.8C3.43625 18.9255 4.14503 18.2167 5.01951 18.2167ZM3.43625 78.3832V60.9666C3.43625 60.0921 4.14522 59.3833 5.01951 59.3833H18.3781C20.6878 59.3776 22.9409 60.0975 24.8191 61.4416L29.2967 64.6383C31.7096 66.3721 34.6065 67.3032 37.5775 67.3H57.2693V70.5933C52.4149 71.2991 48.6019 75.1121 47.8961 79.9665H28.6427C27.8601 74.517 23.1915 70.471 17.686 70.471C12.1805 70.471 7.51195 74.517 6.72932 79.9665H5.01951C4.14503 79.9665 3.43625 79.2575 3.43625 78.3832ZM9.76949 81.5498C9.76949 77.1776 13.314 73.6331 17.6862 73.6331C22.0584 73.6331 25.6029 77.1776 25.6029 81.5498C25.6029 85.922 22.0584 89.4665 17.6862 89.4665C13.316 89.4613 9.77469 85.9199 9.76949 81.5498ZM25.427 89.4665C27.167 87.767 28.2974 85.5407 28.6427 83.1332H47.8959C48.2412 85.5409 49.3715 87.767 51.1116 89.4665H25.427ZM58.8526 89.4665C54.4804 89.4665 50.9359 85.922 50.9359 81.5498C50.9359 77.1776 54.4804 73.6331 58.8526 73.6331C63.2248 73.6331 66.7693 77.1776 66.7693 81.5498C66.7641 85.9199 63.2227 89.4613 58.8526 89.4665ZM90.5192 79.9665H69.8093C69.6517 78.8686 69.3287 77.801 68.8513 76.7998H90.5192C91.3937 76.7998 92.1024 77.5088 92.1024 78.383C92.1024 79.2575 91.3937 79.9665 90.5192 79.9665Z" fill="#F8B232"/>
<path id="Shape_173_" d="M17.6865 76.7998C15.0633 76.7998 12.9365 78.9265 12.9365 81.5498C12.9365 84.173 15.0633 86.2998 17.6865 86.2998C20.3098 86.2998 22.4365 84.173 22.4365 81.5498C22.4365 78.9265 20.3098 76.7998 17.6865 76.7998ZM17.6865 83.1332C16.812 83.1332 16.1032 82.4244 16.1032 81.55C16.1032 80.6755 16.8122 79.9667 17.6865 79.9667C18.561 79.9667 19.2698 80.6755 19.2698 81.55C19.2698 82.4244 18.5608 83.1332 17.6865 83.1332Z" fill="#F8B232"/>
<path id="Shape_172_" d="M58.8525 76.7998C56.2293 76.7998 54.1025 78.9265 54.1025 81.5498C54.1025 84.173 56.2293 86.2998 58.8525 86.2998C61.4758 86.2998 63.6025 84.173 63.6025 81.5498C63.6025 78.9265 61.476 76.7998 58.8525 76.7998ZM58.8525 83.1332C57.978 83.1332 57.2693 82.4244 57.2693 81.55C57.2693 80.6755 57.9782 79.9667 58.8525 79.9667C59.727 79.9667 60.4358 80.6755 60.4358 81.55C60.4358 82.4244 59.727 83.1332 58.8525 83.1332Z" fill="#F8B232"/>
<path id="Shape_171_" d="M88.936 92.6333C89.8105 92.6333 90.5193 91.9245 90.5193 91.0501C90.5193 90.1756 89.8105 89.4668 88.936 89.4668H82.6028C81.7283 89.4668 81.0195 90.1756 81.0195 91.0501C81.0195 91.9245 81.7285 92.6333 82.6028 92.6333H88.936Z" fill="#F8B232"/>
</g>
</g>
</g>
</g>
<defs>
<clipPath id="clip0_25_2636">
<rect width="95" height="95" fill="white" transform="translate(0.269531 0.799805)"/>
</clipPath>
</defs>
</svg>
