<svg width="83" height="82" viewBox="0 0 83 82" fill="none" xmlns="http://www.w3.org/2000/svg">
<g id="SVG">
<g id="Group">
<path id="Vector" d="M56.9326 67.8867C54.8134 67.8867 53.0889 69.6113 53.0889 71.7305C53.0889 73.8497 54.8134 75.5742 56.9326 75.5742C59.0518 75.5742 60.7764 73.8497 60.7764 71.7305C60.7764 69.6113 59.0518 67.8867 56.9326 67.8867ZM56.9326 73.0117C56.2254 73.0117 55.6514 72.4377 55.6514 71.7305C55.6514 71.0232 56.2254 70.4492 56.9326 70.4492C57.6399 70.4492 58.2139 71.0232 58.2139 71.7305C58.2139 72.4377 57.6386 73.0117 56.9326 73.0117Z" fill="white"/>
<path id="Vector_2" d="M21.0576 67.8867C18.9384 67.8867 17.2139 69.6113 17.2139 71.7305C17.2139 73.8497 18.9384 75.5742 21.0576 75.5742C23.1768 75.5742 24.9014 73.8497 24.9014 71.7305C24.9014 69.6113 23.1768 67.8867 21.0576 67.8867ZM21.0576 73.0117C20.3504 73.0117 19.7764 72.4377 19.7764 71.7305C19.7764 71.0232 20.3504 70.4492 21.0576 70.4492C21.7649 70.4492 22.3389 71.0232 22.3389 71.7305C22.3389 72.4377 21.7636 73.0117 21.0576 73.0117Z" fill="white"/>
<path id="Vector_3" d="M46.2755 52.0288L35.1504 45.0742V49.9494H12.0879V60.1994H35.1504V65.0733L46.2755 58.1212C47.3325 57.4613 47.9629 56.3223 47.9629 55.0744C47.9642 53.829 47.3325 52.6887 46.2755 52.0288ZM44.9174 55.9495L37.7142 60.4518V57.6382H14.6517V52.5132H37.7142V49.6995L44.9174 54.2018C45.2197 54.3915 45.4017 54.7169 45.4017 55.0757C45.4017 55.4344 45.2197 55.7598 44.9174 55.9495Z" fill="white"/>
<path id="Vector_4" d="M58.2139 49.9492V60.1992H71.0264V53.2625L67.7131 49.9492H58.2139ZM68.4639 57.6367H60.7764V52.5117H66.6522L68.4639 54.3234V57.6367Z" fill="white"/>
<path id="Vector_5" d="M81.2764 62.7619V18.3705L44.5301 1.89742C42.6697 1.06717 40.4493 1.06589 38.5838 1.8987L1.83887 18.3705V62.7619H6.96387V71.7307C6.96387 73.8499 8.68843 75.5744 10.8076 75.5744H12.9665C14.4092 78.5994 17.4893 80.6994 21.0576 80.6994C24.6259 80.6994 27.7047 78.5994 29.1487 75.5744H48.8415C50.2842 78.5994 53.3643 80.6994 56.9326 80.6994C60.5009 80.6994 63.5797 78.5994 65.0237 75.5744H76.1526C77.5659 75.5744 78.7151 74.4251 78.7151 73.0119V70.4494C78.7151 69.0362 77.5659 67.8869 76.1526 67.8869H76.1514V62.7619H81.2764ZM12.1914 73.0119H10.8076C10.1004 73.0119 9.52637 72.4379 9.52637 71.7307V70.4494H12.1914C12.1311 70.8697 12.0889 71.295 12.0889 71.7307C12.0889 72.1663 12.1299 72.5929 12.1914 73.0119ZM21.0576 78.1369C17.5252 78.1369 14.6514 75.2631 14.6514 71.7307C14.6514 68.1983 17.5252 65.3244 21.0576 65.3244C24.59 65.3244 27.4639 68.1983 27.4639 71.7307C27.4639 75.2631 24.5887 78.1369 21.0576 78.1369ZM48.0664 73.0119H29.9239C29.9841 72.5917 30.0264 72.1663 30.0264 71.7307C30.0264 71.295 29.9841 70.8697 29.9239 70.4494H48.0664C48.0061 70.8697 47.9639 71.295 47.9639 71.7307C47.9639 72.1663 48.0049 72.5929 48.0664 73.0119ZM48.8415 67.8869H29.1487C27.706 64.8619 24.6259 62.7619 21.0576 62.7619C17.4893 62.7619 14.4105 64.8619 12.9665 67.8869H9.52637V43.5432C9.52637 42.8359 10.1004 42.2619 10.8076 42.2619H51.8076C52.5149 42.2619 53.0889 42.8359 53.0889 43.5432V63.6396C51.2311 64.5262 49.7281 66.0291 48.8415 67.8869ZM50.5264 26.8869H47.9639H35.1514H32.5889H17.2139V39.6994H12.0889V24.3244H71.0264V45.5752L70.2756 44.8244H65.9014V26.8869H50.5264ZM51.8076 39.6994H50.5264V29.4494H53.0889V34.5744H60.7764V29.4494H63.3389V44.8244H55.6514V43.5432C55.6514 41.424 53.9268 39.6994 51.8076 39.6994ZM55.6514 32.0119V29.4494H58.2139V32.0119H55.6514ZM45.4014 34.5744V29.4494H47.9639V39.6994H35.1514V29.4494H37.7139V34.5744H45.4014ZM40.2764 32.0119V29.4494H42.8389V32.0119H40.2764ZM30.0264 34.5744V29.4494H32.5889V39.6994H19.7764V29.4494H22.3389V34.5744H30.0264ZM24.9014 32.0119V29.4494H27.4639V32.0119H24.9014ZM56.9326 78.1369C53.4002 78.1369 50.5264 75.2631 50.5264 71.7307C50.5264 68.1983 53.4002 65.3244 56.9326 65.3244C60.465 65.3244 63.3389 68.1983 63.3389 71.7307C63.3389 75.2631 60.4637 78.1369 56.9326 78.1369ZM56.9326 62.7619C56.497 62.7619 56.0716 62.8042 55.6514 62.8644V47.3869H69.2147L73.5889 51.7611V67.8869H65.0237C63.5797 64.8632 60.5009 62.7619 56.9326 62.7619ZM76.1526 70.4494V73.0119H65.7989C65.8591 72.5917 65.9014 72.1663 65.9014 71.7307C65.9014 71.295 65.8591 70.8697 65.7989 70.4494H76.1526ZM73.5889 48.1377V21.7619H9.52637V39.9365C8.03884 40.4669 6.96387 41.8763 6.96387 43.5445V60.2007H4.40137V20.0297L39.6319 4.23827C40.8414 3.69758 42.2777 3.69886 43.4833 4.23698L78.7139 20.0297V60.2007H76.1514V50.7015L73.5889 48.1377Z" fill="white"/>
<path id="Vector_6" d="M51.8076 11.5117C49.6884 11.5117 47.9639 13.2363 47.9639 15.3555C47.9639 17.4747 49.6884 19.1992 51.8076 19.1992C53.9268 19.1992 55.6514 17.4747 55.6514 15.3555C55.6514 13.2363 53.9268 11.5117 51.8076 11.5117ZM51.8076 16.6367C51.1004 16.6367 50.5264 16.0627 50.5264 15.3555C50.5264 14.6482 51.1004 14.0742 51.8076 14.0742C52.5149 14.0742 53.0889 14.6482 53.0889 15.3555C53.0889 16.0627 52.5136 16.6367 51.8076 16.6367Z" fill="white"/>
<path id="Vector_7" d="M41.5576 11.5117C39.4384 11.5117 37.7139 13.2363 37.7139 15.3555C37.7139 17.4747 39.4384 19.1992 41.5576 19.1992C43.6768 19.1992 45.4014 17.4747 45.4014 15.3555C45.4014 13.2363 43.6768 11.5117 41.5576 11.5117ZM41.5576 16.6367C40.8504 16.6367 40.2764 16.0627 40.2764 15.3555C40.2764 14.6482 40.8504 14.0742 41.5576 14.0742C42.2649 14.0742 42.8389 14.6482 42.8389 15.3555C42.8389 16.0627 42.2636 16.6367 41.5576 16.6367Z" fill="white"/>
<path id="Vector_8" d="M31.3076 11.5117C29.1884 11.5117 27.4639 13.2363 27.4639 15.3555C27.4639 17.4747 29.1884 19.1992 31.3076 19.1992C33.4268 19.1992 35.1514 17.4747 35.1514 15.3555C35.1514 13.2363 33.4268 11.5117 31.3076 11.5117ZM31.3076 16.6367C30.6004 16.6367 30.0264 16.0627 30.0264 15.3555C30.0264 14.6482 30.6004 14.0742 31.3076 14.0742C32.0149 14.0742 32.5889 14.6482 32.5889 15.3555C32.5889 16.0627 32.0136 16.6367 31.3076 16.6367Z" fill="white"/>
</g>
</g>
</svg>
