<svg width="96" height="96" viewBox="0 0 96 96" fill="none" xmlns="http://www.w3.org/2000/svg">
<g id="SVG" clip-path="url(#clip0_28_5051)">
<g id="Group">
<path id="Vector" d="M50.1654 19.6669L58.6712 12.4291C60.4843 10.8861 60.2717 8.0312 58.2502 6.77397L48.7663 0.875624C46.3295 -0.640061 43.198 1.25506 43.411 4.11777L43.5431 5.89136C37.5527 6.33703 31.8191 7.9555 26.4956 10.7041C21.1878 13.4447 16.5519 17.1659 12.7171 21.7646C11.0637 23.7471 11.4311 26.7144 13.5279 28.2125C15.5843 29.6816 18.1728 29.1795 19.5923 27.47C25.6959 20.1192 34.646 15.5239 44.2077 14.8157L44.3893 17.2537C44.602 20.1147 47.9792 21.5275 50.1654 19.6669ZM44.481 12.0079C39.202 12.3319 34.154 13.7013 29.4776 16.0785C24.8348 18.4384 20.7883 21.6729 17.451 25.6921C16.9263 26.3241 16.0027 26.5591 15.1453 25.9476C14.3664 25.391 14.233 24.2922 14.8545 23.5471C22.1489 14.7999 32.8388 9.36524 44.1828 8.63662C45.4735 8.55368 46.449 7.43265 46.3525 6.14146L46.1863 3.91108C46.1425 3.3231 46.7832 2.92029 47.2962 3.23905L56.7801 9.1374C57.1993 9.39808 57.2436 9.98922 56.8673 10.3096L48.3616 17.5474C47.9076 17.9339 47.2086 17.6419 47.1645 17.0472L46.9494 14.16C46.8552 12.8953 45.7462 11.929 44.481 12.0079Z" fill="#F8B232"/>
<path id="Vector_2" d="M82.3985 67.4146C80.5225 66.0742 77.8912 66.4234 76.408 68.21C70.3044 75.5607 61.3539 80.1562 51.7926 80.8644L51.611 78.4264C51.3982 75.5643 48.0208 74.153 45.8347 76.0133L37.3291 83.2511C35.5157 84.794 35.7288 87.6489 37.7503 88.9062L47.2341 94.8045C49.6702 96.3196 52.802 94.424 52.5891 91.5627L52.457 89.789C64.581 88.887 75.6189 83.1063 83.2832 73.9156C84.8633 72.0206 84.689 69.0564 82.3985 67.4146ZM81.1458 72.1329C73.8516 80.88 63.1616 86.3147 51.8177 87.0433C50.5274 87.1263 49.5517 88.2464 49.6478 89.5383L49.8138 91.7689C49.858 92.3635 49.2108 92.7556 48.7041 92.4409L39.2204 86.5425C38.802 86.2824 38.7558 85.6915 39.133 85.3705L47.6387 78.1327C48.0922 77.747 48.7917 78.0381 48.8358 78.6329L49.0509 81.5201C49.1451 82.7844 50.2532 83.7494 51.5195 83.6722C62.1293 83.0212 71.8333 78.0763 78.5497 69.9878C79.1147 69.3071 80.0737 69.174 80.7801 69.6785C81.7102 70.3444 81.726 71.4375 81.1458 72.1329Z" fill="#F8B232"/>
<path id="Vector_3" d="M27.6302 76.249C20.2796 70.1454 15.6839 61.1947 14.9757 51.6336L17.4139 51.4519C20.2759 51.2389 21.6873 47.8617 19.827 45.6757L12.5893 37.1701C11.0465 35.3566 8.19138 35.5694 6.93416 37.5911L1.03581 47.075C-0.479878 49.5125 1.41505 52.6418 4.27777 52.4303L6.05135 52.2982C6.95605 64.4524 12.7581 75.4801 21.9248 83.1244C23.8197 84.7042 26.7889 84.5304 28.4258 82.2393C29.7657 80.3635 29.4164 77.7323 27.6302 76.249ZM26.161 80.6214C25.4994 81.5463 24.4071 81.5705 23.7071 80.9867C14.9599 73.6924 9.52524 63.0026 8.79662 51.6586C8.71424 50.3689 7.59468 49.3932 6.30165 49.4885L4.07107 49.6546C3.48161 49.6997 3.08233 49.0546 3.39942 48.5447L9.29758 39.0608C9.55808 38.6416 10.1492 38.5971 10.4696 38.9736L17.7074 47.4793C18.0939 47.9335 17.802 48.6323 17.2072 48.6764L14.32 48.8917C13.0561 48.9859 12.0903 50.0932 12.1677 51.3603C12.8191 61.9695 17.7636 71.6739 25.8521 78.3899C26.5331 78.9554 26.6659 79.9149 26.161 80.6214Z" fill="#F8B232"/>
<path id="Vector_4" d="M67.5791 68.6099C68.3478 68.6099 68.9707 67.9868 68.9707 67.2183C68.9707 66.4648 68.3714 65.8527 67.6235 65.829V51.0872C67.6235 50.3187 67.0006 49.6956 66.2319 49.6956C65.4632 49.6956 64.8403 50.3187 64.8403 51.0872V65.8267H58.5169C58.5169 64.582 58.5169 30.3602 58.5169 29.0868H64.8403V44.5932C64.8403 45.3617 65.4632 45.9848 66.2319 45.9848C67.0006 45.9848 67.6235 45.3617 67.6235 44.5932V28.9046C67.6235 27.4706 66.4568 26.3037 65.0225 26.3037H58.3347C56.9007 26.3037 55.7336 27.4706 55.7336 28.9046V35.542H49.2282C47.7939 35.542 46.6271 36.7089 46.6271 38.1429V44.7803H40.1216C38.6876 44.7803 37.5205 45.9471 37.5205 47.3812V54.0185H31.0151C29.581 54.0185 28.4142 55.1854 28.4142 56.6195V65.8269C27.6486 65.8306 27.0293 66.4518 27.0293 67.2181C27.0293 67.9866 27.6522 68.6097 28.4209 68.6097C107.616 68.6099 29.7026 68.6099 67.5791 68.6099ZM49.4106 38.3251H55.734V65.8267H49.4106C49.4106 63.2639 49.4106 38.9539 49.4106 38.3251ZM40.304 47.5634H46.6274V65.8267H40.304C40.304 63.7587 40.304 49.3403 40.304 47.5634ZM37.5209 65.8267H31.1977V56.8017H37.5209V65.8267Z" fill="#F8B232"/>
<path id="Vector_5" d="M27.2574 41.8547C27.7705 42.4273 28.6503 42.4752 29.2225 41.9625L36.3428 35.5827L38.1196 37.5657C39.8592 39.5071 43.0707 38.669 43.6394 36.1246L45.1605 29.3183C45.6399 27.1728 43.8622 25.1892 41.6769 25.4301L34.7451 26.1976C32.1548 26.4845 30.9688 29.5847 32.7088 31.5267L34.4856 33.5098L27.3652 39.8895C26.7928 40.4027 26.7448 41.2823 27.2574 41.8547ZM35.0513 28.9641C35.0897 28.9598 41.9955 28.1937 42.0343 28.1937C42.2909 28.1937 42.5061 28.4356 42.4445 28.7115L40.9235 35.5179C40.8479 35.8565 40.4242 35.9675 40.1926 35.7087L34.7819 29.6699C34.5501 29.4114 34.706 29.0023 35.0513 28.9641Z" fill="#F8B232"/>
<path id="Vector_6" d="M91.7214 43.2503L89.9478 43.3822C89.5382 37.8839 88.132 32.5804 85.7652 27.6109C85.4347 26.9169 84.6046 26.6225 83.9105 26.9529C83.2166 27.2834 82.922 28.1139 83.2524 28.8078C85.5325 33.5949 86.8614 38.7138 87.2024 44.0218C87.2423 44.6452 87.5241 45.2148 87.9963 45.6258C88.4689 46.0373 89.0719 46.2383 89.6974 46.1919L91.9278 46.0258C92.5154 45.9811 92.9176 46.6246 92.5996 47.1355L86.7014 56.6195C86.4409 57.0386 85.8498 57.0831 85.5294 56.7067L78.2916 48.2011C77.9053 47.7469 78.197 47.0481 78.7916 47.0038L81.679 46.7888C82.9435 46.6945 83.909 45.5868 83.8313 44.32C83.5073 39.0409 82.1377 33.9931 79.7607 29.3165C77.4006 24.6737 74.1661 20.6273 70.1469 17.29C69.466 16.7246 69.3333 15.7654 69.8372 15.0599C70.5048 14.1278 71.5976 14.1142 72.2918 14.6933C75.2921 17.1951 77.9278 20.107 80.1251 23.3481C80.5565 23.9841 81.4215 24.15 82.0579 23.719C82.6941 23.2876 82.86 22.4224 82.4288 21.7862C80.0852 18.3299 77.2745 15.2245 74.0744 12.5559C72.1769 10.9728 69.2092 11.1541 67.5736 13.4407C66.2333 15.3165 66.5828 17.9479 68.369 19.4311C75.7198 25.5348 80.3155 34.485 81.0235 44.0465L78.5853 44.2281C75.7237 44.4411 74.3119 47.8183 76.1722 50.0044L83.4099 58.5101C84.9542 60.3245 87.81 60.1069 89.065 58.089L94.963 48.6052C96.4787 46.1696 94.5851 43.0375 91.7214 43.2503Z" fill="#F8B232"/>
</g>
</g>
<defs>
<clipPath id="clip0_28_5051">
<rect width="95" height="95" fill="white" transform="translate(0.5 0.339844)"/>
</clipPath>
</defs>
</svg>
