<svg width="96" height="96" viewBox="0 0 96 96" fill="none" xmlns="http://www.w3.org/2000/svg">
<g id="SVG" clip-path="url(#clip0_28_5063)">
<g id="Group">
<g id="Group_2">
<path id="Vector" d="M90.1096 0.339844H5.78629C2.84333 0.339844 0.449219 2.73414 0.449219 5.6771V29.7813C0.449219 32.7272 2.84333 35.1238 5.78629 35.1238H9.81247L9.8635 42.9C9.86813 43.5968 10.2624 44.2321 10.8847 44.5453C11.1484 44.6779 11.4342 44.7433 11.7188 44.7433C12.1056 44.7433 12.4907 44.6223 12.8146 44.3853L25.4737 35.1236H40.3631L46.416 43.938C46.7621 44.4419 47.3343 44.7431 47.9457 44.7431C48.5571 44.7431 49.1291 44.4419 49.4753 43.938L55.5283 35.1236H70.4227L83.0764 44.385C83.6384 44.7965 84.3838 44.8581 85.0059 44.5455C85.6282 44.2324 86.0227 43.5975 86.0277 42.901L86.083 35.1236H90.1101C93.0531 35.1236 95.4472 32.7269 95.4472 29.7811V5.6771C95.4466 2.73414 93.0525 0.339844 90.1096 0.339844ZM91.7357 29.7813C91.7357 30.681 91.0061 31.4128 90.1096 31.4128H84.2402C83.2206 31.4128 82.3919 32.2355 82.3847 33.2551L82.342 39.2494L72.1245 31.7711C71.8065 31.5384 71.4228 31.4128 71.0287 31.4128H54.5512C53.9398 31.4128 53.3677 31.714 53.0215 32.2179L47.9453 39.6101L42.8691 32.2179C42.5231 31.714 41.9509 31.4128 41.3395 31.4128H24.8672C24.4733 31.4128 24.0896 31.5383 23.7715 31.7707L13.5505 39.249L13.5112 33.2564C13.5045 32.2363 12.6756 31.413 11.6557 31.413H5.78629C4.88954 31.413 4.16016 30.681 4.16016 29.7815V5.6771C4.16016 4.78035 4.88973 4.05078 5.78629 4.05078H90.1096C91.0063 4.05078 91.7357 4.78035 91.7357 5.6771V29.7813Z" fill="#10417A"/>
<path id="Vector_2" d="M89.0061 77.4872C89.9292 75.9572 90.4612 74.1659 90.4612 72.2523C90.4612 66.6442 85.901 62.0816 80.296 62.0816C74.6878 62.0816 70.1254 66.6442 70.1254 72.2523C70.1254 74.1661 70.6579 75.9575 71.5816 77.4877C70.2332 78.108 69.0348 78.9944 68.0477 80.0728C66.6141 75.9145 63.3784 72.5169 59.2347 70.9207C60.7948 68.6887 61.7135 65.9771 61.7135 63.0535C61.7135 55.4616 55.5372 49.2852 47.9455 49.2852C40.3539 49.2852 34.1776 55.4616 34.1776 63.0535C34.1776 65.9775 35.0966 68.6897 36.657 70.9218C32.513 72.5184 29.2773 75.9154 27.8435 80.0731C26.8566 78.9946 25.6584 78.1084 24.31 77.4881C25.2333 75.9579 25.7656 74.1663 25.7656 72.2525C25.7656 66.6444 21.2054 62.0818 15.6002 62.0818C9.99227 62.0818 5.42985 66.6444 5.42985 72.2525C5.42985 74.1663 5.96237 75.9577 6.88602 77.4879C3.07118 79.2428 0.449219 83.1239 0.449219 87.4737V93.4848C0.449219 94.5096 1.27991 95.3403 2.30469 95.3403H39.6145C40.6392 95.3403 41.4699 94.5096 41.4699 93.4848C41.4699 92.4601 40.6392 91.6294 39.6145 91.6294H30.7462V87.4733V84.8699C30.7462 79.6362 34.4614 75.066 39.5087 73.9223C41.841 75.7369 44.768 76.8218 47.9453 76.8218C51.123 76.8218 54.0504 75.7367 56.3829 73.9215C61.4294 75.0641 65.1444 79.6352 65.1444 84.8699V87.4733V91.6294H56.2762C55.2514 91.6294 54.4207 92.4601 54.4207 93.4848C54.4207 94.5096 55.2514 95.3403 56.2762 95.3403H93.5911C94.6159 95.3403 95.4466 94.5096 95.4466 93.4848V87.4733C95.447 83.123 92.8234 79.2417 89.0061 77.4872ZM15.6006 65.7923C19.1596 65.7923 22.055 68.6902 22.055 72.2521C22.055 75.8113 19.1596 78.7068 15.6006 78.7068C12.0388 78.7068 9.14116 75.8113 9.14116 72.2521C9.14116 68.6904 12.0388 65.7923 15.6006 65.7923ZM4.16053 91.6294V87.4733C4.16053 84.1689 6.44647 81.2736 9.5887 80.445C11.274 81.6839 13.3529 82.4177 15.6006 82.4177C17.847 82.4177 19.9244 81.6839 21.6088 80.4453C24.7503 81.2746 27.0355 84.1695 27.0355 87.4733V91.6294H4.16053ZM37.8887 63.0535C37.8887 57.5079 42.4003 52.9961 47.9457 52.9961C53.4911 52.9961 58.0027 57.5077 58.0027 63.0535C58.0027 68.5991 53.4911 73.1107 47.9457 73.1107C42.4003 73.1107 37.8887 68.5989 37.8887 63.0535ZM80.296 65.7923C83.8549 65.7923 86.7502 68.6902 86.7502 72.2521C86.7502 75.8113 83.8549 78.7068 80.296 78.7068C76.7342 78.7068 73.8363 75.8113 73.8363 72.2521C73.8363 68.6904 76.7342 65.7923 80.296 65.7923ZM68.8557 87.4733C68.8557 84.1689 71.1416 81.2736 74.2839 80.445C75.9692 81.6839 78.0481 82.4177 80.2958 82.4177C82.5422 82.4177 84.6198 81.6839 86.3042 80.4452C89.4484 81.2738 91.7359 84.1689 91.7359 87.4731V91.6294H68.8557V87.4733Z" fill="#10417A"/>
<path id="Vector_3" d="M83.9152 10.6953H35.5977C34.5729 10.6953 33.7422 11.526 33.7422 12.5508C33.7422 13.5756 34.5729 14.4063 35.5977 14.4063H83.9154C84.9401 14.4063 85.7708 13.5756 85.7708 12.5508C85.7708 11.526 84.94 10.6953 83.9152 10.6953Z" fill="#10417A"/>
<path id="Vector_4" d="M11.9766 14.4063H25.772C26.7968 14.4063 27.6274 13.5756 27.6274 12.5508C27.6274 11.526 26.7968 10.6953 25.772 10.6953H11.9766C10.9518 10.6953 10.1211 11.526 10.1211 12.5508C10.1211 13.5756 10.9518 14.4063 11.9766 14.4063Z" fill="#10417A"/>
<path id="Vector_5" d="M83.915 21.0518H70.125C69.1002 21.0518 68.2695 21.8825 68.2695 22.9072C68.2695 23.932 69.1002 24.7627 70.125 24.7627H83.915C84.9398 24.7627 85.7705 23.932 85.7705 22.9072C85.7705 21.8825 84.9398 21.0518 83.915 21.0518Z" fill="#10417A"/>
<path id="Vector_6" d="M60.2943 21.0518H11.9766C10.9518 21.0518 10.1211 21.8825 10.1211 22.9072C10.1211 23.932 10.9518 24.7627 11.9766 24.7627H60.2943C61.319 24.7627 62.1497 23.932 62.1497 22.9072C62.1497 21.8825 61.319 21.0518 60.2943 21.0518Z" fill="#10417A"/>
<path id="Vector_7" d="M47.9453 91.6289C46.9205 91.6289 46.0898 92.4596 46.0898 93.4844C46.0898 94.5092 46.9205 95.3398 47.9453 95.3398H47.9559C48.9807 95.3398 49.8062 94.5092 49.8062 93.4844C49.8062 92.4596 48.9701 91.6289 47.9453 91.6289Z" fill="#10417A"/>
</g>
</g>
</g>
<defs>
<clipPath id="clip0_28_5063">
<rect width="95" height="95" fill="white" transform="translate(0.449219 0.339844)"/>
</clipPath>
</defs>
</svg>
