<svg width="96" height="96" viewBox="0 0 96 96" fill="none" xmlns="http://www.w3.org/2000/svg">
<g id="SVG" clip-path="url(#clip0_28_5038)">
<g id="Group">
<g id="Group_2">
<g id="Group_3">
<path id="Vector" d="M87.4489 17.0884C81.4183 8.4946 72.3959 2.75871 62.0435 0.937851C55.188 -0.268075 48.1309 0.357247 41.6348 2.74702C35.996 4.82116 30.8848 8.17359 26.7382 12.5013C23.8721 8.85625 18.5994 8.04055 14.7519 10.7298L10.7268 13.5426C5.05736 17.505 2.35178 20.8225 1.6797 24.6359C1.07089 28.0902 2.23135 31.7571 5.33217 36.1756L41.5695 87.8155C45.348 93.2002 49.0853 95.3402 52.9862 95.3398C56.6912 95.3394 60.544 93.4084 64.7164 90.4922L68.7413 87.6791C70.6715 86.3302 71.9596 84.3115 72.3678 81.9945C72.7634 79.7507 72.2879 77.4879 71.0283 75.598C76.526 73.1834 81.4337 69.5274 85.314 64.9391C89.7716 59.6684 92.7654 53.2725 93.9715 46.4424C95.7965 36.1082 93.48 25.6835 87.4489 17.0884ZM68.713 81.3502C68.4769 82.6896 67.7319 83.8569 66.6152 84.6373L62.5904 87.4504C53.9811 93.4674 49.7796 93.0549 44.607 85.6837L8.36972 34.0439C5.87232 30.4848 4.90781 27.7002 5.3344 25.28C5.81276 22.566 8.13146 19.8844 12.8527 16.5846L16.8776 13.7718C19.1839 12.1599 22.3743 12.7206 23.9894 15.0219L32.9349 27.7696C33.3128 28.308 33.434 28.9564 33.2763 29.5945C33.118 30.2341 32.7074 30.7525 32.1195 31.0543L23.5268 35.4642C23.0501 35.7087 22.7024 36.1476 22.5733 36.6675C22.4441 37.1874 22.546 37.738 22.8527 38.1772L29.5295 47.7394C30.1163 48.5798 31.273 48.7852 32.1132 48.1987C32.9534 47.6119 33.159 46.4552 32.5723 45.615L27.1121 37.7953L33.8138 34.3559C35.3482 33.5685 36.4654 32.1576 36.879 30.4852C37.2923 28.8142 36.9618 27.0476 35.9728 25.6379L34.0061 22.8351C40.2151 15.0375 50.0607 11.2837 59.9132 13.0171C67.0233 14.2678 73.2262 18.2164 77.3795 24.1351C81.5319 30.0528 83.1288 37.2186 81.8761 44.3122C80.1389 54.1489 73.239 62.0951 63.7707 65.2505L61.9602 62.6703C60.9716 61.2616 59.4224 60.3485 57.7097 60.1655C55.9959 59.9824 54.2879 60.5476 53.0229 61.7162L47.48 66.8374L42.1559 59.3636C41.5613 58.5287 40.4025 58.3341 39.5679 58.9288C38.7333 59.5233 38.5386 60.6819 39.1333 61.5166L45.6803 70.7067C45.9896 71.1409 46.4706 71.4211 47.0009 71.4761C47.5318 71.5304 48.0593 71.3549 48.4508 70.9931L55.5415 64.4418C56.0269 63.9933 56.6567 63.7846 57.3152 63.8555C57.9728 63.9258 58.5436 64.2618 58.9227 64.802L67.8683 77.55C68.6486 78.663 68.9488 80.0125 68.713 81.3502ZM90.3168 45.797C88.2108 57.7227 80.0315 67.8544 68.8519 72.492L65.9825 68.4031C70.5724 66.685 74.7008 63.8952 78.0174 60.2535C81.9223 55.9662 84.5201 50.6769 85.5302 44.9576C86.9557 36.8859 85.1398 28.7337 80.4169 22.0032C75.6948 15.2737 68.6413 10.7844 60.5557 9.36207C54.8364 8.35618 48.978 8.98039 43.6143 11.1681C39.0396 13.0338 34.9899 15.958 31.7957 19.6855L28.9246 15.594C37.1154 6.69508 49.4454 2.48965 61.4006 4.59274C70.7776 6.24214 78.9495 11.437 84.4109 19.2201C89.8718 27.0023 91.9692 36.4408 90.3168 45.797Z" fill="#10417A"/>
<path id="Vector_2" d="M47.7051 43.7635C47.9912 42.1613 47.2735 39.9021 44.309 38.809C43.1239 38.3719 42.0139 37.898 41.5726 37.7061C41.5522 37.676 41.5379 37.6309 41.548 37.5617C41.5728 37.389 41.7374 37.2448 41.9998 37.1657C43.2046 36.8024 44.3753 37.7263 44.3868 37.7356C44.8711 37.872 45.3914 37.7425 45.7554 37.3951L46.1247 37.0425C46.7903 36.407 46.6906 35.3117 45.9143 34.8175C44.5619 33.9569 42.6479 33.0948 40.9295 33.6124C39.2766 34.1104 38.1061 35.4215 37.8745 37.0344C37.6554 38.5608 38.3178 40.0294 39.603 40.8672C39.6848 40.9207 39.7709 40.9676 39.8603 41.0073C39.9218 41.0348 41.3817 41.6846 43.0248 42.2908C43.6627 42.5263 44.0947 42.8712 44.0519 43.1115C44.0055 43.3705 43.5781 43.8547 42.7565 43.8547C41.8655 43.8547 41.0136 43.5015 40.4775 42.9098C39.7735 42.1327 38.5614 42.0904 37.8048 42.8296C37.0722 43.545 37.1199 44.7635 37.8246 45.5065C39.0678 46.8171 40.8568 47.566 42.7567 47.566C45.2305 47.5656 47.3117 45.9666 47.7051 43.7635Z" fill="#10417A"/>
<path id="Vector_3" d="M69.7234 47.5655C72.1976 47.5655 74.2788 45.9666 74.6721 43.7635C74.9583 42.1612 74.2404 39.9021 71.2761 38.8089C70.091 38.3718 68.981 37.8979 68.5397 37.706C68.5193 37.6759 68.505 37.6309 68.515 37.5615C68.5397 37.3889 68.7045 37.2447 68.9669 37.1657C70.1715 36.8023 71.3422 37.7262 71.3539 37.7355C72.0417 37.9806 72.8092 37.7613 73.2638 37.19L73.3514 37.0799C74.014 36.247 73.7653 35.0125 72.8257 34.5126C71.4307 33.7704 69.5334 33.1193 67.8966 33.6123C66.2437 34.1103 65.0732 35.4214 64.8416 37.0341C64.6225 38.5607 65.2849 40.0293 66.57 40.8671C66.6521 40.9206 66.738 40.9675 66.8274 41.0072C66.8888 41.0347 68.3488 41.6845 69.9919 42.2907C70.6298 42.5262 71.0618 42.8711 71.0189 43.1114C70.9727 43.3705 70.5452 43.8546 69.7236 43.8546C68.8325 43.8546 67.9805 43.5015 67.4444 42.9097C66.7404 42.1326 65.5285 42.0903 64.7716 42.8294C64.0391 43.5447 64.0866 44.7632 64.7913 45.5062C66.0345 46.8166 67.8235 47.5655 69.7234 47.5655Z" fill="#10417A"/>
<path id="Vector_4" d="M56.1746 47.5662C60.0887 47.5662 63.273 44.3819 63.273 40.4678C63.273 36.5535 60.0887 33.3691 56.1746 33.3691C52.2605 33.3691 49.0762 36.5535 49.0762 40.4678C49.076 44.3819 52.2605 47.5662 56.1746 47.5662ZM56.1746 37.0803C58.0424 37.0803 59.5619 38.5998 59.5619 40.4678C59.5619 42.3354 58.0424 43.8551 56.1746 43.8551C54.3068 43.8551 52.7873 42.3356 52.7873 40.4678C52.7871 38.6 54.3068 37.0803 56.1746 37.0803Z" fill="#10417A"/>
<path id="Vector_5" d="M37.5822 52.8777C37.2981 52.1843 36.5947 51.7258 35.8473 51.7325C35.0679 51.7394 34.3628 52.2548 34.1123 52.9907C33.8626 53.7242 34.1084 54.557 34.7144 55.0397C35.3201 55.5219 36.1894 55.572 36.8468 55.163C37.6061 54.6904 37.927 53.7046 37.5822 52.8777Z" fill="#10417A"/>
</g>
</g>
</g>
</g>
<defs>
<clipPath id="clip0_28_5038">
<rect width="95" height="95" fill="white" transform="translate(0.550781 0.339844)"/>
</clipPath>
</defs>
</svg>
