<svg width="96" height="96" viewBox="0 0 96 96" fill="none" xmlns="http://www.w3.org/2000/svg">
<g id="SVG">
<path id="Vector" d="M30.4342 29.3226C30.4342 28.7084 30.9333 28.2093 31.5475 28.2093H39.5037C40.1179 28.2093 40.617 28.7084 40.617 29.3226C40.617 29.9367 40.1179 30.4358 39.5037 30.4358H31.5475C30.9333 30.4358 30.4342 29.9367 30.4342 29.3226ZM49.3637 38.4366H31.5475C30.9333 38.4366 30.4342 38.9357 30.4342 39.5499C30.4342 40.1641 30.9333 40.6632 31.5475 40.6632H49.3637C49.9778 40.6632 50.477 40.1641 50.477 39.5499C50.477 38.9357 49.9797 38.4366 49.3637 38.4366ZM49.3637 46.7269H31.5475C30.9333 46.7269 30.4342 47.226 30.4342 47.8401C30.4342 48.4543 30.9333 48.9534 31.5475 48.9534H49.3637C49.9778 48.9534 50.477 48.4543 50.477 47.8401C50.477 47.226 49.9797 46.7269 49.3637 46.7269ZM49.3637 55.0171H31.5475C30.9333 55.0171 30.4342 55.5162 30.4342 56.1304C30.4342 56.7445 30.9333 57.2437 31.5475 57.2437H49.3637C49.9778 57.2437 50.477 56.7445 50.477 56.1304C50.477 55.5162 49.9797 55.0171 49.3637 55.0171ZM49.3637 63.3073H31.5475C30.9333 63.3073 30.4342 63.8064 30.4342 64.4206C30.4342 65.0348 30.9333 65.5339 31.5475 65.5339H49.3637C49.9778 65.5339 50.477 65.0348 50.477 64.4206C50.477 63.8064 49.9797 63.3073 49.3637 63.3073ZM72.4012 27.2556V17.2435H70.2006C67.885 17.2435 65.9998 19.1583 65.9998 21.5129V46.7269H72.4012V36.4958C72.4012 35.2656 73.4031 34.2637 74.6333 34.2637H84.7623C85.4266 34.2637 86.0259 34.5123 86.4953 34.9817L92.9264 41.4128C93.3958 41.8822 93.6444 42.4815 93.6444 43.1458V58.9655C93.6444 60.3163 92.5441 61.4166 91.1934 61.4166H74.8522C73.5015 61.4166 72.4012 60.3163 72.4012 58.9655V48.9534H65.9998V74.1674C65.9998 76.522 67.8831 78.4368 70.2006 78.4368H72.4012V68.2058C72.4012 66.9756 73.4031 65.9736 74.6333 65.9736H84.7623C85.4266 65.9736 86.0259 66.2223 86.4953 66.6917L92.9264 73.1228C93.3958 73.5922 93.6444 74.1915 93.6444 74.8558V90.6755C93.6444 92.0263 92.5441 93.1266 91.1934 93.1266H74.8522C73.5015 93.1266 72.4012 92.0263 72.4012 90.6755V80.6634H70.2006C66.6566 80.6634 63.7732 77.7484 63.7732 74.1674V48.9534H58.9898V71.4454C58.9898 73.0968 57.6446 74.442 55.9933 74.442H27.7475C26.0961 74.442 24.7509 73.0968 24.7509 71.4454V71.1968H23.2275C21.9881 71.1968 20.9713 70.2264 20.9138 68.9888L20.7653 65.8048C20.7635 65.7565 20.7468 65.7361 20.7004 65.7231C19.3329 65.3316 18.01 64.7843 16.7649 64.0903C16.7241 64.0681 16.6963 64.0699 16.661 64.1015L14.3027 66.2501C13.3861 67.0851 11.9815 67.0535 11.1039 66.1759L7.37627 62.4464C6.49863 61.5688 6.46709 60.1642 7.30205 59.2476L9.45068 56.8893C9.48223 56.854 9.48594 56.8262 9.46182 56.7854C8.76973 55.5385 8.22051 54.2155 7.829 52.8499C7.81602 52.8035 7.79375 52.7868 7.74736 52.785L4.56152 52.6365C3.32393 52.579 2.35352 51.5622 2.35352 50.3228V45.0495C2.35352 43.8101 3.32393 42.7933 4.56338 42.7357L7.74922 42.5873C7.79746 42.5854 7.81787 42.5688 7.83086 42.5224C8.22236 41.1549 8.77158 39.8319 9.46367 38.5869C9.48594 38.5461 9.48408 38.5183 9.45068 38.483L7.30205 36.1247C6.46709 35.2081 6.50049 33.8035 7.37627 32.9259L11.1058 29.1982C11.9834 28.3206 13.388 28.2891 14.3046 29.124L16.6629 31.2727C16.6981 31.3042 16.726 31.3079 16.7668 31.2856C18.0118 30.5936 19.3366 30.0443 20.7022 29.6528C20.7486 29.6398 20.7653 29.6176 20.7672 29.5712L20.9156 26.3854C20.9731 25.1478 21.9899 24.1773 23.2294 24.1773H24.7564C24.788 22.552 26.1184 21.2401 27.7493 21.2401H45.7325V21.242C46.022 21.242 46.3059 21.3533 46.5192 21.5648L58.6651 33.7107C58.8785 33.9241 58.988 34.208 58.988 34.4975H58.9898V46.7269H63.7732V21.5129C63.7732 17.93 66.6566 15.0169 70.2006 15.0169H72.4012V4.78584C72.4012 3.55566 73.4031 2.55371 74.6333 2.55371H84.7623C85.4266 2.55371 86.0259 2.80234 86.4953 3.27178L92.9264 9.70283C93.3958 10.1741 93.6444 10.7716 93.6444 11.4358V27.2556C93.6444 28.6063 92.5441 29.7066 91.1934 29.7066H74.8522C73.4996 29.7066 72.4012 28.6063 72.4012 27.2556ZM46.8439 32.8739C46.8439 33.156 47.074 33.3842 47.3542 33.3842H55.188L46.8439 25.0401V32.8739ZM24.7509 68.9702V57.0618C20.0677 56.5089 16.4217 52.5178 16.4217 47.688C16.4217 42.8582 20.0677 38.8671 24.7509 38.3142V26.4058H23.2275C23.1793 26.4058 23.1403 26.4429 23.1385 26.4911L22.99 29.677C22.9437 30.6863 22.285 31.5194 21.3127 31.7959C20.1104 32.1392 18.9433 32.6234 17.8467 33.2339C16.9635 33.7256 15.9077 33.6031 15.16 32.9222L12.8035 30.7698C12.7683 30.7383 12.7145 30.7383 12.6792 30.7735L8.95156 34.5012C8.91816 34.5346 8.91631 34.5902 8.94785 34.6255L11.0965 36.9838C11.7774 37.7315 11.8999 38.7854 11.4082 39.6687C10.7978 40.7652 10.3135 41.9323 9.97022 43.1347C9.6919 44.1069 8.86064 44.7656 7.85127 44.812L4.66543 44.9604C4.61719 44.9623 4.58008 45.0013 4.58008 45.0495V50.3228C4.58008 50.371 4.61719 50.41 4.66543 50.4118L7.85127 50.5603C8.86064 50.6066 9.6919 51.2653 9.97022 52.2376C10.3135 53.4399 10.7978 54.6052 11.4082 55.7036C11.8999 56.5868 11.7774 57.6426 11.0965 58.3885L8.94785 60.7468C8.91631 60.782 8.91631 60.8377 8.95156 60.8711L12.6792 64.5987C12.7126 64.6321 12.7683 64.634 12.8035 64.6024L15.1618 62.4538C15.9096 61.7729 16.9635 61.6504 17.8485 62.1421C18.9451 62.7525 20.1122 63.235 21.3146 63.5801C22.2868 63.8584 22.9455 64.6897 22.9919 65.699L23.1403 68.883C23.1422 68.9313 23.1812 68.9684 23.2294 68.9684H24.7509V68.9702ZM18.6482 47.6861C18.6482 51.2857 21.2979 54.2786 24.7509 54.8167V40.5574C21.2997 41.0937 18.6482 44.0865 18.6482 47.6861ZM56.7633 71.4454V35.6107H47.3561C45.8457 35.6107 44.6192 34.3824 44.6192 32.8739V23.4667H27.7493C27.3244 23.4667 26.9793 23.8118 26.9793 24.2367V71.4454C26.9793 71.8703 27.3244 72.2154 27.7493 72.2154H55.9933C56.4163 72.2154 56.7633 71.8685 56.7633 71.4454ZM85.8756 73.5569C85.8756 73.6571 85.9609 73.7425 86.0611 73.7425H90.3974L85.8756 69.2207V73.5569ZM74.6277 90.6755C74.6277 90.798 74.7298 90.9 74.8522 90.9H91.1934C91.3158 90.9 91.4179 90.798 91.4179 90.6755V75.969H86.0611C84.7308 75.969 83.649 74.8873 83.649 73.5569V68.2002H74.6333L74.6277 90.6755ZM85.8756 41.847C85.8756 41.9472 85.9609 42.0325 86.0611 42.0325H90.3974L85.8756 37.5107V41.847ZM74.6277 58.9655C74.6277 59.088 74.7298 59.19 74.8522 59.19H91.1934C91.3158 59.19 91.4179 59.088 91.4179 58.9655V44.2591H86.0611C84.7308 44.2591 83.649 43.1773 83.649 41.847V36.4902H74.6333L74.6277 58.9655ZM85.8756 10.137C85.8756 10.2372 85.9609 10.3226 86.0611 10.3226H90.3974L85.8756 5.80078V10.137ZM74.6277 27.2556C74.6277 27.378 74.7298 27.4801 74.8522 27.4801H91.1934C91.3158 27.4801 91.4179 27.378 91.4179 27.2556V12.5491H86.0611C84.7308 12.5491 83.649 11.4674 83.649 10.137V4.78027H74.6333L74.6277 27.2556ZM76.8896 9.69541H81.6173C82.2314 9.69541 82.7306 9.19629 82.7306 8.58213C82.7306 7.96797 82.2314 7.46885 81.6173 7.46885H76.8896C76.2754 7.46885 75.7763 7.96797 75.7763 8.58213C75.7763 9.19629 76.2754 9.69541 76.8896 9.69541ZM76.8896 15.5605H87.475C88.0892 15.5605 88.5883 15.0614 88.5883 14.4473C88.5883 13.8331 88.0892 13.334 87.475 13.334H76.8896C76.2754 13.334 75.7763 13.8331 75.7763 14.4473C75.7763 15.0614 76.2754 15.5605 76.8896 15.5605ZM76.8896 20.4868H87.475C88.0892 20.4868 88.5883 19.9877 88.5883 19.3735C88.5883 18.7594 88.0892 18.2603 87.475 18.2603H76.8896C76.2754 18.2603 75.7763 18.7594 75.7763 19.3735C75.7763 19.9877 76.2754 20.4868 76.8896 20.4868ZM76.8896 25.4112H87.475C88.0892 25.4112 88.5883 24.9121 88.5883 24.2979C88.5883 23.6838 88.0892 23.1847 87.475 23.1847H76.8896C76.2754 23.1847 75.7763 23.6838 75.7763 24.2979C75.7763 24.9121 76.2754 25.4112 76.8896 25.4112ZM76.8896 41.4221H81.6173C82.2314 41.4221 82.7306 40.923 82.7306 40.3088C82.7306 39.6946 82.2314 39.1955 81.6173 39.1955H76.8896C76.2754 39.1955 75.7763 39.6946 75.7763 40.3088C75.7763 40.923 76.2754 41.4221 76.8896 41.4221ZM76.8896 47.5377H87.475C88.0892 47.5377 88.5883 47.0386 88.5883 46.4244C88.5883 45.8103 88.0892 45.3111 87.475 45.3111H76.8896C76.2754 45.3111 75.7763 45.8103 75.7763 46.4244C75.7763 47.0386 76.2754 47.5377 76.8896 47.5377ZM76.8896 52.2543H87.475C88.0892 52.2543 88.5883 51.7552 88.5883 51.141C88.5883 50.5269 88.0892 50.0277 87.475 50.0277H76.8896C76.2754 50.0277 75.7763 50.5269 75.7763 51.141C75.7763 51.7552 76.2754 52.2543 76.8896 52.2543ZM76.8896 56.8577H87.475C88.0892 56.8577 88.5883 56.3586 88.5883 55.7444C88.5883 55.1303 88.0892 54.6312 87.475 54.6312H76.8896C76.2754 54.6312 75.7763 55.1303 75.7763 55.7444C75.7763 56.3586 76.2754 56.8577 76.8896 56.8577ZM76.8896 73.1098H81.6173C82.2314 73.1098 82.7306 72.6106 82.7306 71.9965C82.7306 71.3823 82.2314 70.8832 81.6173 70.8832H76.8896C76.2754 70.8832 75.7763 71.3823 75.7763 71.9965C75.7763 72.6106 76.2754 73.1098 76.8896 73.1098ZM76.8896 79.0565H87.475C88.0892 79.0565 88.5883 78.5574 88.5883 77.9433C88.5883 77.3291 88.0892 76.83 87.475 76.83H76.8896C76.2754 76.83 75.7763 77.3291 75.7763 77.9433C75.7763 78.5574 76.2754 79.0565 76.8896 79.0565ZM76.8896 84.0478H87.475C88.0892 84.0478 88.5883 83.5486 88.5883 82.9345C88.5883 82.3203 88.0892 81.8212 87.475 81.8212H76.8896C76.2754 81.8212 75.7763 82.3203 75.7763 82.9345C75.7763 83.5486 76.2754 84.0478 76.8896 84.0478ZM76.8896 89.1002H87.475C88.0892 89.1002 88.5883 88.6011 88.5883 87.9869C88.5883 87.3728 88.0892 86.8736 87.475 86.8736H76.8896C76.2754 86.8736 75.7763 87.3728 75.7763 87.9869C75.7763 88.6011 76.2754 89.1002 76.8896 89.1002Z" fill="#10417A"/>
</g>
</svg>
