<svg width="96" height="96" viewBox="0 0 96 96" fill="none" xmlns="http://www.w3.org/2000/svg">
<g id="SVG" clip-path="url(#clip0_28_5015)">
<g id="XMLID_1220_">
<g id="XMLID_339_">
<path id="XMLID_349_" d="M89.6044 84.1426L75.6513 59.9754C76.1525 59.3915 76.8336 58.9595 77.6284 58.7721C79.8264 58.2543 81.6489 56.7904 82.6286 54.7559C83.6084 52.7215 83.6164 50.3838 82.651 48.3427C81.912 46.7804 82.3343 44.93 83.678 43.8431C85.4336 42.4228 86.4405 40.3132 86.4405 38.0552C86.4405 35.7971 85.4336 33.6873 83.678 32.2672C82.3343 31.1803 81.912 29.3299 82.651 27.7677C83.6166 25.7263 83.6084 23.3887 82.6286 21.3542C81.6489 19.3198 79.8264 17.8559 77.6283 17.338C75.9462 16.9417 74.7628 15.4579 74.7507 13.7296C74.7351 11.4716 73.7133 9.36903 71.9479 7.96115C70.1825 6.55326 67.905 6.02503 65.7004 6.51226C64.0125 6.88482 62.3028 6.06158 61.542 4.50971C60.5481 2.48212 58.7155 1.031 56.5139 0.528559C54.3121 0.0259284 52.0314 0.538393 50.2561 1.93385C48.8976 3.00201 46.9997 3.00201 45.641 1.93385C43.8657 0.538393 41.5851 0.0262995 39.3834 0.528559C37.1818 1.031 35.3492 2.48212 34.3553 4.50971C33.5945 6.06158 31.884 6.88538 30.1971 6.51226C27.9921 6.0254 25.7148 6.55326 23.9496 7.96115C22.1841 9.36903 21.1625 11.4716 21.1468 13.7296C21.1347 15.4578 19.9513 16.9417 18.269 17.338C16.0711 17.8559 14.2485 19.3198 13.2689 21.3542C12.289 23.3887 12.2811 25.7263 13.2464 27.7675C13.9854 29.3297 13.5632 31.1801 12.2195 32.267C10.4639 33.6873 9.45695 35.7969 9.45695 38.055C9.45695 40.313 10.4639 42.4228 12.2195 43.8429C13.5632 44.9298 13.9854 46.7802 13.2464 48.3425C12.2809 50.3838 12.289 52.7215 13.2689 54.7559C14.2485 56.7904 16.0711 58.2543 18.2692 58.7721C19.0641 58.9593 19.7452 59.3915 20.2463 59.9754L6.29347 84.1426C5.91775 84.7935 5.97174 85.6068 6.43003 86.2022C6.8885 86.7976 7.66072 87.0575 8.386 86.861L18.1041 84.2245L20.68 93.9589C20.8722 94.6855 21.4837 95.2241 22.2287 95.3234C22.3109 95.3343 22.3929 95.3397 22.4743 95.3397C23.1306 95.3397 23.7462 94.9909 24.0806 94.412L35.9864 73.7908C36.9293 74.6635 38.0921 75.287 39.3838 75.5818C41.5851 76.0839 43.8661 75.572 45.6415 74.1765C47.0001 73.1083 48.898 73.1083 50.2567 74.1765C51.5852 75.2207 53.1964 75.7705 54.846 75.7705C55.4008 75.7705 55.9602 75.7083 56.5142 75.5818C57.806 75.287 58.969 74.6635 59.9117 73.7908L71.8175 94.412C72.1518 94.9911 72.7675 95.3397 73.4237 95.3397C73.505 95.3397 73.5872 95.3343 73.6694 95.3234C74.4143 95.2241 75.0259 94.6853 75.2181 93.9589L77.794 84.2245L87.512 86.861C88.2373 87.0581 89.0097 86.7976 89.468 86.2022C89.9263 85.6068 89.9803 84.7935 89.6044 84.1426ZM23.1165 88.6602L21.2139 81.4705C21.0874 80.9929 20.7759 80.5853 20.348 80.3383C19.92 80.0912 19.4114 80.0251 18.9346 80.1544L11.7567 82.1017L21.6375 64.9878C22.1051 66.2131 22.8929 67.3061 23.9499 68.1492C25.7154 69.5571 27.9929 70.0853 30.1975 69.5981C31.4426 69.3231 32.6989 69.7009 33.5782 70.5404L23.1165 88.6602ZM55.6884 71.9641C54.5837 72.2159 53.4402 71.9591 52.55 71.2594C51.1953 70.1944 49.5724 69.6621 47.9489 69.6621C46.3258 69.6621 44.7021 70.1946 43.3479 71.2594C42.4577 71.9593 41.3142 72.2163 40.2095 71.9641C39.1053 71.7121 38.1861 70.9843 37.6876 69.9673C36.171 66.8732 32.7613 65.2314 29.3969 65.9746C28.2909 66.219 27.1488 65.9541 26.2634 65.2479C25.378 64.5417 24.8656 63.4873 24.8576 62.3547C24.8337 58.9091 22.4743 55.9506 19.1203 55.1604C18.0178 54.9006 17.1038 54.1664 16.6123 53.146C16.121 52.1255 16.1169 50.9532 16.6012 49.9292C18.0744 46.8144 17.2324 43.1253 14.5534 40.9581C13.6728 40.2459 13.168 39.1877 13.168 38.0552C13.168 36.9226 13.673 35.8645 14.5536 35.1522C17.2324 32.9851 18.0746 29.296 16.6012 26.1809C16.1169 25.1571 16.121 23.9847 16.6125 22.9644C17.1038 21.9439 18.018 21.2097 19.1203 20.95C22.4743 20.1597 24.8337 17.2013 24.8576 13.7556C24.8656 12.6231 25.3779 11.5684 26.2634 10.8625C27.1488 10.1563 28.2907 9.89115 29.397 10.1357C32.7611 10.8784 36.171 9.23712 37.6876 6.14303C38.1861 5.12608 39.1053 4.3982 40.2095 4.14624C41.314 3.89446 42.4577 4.15106 43.3479 4.85092C46.057 6.98075 49.8409 6.98075 52.55 4.85092C53.4404 4.15106 54.5839 3.89446 55.6884 4.14624C56.7926 4.3982 57.7117 5.12608 58.2103 6.14303C59.7269 9.23712 63.1364 10.8784 66.501 10.1357C67.6066 9.89096 68.749 10.1563 69.6344 10.8625C70.5198 11.5686 71.0323 12.6231 71.0403 13.7556C71.0642 17.2013 73.4235 20.1597 76.7776 20.95C77.88 21.2097 78.794 21.9439 79.2855 22.9644C79.7768 23.9848 79.7809 25.1571 79.2967 26.1811C77.8235 29.296 78.6654 32.9851 81.3445 35.1522C82.225 35.8645 82.7299 36.9226 82.7299 38.0552C82.7299 39.1877 82.2249 40.2459 81.3443 40.9581C78.6654 43.1253 77.8233 46.8144 79.2967 49.9294C79.7809 50.9532 79.7768 52.1257 79.2853 53.146C78.794 54.1664 77.8799 54.9006 76.7776 55.1604C73.4235 55.9506 71.0642 58.9091 71.0403 62.3547C71.0323 63.4873 70.52 64.5419 69.6344 65.2479C68.749 65.9541 67.607 66.2188 66.5008 65.9746C63.1364 65.2312 59.7269 66.8732 58.2103 69.9673C57.7117 70.9843 56.7926 71.712 55.6884 71.9641ZM76.9633 80.1544C76.4863 80.0251 75.9777 80.0914 75.5498 80.3383C75.122 80.5855 74.8103 80.9929 74.6839 81.4705L72.7814 88.6602L62.3198 70.5404C63.1993 69.7007 64.4556 69.3227 65.7004 69.5981C67.9055 70.0851 70.1825 69.5571 71.9479 68.1492C73.005 67.3063 73.7928 66.2131 74.2603 64.9878L84.1411 82.1017L76.9633 80.1544Z" fill="#F8B232"/>
<path id="XMLID_357_" d="M56.7767 52.0863C57.1595 52.0863 57.5422 51.9681 57.8673 51.7319C58.5159 51.2606 58.7885 50.4259 58.543 49.6627L55.6183 40.5697L63.3311 34.9027C63.9773 34.4279 64.2454 33.5915 63.9957 32.8295C63.7458 32.0675 63.0346 31.5522 62.2327 31.5522H52.6885L49.7122 22.4839C49.4621 21.7221 48.7511 21.207 47.9494 21.207C47.1477 21.207 46.4365 21.7221 46.1866 22.4839L43.2103 31.5522H33.6661C32.8641 31.5522 32.1528 32.0675 31.903 32.8295C31.6531 33.5915 31.9212 34.4279 32.5677 34.9027L40.2804 40.5697L37.3557 49.6627C37.1103 50.426 37.3828 51.2606 38.0315 51.7319C38.6803 52.2031 39.5583 52.2043 40.2082 51.735L47.9497 46.1454L55.6913 51.735C56.0148 51.9692 56.3956 52.0863 56.7767 52.0863ZM49.0352 42.3528C48.7108 42.1186 48.3299 42.0015 47.949 42.0015C47.5681 42.0015 47.1872 42.1186 46.8629 42.3528L42.6188 45.4172L44.2217 40.4337C44.466 39.6739 44.1972 38.8429 43.5539 38.3703L39.3245 35.2627H44.5538C45.3555 35.2627 46.0667 34.7476 46.3166 33.9858L47.949 29.012L49.5814 33.9858C49.8315 34.7476 50.5425 35.2627 51.3442 35.2627H56.5735L52.3441 38.3703C51.7008 38.8429 51.432 39.6737 51.6763 40.4337L53.2792 45.4172L49.0352 42.3528Z" fill="#F8B232"/>
<path id="XMLID_358_" d="M73.9242 38.0549C73.9242 23.7318 62.2714 12.0791 47.9484 12.0791C33.6254 12.0791 21.9727 23.7318 21.9727 38.0549C21.9727 48.9511 28.852 58.7672 39.091 62.4808C40.0542 62.83 41.1185 62.3325 41.468 61.3692C41.8174 60.4059 41.3198 59.3418 40.3564 58.9922C31.5802 55.8093 25.6837 47.3952 25.6837 38.0549C25.6837 25.778 35.6717 15.7899 47.9486 15.7899C60.2255 15.7899 70.2135 25.778 70.2135 38.0549C70.2135 47.3957 64.3165 55.81 55.5396 58.9928C54.5763 59.3422 54.0785 60.4062 54.4279 61.3696C54.7015 62.124 55.4135 62.593 56.1721 62.593C56.3822 62.593 56.5957 62.557 56.8047 62.4813C67.0443 58.7681 73.9242 48.9519 73.9242 38.0549Z" fill="#F8B232"/>
<path id="XMLID_676_" d="M47.9492 60.3193C47.4612 60.3193 46.9825 60.5179 46.6374 60.863C46.2923 61.2081 46.0938 61.6868 46.0938 62.1747C46.0938 62.6627 46.2923 63.1414 46.6374 63.4865C46.9825 63.8316 47.4612 64.0302 47.9492 64.0302C48.4371 64.0302 48.9158 63.8316 49.2609 63.4865C49.606 63.1414 49.8046 62.6627 49.8046 62.1747C49.8046 61.6868 49.606 61.2081 49.2609 60.863C48.9158 60.5179 48.4371 60.3193 47.9492 60.3193Z" fill="#F8B232"/>
</g>
</g>
</g>
<defs>
<clipPath id="clip0_28_5015">
<rect width="95" height="95" fill="white" transform="translate(0.449219 0.339844)"/>
</clipPath>
</defs>
</svg>
