<svg width="96" height="96" viewBox="0 0 96 96" fill="none" xmlns="http://www.w3.org/2000/svg">
<g id="SVG" clip-path="url(#clip0_28_4992)">
<path id="Vector" d="M72.5734 47.0844C71.9704 46.097 71.1676 45.2464 70.2165 44.5874C69.2655 43.9284 68.1872 43.4754 67.0508 43.2575V16.173C67.0483 14.0742 66.2134 12.062 64.7293 10.5779C63.2451 9.09377 61.233 8.25888 59.1341 8.25637H46.0273C45.7516 7.77656 45.3545 7.37769 44.8759 7.09978C44.3974 6.82188 43.8542 6.67471 43.3008 6.67304H41.1775C40.5241 4.8185 39.3113 3.21241 37.7064 2.07631C36.1016 0.940208 34.1837 0.330078 32.2174 0.330078C30.2512 0.330078 28.3333 0.940208 26.7285 2.07631C25.1236 3.21241 23.9108 4.8185 23.2574 6.67304H21.1341C20.5807 6.67471 20.0375 6.82188 19.5589 7.09978C19.0804 7.37769 18.6833 7.77656 18.4076 8.25637H8.46745C6.36859 8.25888 4.35641 9.09377 2.8723 10.5779C1.38818 12.062 0.553295 14.0742 0.550781 16.173L0.550781 82.673C0.553295 84.7719 1.38818 86.7841 2.8723 88.2682C4.35641 89.7523 6.36859 90.5872 8.46745 90.5897H36.2692C36.342 90.7385 36.4006 90.8921 36.4829 91.0378C37.1973 92.3462 38.2523 93.4369 39.5363 94.1942C40.8202 94.9516 42.2851 95.3474 43.7758 95.3397H87.1749C88.6641 95.3454 90.1271 94.9484 91.4092 94.1909C92.6913 93.4333 93.7448 92.3433 94.4583 91.0362C95.2119 89.7095 95.5929 88.2038 95.5608 86.6783C95.5288 85.1529 95.0849 83.6645 94.2762 82.3706L72.5734 47.0844ZM63.8841 16.173V43.2575C62.7462 43.4739 61.667 43.9288 60.7174 44.5923V17.7564C60.7174 16.9165 60.3838 16.1111 59.79 15.5172C59.1961 14.9233 58.3906 14.5897 57.5508 14.5897H46.4674V11.423H59.1341C60.3939 11.423 61.6021 11.9235 62.4929 12.8143C63.3837 13.7051 63.8841 14.9133 63.8841 16.173ZM21.1341 9.8397H24.4591C24.8244 9.84014 25.1786 9.71427 25.4617 9.48342C25.7448 9.25257 25.9393 8.93094 26.0124 8.57304C26.3046 7.14304 27.0818 5.85786 28.2125 4.93489C29.3431 4.01191 30.7579 3.50779 32.2174 3.50779C33.677 3.50779 35.0918 4.01191 36.2224 4.93489C37.3531 5.85786 38.1303 7.14304 38.4225 8.57304C38.4956 8.93094 38.6901 9.25257 38.9732 9.48342C39.2563 9.71427 39.6105 9.84014 39.9758 9.8397H43.3008V16.173H21.1341V9.8397ZM43.3008 19.3397C43.8542 19.338 44.3974 19.1909 44.8759 18.913C45.3545 18.6351 45.7516 18.2362 46.0273 17.7564H57.5508V48.4049L37.4424 81.0897H10.0508V17.7564H18.4076C18.6833 18.2362 19.0804 18.6351 19.5589 18.913C20.0375 19.1909 20.5807 19.338 21.1341 19.3397H43.3008ZM8.46745 87.423C7.20767 87.423 5.99949 86.9226 5.10869 86.0318C4.21789 85.141 3.71745 83.9328 3.71745 82.673V16.173C3.71745 14.9133 4.21789 13.7051 5.10869 12.8143C5.99949 11.9235 7.20767 11.423 8.46745 11.423H17.9674V14.5897H10.0508C9.21093 14.5897 8.40548 14.9233 7.81161 15.5172C7.21774 16.1111 6.88411 16.9165 6.88411 17.7564V81.0897C6.88411 81.9296 7.21774 82.735 7.81161 83.3289C8.40548 83.9227 9.21093 84.2564 10.0508 84.2564H35.8005C35.4699 85.2774 35.3382 86.3524 35.4126 87.423H8.46745ZM91.689 89.4924C91.2468 90.3053 90.5931 90.9834 89.7971 91.4553C89.0011 91.9272 88.0924 92.1751 87.167 92.173H43.7758C42.8508 92.1754 41.9424 91.9276 41.1467 91.456C40.3509 90.9844 39.6974 90.3065 39.2554 89.494C38.7793 88.6573 38.5384 87.7074 38.5582 86.7449C38.578 85.7824 38.8577 84.8432 39.3678 84.0268L61.0594 48.7454C61.5182 47.9862 62.1651 47.3584 62.9376 46.9226C63.7101 46.4868 64.5821 46.2579 65.469 46.2579C66.356 46.2579 67.2279 46.4868 68.0004 46.9226C68.773 47.3584 69.4199 47.9862 69.8786 48.7454L91.5703 84.0299C92.0807 84.8452 92.3612 85.7832 92.3821 86.7448C92.403 87.7065 92.1636 88.6558 91.689 89.4924Z" fill="#F8B232"/>
<path id="Vector_2" d="M65.4668 52.5898C64.207 52.5898 62.9988 53.0903 62.108 53.9811C61.2172 54.8719 60.7168 56.0801 60.7168 57.3398V71.5898C60.7168 72.8496 61.2172 74.0578 62.108 74.9486C62.9988 75.8394 64.207 76.3398 65.4668 76.3398C66.7266 76.3398 67.9348 75.8394 68.8256 74.9486C69.7163 74.0578 70.2168 72.8496 70.2168 71.5898V57.3398C70.2168 56.0801 69.7163 54.8719 68.8256 53.9811C67.9348 53.0903 66.7266 52.5898 65.4668 52.5898ZM67.0501 71.5898C67.0501 72.0098 66.8833 72.4125 66.5864 72.7094C66.2895 73.0064 65.8867 73.1732 65.4668 73.1732C65.0469 73.1732 64.6441 73.0064 64.3472 72.7094C64.0503 72.4125 63.8835 72.0098 63.8835 71.5898V57.3398C63.8835 56.9199 64.0503 56.5172 64.3472 56.2203C64.6441 55.9233 65.0469 55.7565 65.4668 55.7565C65.8867 55.7565 66.2895 55.9233 66.5864 56.2203C66.8833 56.5172 67.0501 56.9199 67.0501 57.3398V71.5898Z" fill="#F8B232"/>
<path id="Vector_3" d="M65.4668 79.5068C64.5273 79.5068 63.609 79.7854 62.8278 80.3074C62.0467 80.8293 61.4379 81.5711 61.0784 82.4391C60.7189 83.307 60.6248 84.2621 60.8081 85.1835C60.9913 86.1049 61.4437 86.9513 62.108 87.6156C62.7723 88.2799 63.6187 88.7323 64.5401 88.9156C65.4615 89.0988 66.4166 89.0048 67.2845 88.6453C68.1525 88.2857 68.8943 87.6769 69.4163 86.8958C69.9382 86.1147 70.2168 85.1963 70.2168 84.2568C70.2168 82.9971 69.7164 81.7889 68.8256 80.8981C67.9348 80.0073 66.7266 79.5068 65.4668 79.5068ZM65.4668 85.8402C65.1536 85.8402 64.8475 85.7473 64.5871 85.5733C64.3268 85.3994 64.1238 85.1521 64.004 84.8628C63.8842 84.5734 63.8528 84.2551 63.9139 83.9479C63.975 83.6408 64.1258 83.3587 64.3472 83.1372C64.5686 82.9158 64.8508 82.765 65.1579 82.7039C65.465 82.6428 65.7834 82.6742 66.0727 82.794C66.362 82.9139 66.6093 83.1168 66.7833 83.3772C66.9573 83.6376 67.0501 83.9437 67.0501 84.2568C67.0501 84.6768 66.8833 85.0795 66.5864 85.3764C66.2895 85.6734 65.8867 85.8402 65.4668 85.8402Z" fill="#F8B232"/>
<path id="Vector_4" d="M32.2181 30.4235H52.8014C53.2214 30.4235 53.6241 30.2567 53.921 29.9598C54.218 29.6628 54.3848 29.2601 54.3848 28.8402C54.3848 28.4202 54.218 28.0175 53.921 27.7206C53.6241 27.4236 53.2214 27.2568 52.8014 27.2568H32.2181C31.7982 27.2568 31.3954 27.4236 31.0985 27.7206C30.8016 28.0175 30.6348 28.4202 30.6348 28.8402C30.6348 29.2601 30.8016 29.6628 31.0985 29.9598C31.3954 30.2567 31.7982 30.4235 32.2181 30.4235Z" fill="#F8B232"/>
<path id="Vector_5" d="M32.2181 36.7565H41.7181C42.138 36.7565 42.5408 36.5897 42.8377 36.2928C43.1346 35.9958 43.3014 35.5931 43.3014 35.1732C43.3014 34.7533 43.1346 34.3505 42.8377 34.0536C42.5408 33.7567 42.138 33.5898 41.7181 33.5898H32.2181C31.7982 33.5898 31.3954 33.7567 31.0985 34.0536C30.8016 34.3505 30.6348 34.7533 30.6348 35.1732C30.6348 35.5931 30.8016 35.9958 31.0985 36.2928C31.3954 36.5897 31.7982 36.7565 32.2181 36.7565Z" fill="#F8B232"/>
<path id="Vector_6" d="M32.2181 47.8395H52.8014C53.2214 47.8395 53.6241 47.6727 53.921 47.3758C54.218 47.0788 54.3848 46.6761 54.3848 46.2562C54.3848 45.8363 54.218 45.4335 53.921 45.1366C53.6241 44.8397 53.2214 44.6729 52.8014 44.6729H32.2181C31.7982 44.6729 31.3954 44.8397 31.0985 45.1366C30.8016 45.4335 30.6348 45.8363 30.6348 46.2562C30.6348 46.6761 30.8016 47.0788 31.0985 47.3758C31.3954 47.6727 31.7982 47.8395 32.2181 47.8395Z" fill="#F8B232"/>
<path id="Vector_7" d="M32.2181 54.1735H41.7181C42.138 54.1735 42.5408 54.0067 42.8377 53.7098C43.1346 53.4128 43.3014 53.0101 43.3014 52.5902C43.3014 52.1702 43.1346 51.7675 42.8377 51.4706C42.5408 51.1736 42.138 51.0068 41.7181 51.0068H32.2181C31.7982 51.0068 31.3954 51.1736 31.0985 51.4706C30.8016 51.7675 30.6348 52.1702 30.6348 52.5902C30.6348 53.0101 30.8016 53.4128 31.0985 53.7098C31.3954 54.0067 31.7982 54.1735 32.2181 54.1735Z" fill="#F8B232"/>
<path id="Vector_8" d="M32.2181 65.2565H43.3014C43.7214 65.2565 44.1241 65.0897 44.421 64.7928C44.718 64.4958 44.8848 64.0931 44.8848 63.6732C44.8848 63.2533 44.718 62.8505 44.421 62.5536C44.1241 62.2567 43.7214 62.0898 43.3014 62.0898H32.2181C31.7982 62.0898 31.3954 62.2567 31.0985 62.5536C30.8016 62.8505 30.6348 63.2533 30.6348 63.6732C30.6348 64.0931 30.8016 64.4958 31.0985 64.7928C31.3954 65.0897 31.7982 65.2565 32.2181 65.2565Z" fill="#F8B232"/>
<path id="Vector_9" d="M32.2181 71.5895H38.5514C38.9714 71.5895 39.3741 71.4227 39.671 71.1258C39.968 70.8288 40.1348 70.4261 40.1348 70.0062C40.1348 69.5863 39.968 69.1835 39.671 68.8866C39.3741 68.5897 38.9714 68.4229 38.5514 68.4229H32.2181C31.7982 68.4229 31.3954 68.5897 31.0985 68.8866C30.8016 69.1835 30.6348 69.5863 30.6348 70.0062C30.6348 70.4261 30.8016 70.8288 31.0985 71.1258C31.3954 71.4227 31.7982 71.5895 32.2181 71.5895Z" fill="#F8B232"/>
<path id="Vector_10" d="M15.2644 34.0534C14.9675 34.3504 14.8008 34.753 14.8008 35.1729C14.8008 35.5927 14.9675 35.9954 15.2644 36.2923L18.431 39.4589C18.7279 39.7559 19.1306 39.9228 19.5504 39.9229C19.6353 39.9231 19.7201 39.9162 19.8038 39.9023C20.0517 39.8622 20.2865 39.7638 20.4888 39.6152C20.6911 39.4665 20.8552 39.2719 20.9675 39.0473L27.3009 26.3806C27.3938 26.1945 27.4492 25.9919 27.4638 25.7844C27.4785 25.5769 27.4521 25.3686 27.3863 25.1713C27.3204 24.974 27.2163 24.7916 27.0799 24.6345C26.9436 24.4774 26.7776 24.3487 26.5915 24.2558C26.4054 24.1628 26.2029 24.1075 25.9954 24.0928C25.7879 24.0781 25.5795 24.1045 25.3822 24.1704C25.1849 24.2362 25.0025 24.3403 24.8454 24.4767C24.6883 24.6131 24.5596 24.779 24.4667 24.9651L19.1166 35.6669L17.5032 34.0534C17.2063 33.7566 16.8036 33.5899 16.3838 33.5899C15.9639 33.5899 15.5613 33.7566 15.2644 34.0534Z" fill="#F8B232"/>
<path id="Vector_11" d="M26.5919 41.673C26.4059 41.58 26.2033 41.5245 25.9958 41.5098C25.7882 41.4951 25.5799 41.5215 25.3825 41.5873C25.1852 41.6532 25.0028 41.7573 24.8457 41.8937C24.6886 42.0301 24.56 42.1962 24.4671 42.3823L19.117 53.0841L17.5036 51.4707C17.205 51.1822 16.805 51.0227 16.3899 51.0263C15.9747 51.0299 15.5776 51.1964 15.2841 51.4899C14.9905 51.7835 14.824 52.1806 14.8204 52.5958C14.8168 53.0109 14.9764 53.4109 15.2648 53.7095L18.4314 56.8762C18.7283 57.1731 19.131 57.34 19.5509 57.3401C19.6357 57.3403 19.7205 57.3334 19.8042 57.3195C20.0521 57.2795 20.2869 57.1811 20.4892 57.0324C20.6916 56.8837 20.8557 56.6891 20.9679 56.4645L27.3013 43.7978C27.3943 43.6118 27.4498 43.4092 27.4645 43.2016C27.4791 42.9941 27.4528 42.7857 27.3869 42.5884C27.3211 42.3911 27.2169 42.2087 27.0805 42.0516C26.9441 41.8945 26.7781 41.7659 26.5919 41.673Z" fill="#F8B232"/>
<path id="Vector_12" d="M26.5919 59.0812C26.4059 58.9882 26.2033 58.9327 25.9958 58.918C25.7882 58.9033 25.5799 58.9297 25.3825 58.9955C25.1852 59.0614 25.0028 59.1655 24.8457 59.3019C24.6886 59.4384 24.56 59.6044 24.4671 59.7905L19.117 70.4923L17.5036 68.8789C17.205 68.5904 16.805 68.4309 16.3899 68.4345C15.9747 68.4381 15.5776 68.6046 15.2841 68.8982C14.9905 69.1917 14.824 69.5888 14.8204 70.004C14.8168 70.4191 14.9764 70.8191 15.2648 71.1177L18.4314 74.2844C18.5778 74.4328 18.752 74.5509 18.9441 74.6319C19.1362 74.7129 19.3424 74.7551 19.5509 74.7562C19.6357 74.7564 19.7205 74.7495 19.8042 74.7356C20.0521 74.6956 20.2869 74.5972 20.4892 74.4485C20.6916 74.2998 20.8557 74.1052 20.9679 73.8806L27.3013 61.2139C27.3955 61.0275 27.452 60.8242 27.4673 60.6158C27.4827 60.4075 27.4566 60.1981 27.3907 59.9999C27.3247 59.8016 27.2202 59.6184 27.0831 59.4607C26.946 59.303 26.7791 59.1741 26.5919 59.0812Z" fill="#F8B232"/>
</g>
<defs>
<clipPath id="clip0_28_4992">
<rect width="95" height="95" fill="white" transform="translate(0.550781 0.339844)"/>
</clipPath>
</defs>
</svg>
