<svg width="96" height="96" viewBox="0 0 96 96" fill="none" xmlns="http://www.w3.org/2000/svg">
<g id="SVG">
<path id="Vector" d="M94.1055 46.3555V1.82422H31.7617V16.668H23.5383C24.9544 15.0901 25.8242 13.0134 25.8242 10.7305C25.8242 5.81867 21.8298 1.82422 16.918 1.82422C12.0062 1.82422 8.01172 5.81867 8.01172 10.7305C8.01172 13.3964 9.19477 15.7862 11.0562 17.4191C5.83711 19.2374 2.07422 24.1952 2.07422 30.0273V34.4805C2.07422 37.755 4.73719 40.418 8.01172 40.418V56.0039C8.01172 56.804 8.20914 57.5536 8.53273 58.2305H2.07422V70.1055H8.53125C8.20172 71.0362 8.01172 72.0322 8.01172 73.0742C8.01172 75.7402 9.19477 78.13 11.0562 79.7628C5.83711 81.5812 2.07422 86.539 2.07422 92.3711V93.8555H28.793H31.7617H55.5117H58.4805H85.1992V92.3711C85.1992 86.539 81.4363 81.5812 76.2173 79.7628C78.0787 78.13 79.2617 75.7402 79.2617 73.0742C79.2617 72.0322 79.0717 71.0362 78.7422 70.1055H94.1055V58.2305H84.555L77.43 46.3555H94.1055ZM34.7305 4.79297H91.1367V43.3867H34.7305V25.5742H39.1836C41.1162 25.5742 42.7491 24.3288 43.3636 22.6055H61.4492V7.76172H37.6992V16.668H34.7305V4.79297ZM25.3032 58.2305C25.6268 57.5536 25.8242 56.804 25.8242 56.0039V25.5742H31.7617V46.3555H48.4372L41.3122 58.2305H25.3032ZM51.8988 46.3555H55.8591L48.7341 58.2305H44.7738L51.8988 46.3555ZM58.4805 47.7567V58.2305H52.1956L58.4805 47.7567ZM61.4492 46.3555H64.418V58.2305H61.4492V46.3555ZM67.3867 47.7567L73.6716 58.2305H67.3867V47.7567ZM43.3636 19.6367C42.9153 18.3795 41.9252 17.3894 40.668 16.9411V10.7305H58.4805V19.6367H43.3636ZM16.918 4.79297C20.1925 4.79297 22.8555 7.45594 22.8555 10.7305C22.8555 14.005 20.1925 16.668 16.918 16.668C13.6434 16.668 10.9805 14.005 10.9805 10.7305C10.9805 7.45594 13.6434 4.79297 16.918 4.79297ZM10.9805 56.0039V30.0273H8.01172V37.4492C6.37445 37.4492 5.04297 36.1177 5.04297 34.4805V30.0273C5.04297 24.2977 9.70391 19.6367 15.4336 19.6367H39.1836C40.0015 19.6367 40.668 20.3032 40.668 21.1211C40.668 21.939 40.0015 22.6055 39.1836 22.6055H22.8555V56.0039C22.8555 57.2315 21.8565 58.2305 20.6289 58.2305C19.4013 58.2305 18.4023 57.2315 18.4023 56.0039V35.9648H15.4336V56.0039C15.4336 57.2315 14.4346 58.2305 13.207 58.2305C11.9795 58.2305 10.9805 57.2315 10.9805 56.0039ZM16.918 67.1367C20.1925 67.1367 22.8555 69.7997 22.8555 73.0742C22.8555 76.3487 20.1925 79.0117 16.918 79.0117C13.6434 79.0117 10.9805 76.3487 10.9805 73.0742C10.9805 69.7997 13.6434 67.1367 16.918 67.1367ZM5.14836 90.8867C5.87125 85.8577 10.2071 81.9805 15.4336 81.9805H18.4023C23.6288 81.9805 27.9647 85.8577 28.6876 90.8867H5.14836ZM22.7798 79.7628C24.6412 78.13 25.8242 75.7402 25.8242 73.0742C25.8242 72.0322 25.6342 71.0362 25.3047 70.1055H35.25C34.9205 71.0362 34.7305 72.0322 34.7305 73.0742C34.7305 75.7402 35.9135 78.13 37.7749 79.7628C34.5197 80.8969 31.8374 83.2481 30.2773 86.2777C28.7158 83.2481 26.0335 80.8969 22.7798 79.7628ZM49.5742 73.0742C49.5742 76.3487 46.9113 79.0117 43.6367 79.0117C40.3622 79.0117 37.6992 76.3487 37.6992 73.0742C37.6992 69.7997 40.3622 67.1367 43.6367 67.1367C46.9113 67.1367 49.5742 69.7997 49.5742 73.0742ZM31.8671 90.8867C32.59 85.8577 36.9259 81.9805 42.1523 81.9805H45.1211C50.3476 81.9805 54.6834 85.8577 55.4063 90.8867H31.8671ZM49.4985 79.7628C51.3599 78.13 52.543 75.7402 52.543 73.0742C52.543 72.0322 52.353 71.0362 52.0234 70.1055H61.9687C61.6392 71.0362 61.4492 72.0322 61.4492 73.0742C61.4492 75.7402 62.6323 78.13 64.4937 79.7628C61.2384 80.8969 58.5562 83.2481 56.9961 86.2777C55.4345 83.2481 52.7523 80.8969 49.4985 79.7628ZM71.8398 81.9805C77.0663 81.9805 81.4022 85.8577 82.1251 90.8867H58.5859C59.3088 85.8577 63.6446 81.9805 68.8711 81.9805H71.8398ZM70.3555 79.0117C67.0809 79.0117 64.418 76.3487 64.418 73.0742C64.418 69.7997 67.0809 67.1367 70.3555 67.1367C73.63 67.1367 76.293 69.7997 76.293 73.0742C76.293 76.3487 73.63 79.0117 70.3555 79.0117ZM91.1367 67.1367H76.9758C75.3445 65.3198 72.9858 64.168 70.3555 64.168C67.7252 64.168 65.368 65.3198 63.7352 67.1367H50.257C48.6257 65.3198 46.267 64.168 43.6367 64.168C41.0064 64.168 38.6492 65.3198 37.0164 67.1367H23.5383C21.907 65.3198 19.5483 64.168 16.918 64.168C14.2877 64.168 11.9305 65.3198 10.2977 67.1367H5.04297V61.1992H91.1367V67.1367ZM81.0934 58.2305H77.1331L70.0081 46.3555H73.9684L81.0934 58.2305Z" fill="#F8B232"/>
<path id="Vector_2" d="M61.4492 34.4805V37.4492H58.4805V25.5742H55.5117V37.4492H52.543V40.418H88.168V19.6367H85.1992V37.4492H82.2305V22.6055H79.2617V37.4492H76.293V31.5117H73.3242V37.4492H70.3555V28.543H67.3867V37.4492H64.418V34.4805H61.4492Z" fill="#F8B232"/>
<path id="Vector_3" d="M64.418 7.76172H67.3867V10.7305H64.418V7.76172Z" fill="#F8B232"/>
<path id="Vector_4" d="M70.3555 7.76172H88.168V10.7305H70.3555V7.76172Z" fill="#F8B232"/>
<path id="Vector_5" d="M64.418 13.6992H88.168V16.668H64.418V13.6992Z" fill="#F8B232"/>
<path id="Vector_6" d="M37.6992 31.5117H40.668V34.4805H37.6992V31.5117Z" fill="#F8B232"/>
<path id="Vector_7" d="M37.6992 37.4492H40.668V40.418H37.6992V37.4492Z" fill="#F8B232"/>
</g>
</svg>
