<svg width="96" height="96" viewBox="0 0 96 96" fill="none" xmlns="http://www.w3.org/2000/svg">
<g id="SVG" clip-path="url(#clip0_28_4974)">
<g id="Group">
<g id="Group_2">
<g id="Group_3">
<path id="Vector" d="M90.7299 0.339844H37.3165C36.2422 0.339844 35.3683 1.21377 35.3683 2.28809V6.64825H31.0081C29.9338 6.64825 29.0599 7.52218 29.0599 8.59649V25.6781L8.623 35.8919C7.51547 36.4454 6.82746 37.5583 6.82746 38.7965V49.5051C6.82746 53.1383 7.25719 56.3802 8.07545 59.3198C5.2774 61.7323 3.50098 65.2987 3.50098 69.2744C3.50098 76.523 9.39821 82.4202 16.6468 82.4202C18.3672 82.4202 20.0098 82.0846 21.5172 81.481V88.9453C21.5172 89.7742 22.0067 90.5269 22.7643 90.8632C23.5215 91.1994 24.4086 91.0572 25.0231 90.5013L30.1264 85.8847L35.2299 90.5013C35.623 90.857 36.1275 91.0431 36.6384 91.0431C36.9259 91.0431 37.2158 90.9841 37.4887 90.863C38.2463 90.5266 38.7358 89.7738 38.7358 88.9452V77.9791H49.2028C49.9716 77.9791 50.5944 77.3561 50.5944 76.5875C50.5944 75.819 49.9716 75.1959 49.2028 75.1959H41.5249C44.4742 72.6716 46.9369 69.9639 48.8434 66.9079H73.2338C74.0025 66.9079 74.6254 66.2849 74.6254 65.5163C74.6254 64.7478 74.0025 64.1247 73.2338 64.1247H50.3744C50.9227 62.9831 51.4014 61.7933 51.8061 60.5478H56.4392C57.2079 60.5478 57.8308 59.9247 57.8308 59.1562C57.8308 58.3876 57.2079 57.7646 56.4392 57.7646H52.5685C52.8245 56.6192 53.0234 55.4276 53.1654 54.1876H73.2336C74.0023 54.1876 74.6252 53.5645 74.6252 52.796C74.6252 52.0275 74.0023 51.4044 73.2336 51.4044H53.3801C53.407 50.7821 53.4248 50.1516 53.4248 49.5049V47.8274H73.2336C74.0023 47.8274 74.6252 47.2043 74.6252 46.4358C74.6252 45.6673 74.0023 45.0442 73.2336 45.0442H53.425V41.4672H60.5212C61.2899 41.4672 61.9128 40.8442 61.9128 40.0756C61.9128 39.3071 61.2899 38.684 60.5212 38.684H53.4211C53.3808 37.4913 52.7032 36.4283 51.6294 35.8917L50.0595 35.1071H73.2336C74.0023 35.1071 74.6252 34.484 74.6252 33.7155C74.6252 32.9469 74.0023 32.3239 73.2336 32.3239H44.4905L31.8429 26.0028V9.43146H83.5865V19.8223C83.5865 20.5908 84.2094 21.2139 84.9781 21.2139C85.7469 21.2139 86.3697 20.5908 86.3697 19.8223V8.59649C86.3697 7.52218 85.4958 6.64825 84.4215 6.64825H38.1515V3.12305H89.8951V68.8877H86.3697V26.3164C86.3697 25.5479 85.7469 24.9248 84.9781 24.9248C84.2094 24.9248 83.5865 25.5479 83.5865 26.3164V75.1961H55.697C54.9283 75.1961 54.3054 75.8192 54.3054 76.5877C54.3054 77.3563 54.9283 77.9793 55.697 77.9793H84.4215C85.4958 77.9793 86.3697 77.1054 86.3697 76.0311V71.6709H90.7299C91.8042 71.6709 92.6781 70.797 92.6781 69.7227V2.28809C92.6781 1.21377 91.8042 0.339844 90.7299 0.339844ZM6.28418 69.2744C6.28418 63.5605 10.9329 58.9118 16.6468 58.9118C22.3607 58.9118 27.0094 63.5605 27.0094 69.2744C27.0094 74.9883 22.3607 79.637 16.6468 79.637C10.9329 79.637 6.28418 74.9883 6.28418 69.2744ZM31.5338 83.4051C30.7313 82.6792 29.5208 82.6792 28.7187 83.4051L24.3002 87.4021V79.9524C27.6226 77.5643 29.7924 73.6693 29.7924 69.2746C29.7924 68.075 29.6278 66.9139 29.3254 65.8089C29.5907 65.8242 29.8572 65.8347 30.1262 65.8347C32.2012 65.8347 34.1721 65.3855 35.9522 64.5849V87.4021L31.5338 83.4051ZM50.6418 38.7965V49.5051C50.6418 56.8333 48.8147 62.6248 44.8922 67.7312C43.2548 69.8628 41.2677 71.8711 38.7354 73.9192V62.9319C42.1636 60.3259 44.3821 56.2073 44.3821 51.5786C44.3821 49.2895 43.8231 47.0097 42.7653 44.9858C42.4094 44.3046 41.5685 44.0411 40.8874 44.397C40.2062 44.7529 39.9426 45.5938 40.2986 46.2749C41.1614 47.9259 41.5989 49.7105 41.5989 51.5788C41.5989 57.9048 36.4524 63.0515 30.1262 63.0515C29.443 63.0515 28.7739 62.9901 28.1234 62.8747C26.3644 59.7328 23.3543 57.3842 19.7712 56.5071C19.0563 55.0131 18.6535 53.3426 18.6535 51.5788C18.6535 45.2528 23.8 40.1061 30.1262 40.1061C32.3639 40.1061 34.5341 40.7531 36.4025 41.9769C37.0449 42.3981 37.9079 42.2185 38.3291 41.5754C38.7502 40.9325 38.5704 40.0699 37.9275 39.6489C35.6049 38.1272 32.9072 37.3229 30.1262 37.3229C22.2655 37.3229 15.8703 43.7179 15.8703 51.5788C15.8703 53.1699 16.1343 54.6999 16.6184 56.1295C14.4169 56.1342 12.3419 56.6845 10.5185 57.6497C9.91051 55.1454 9.61066 52.4511 9.61066 49.5053V38.7967C9.61066 38.6198 9.70882 38.4608 9.86709 38.3818L30.126 28.2567L50.3852 38.3818C50.5434 38.4606 50.6418 38.6196 50.6418 38.7965Z" fill="#10417A"/>
<path id="Vector_2" d="M40.8047 27.3555C40.8047 28.124 41.4278 28.7471 42.1963 28.7471H73.234C74.0027 28.7471 74.6256 28.124 74.6256 27.3555C74.6256 26.5869 74.0027 25.9639 73.234 25.9639H42.1963C41.4276 25.9639 40.8047 26.5867 40.8047 27.3555Z" fill="#10417A"/>
<path id="Vector_3" d="M73.2339 38.6846H65.7168C64.9481 38.6846 64.3252 39.3076 64.3252 40.0762C64.3252 40.8447 64.9481 41.4678 65.7168 41.4678H73.234C74.0028 41.4678 74.6256 40.8447 74.6256 40.0762C74.6256 39.3076 74.0026 38.6846 73.2339 38.6846Z" fill="#10417A"/>
<path id="Vector_4" d="M73.2339 57.7646H61.4492C60.6805 57.7646 60.0576 58.3877 60.0576 59.1562C60.0576 59.9248 60.6805 60.5479 61.4492 60.5479H73.234C74.0028 60.5479 74.6256 59.9248 74.6256 59.1562C74.6256 58.3877 74.0026 57.7646 73.2339 57.7646Z" fill="#10417A"/>
<path id="Vector_5" d="M67.2553 19.5605C68.0241 19.5605 68.6469 18.9375 68.6469 18.1689C68.6469 17.4004 68.0241 16.7773 67.2553 16.7773H48.1748C47.4063 16.7773 46.7832 17.4004 46.7832 18.1689C46.7832 18.9375 47.4063 19.5605 48.1748 19.5605H67.2553Z" fill="#10417A"/>
<path id="Vector_6" d="M34.4208 48.3431L29.4608 53.3032L26.2154 50.0578C25.6719 49.5143 24.7907 49.5143 24.2474 50.0578C23.704 50.6013 23.704 51.4824 24.2474 52.0257L28.4768 56.2551C28.7484 56.5269 29.1047 56.6627 29.4608 56.6627C29.8168 56.6627 30.1731 56.5269 30.4447 56.2551L36.3889 50.3111C36.9324 49.7676 36.9324 48.8864 36.3889 48.3431C35.8452 47.7997 34.9641 47.7997 34.4208 48.3431Z" fill="#10417A"/>
<path id="Vector_7" d="M55.6667 84.4547L52.8154 84.0404L51.5405 81.4568C51.5405 81.4568 51.5405 81.4566 51.5403 81.4566C51.1843 80.7352 50.4632 80.2871 49.6587 80.2871C48.8543 80.2871 48.1333 80.7352 47.7771 81.4568L46.502 84.0404L43.6507 84.4547C42.8545 84.5705 42.2055 85.1176 41.9568 85.8826C41.7082 86.6478 41.9115 87.4719 42.4879 88.0337L44.551 90.0448L44.0639 92.8844C43.9279 93.6775 44.2478 94.4638 44.8987 94.9368C45.2664 95.204 45.6967 95.3398 46.1301 95.3398C46.4636 95.3398 46.7989 95.2593 47.1085 95.0965L49.6587 93.7558L52.2088 95.0965C52.921 95.4706 53.7673 95.4097 54.4185 94.9368C55.0694 94.464 55.3893 93.6777 55.2533 92.8844L54.7662 90.0448L56.8295 88.0337C57.4055 87.4722 57.609 86.648 57.3604 85.8828C57.1119 85.1178 56.4631 84.5705 55.6667 84.4547ZM52.5658 88.3033C52.0712 88.7855 51.8455 89.4797 51.9624 90.1606L52.2756 91.9873L50.6352 91.1251C50.3294 90.9642 49.994 90.8839 49.6585 90.8839C49.323 90.8839 48.9879 90.9642 48.6822 91.1249L47.0417 91.9873L47.3549 90.1606C47.4716 89.4797 47.246 88.7853 46.7514 88.3033L45.4241 87.0097L47.2583 86.743C47.9416 86.6438 48.5322 86.2148 48.8382 85.595L49.6583 83.9331L50.4786 85.595C50.7842 86.2146 51.375 86.6438 52.0587 86.743L53.8929 87.0097L52.5658 88.3033Z" fill="#10417A"/>
<path id="Vector_8" d="M72.887 84.4547L70.0359 84.0404L68.761 81.4568C68.761 81.4568 68.761 81.4566 68.7608 81.4566C68.4047 80.7352 67.6837 80.2871 66.8792 80.2871C66.0748 80.2871 65.3538 80.7352 64.9975 81.4568L63.7227 84.0404L60.8712 84.4547C60.075 84.5705 59.4261 85.1176 59.1775 85.8828C58.9289 86.648 59.1324 87.472 59.7083 88.0337L61.7716 90.0448L61.2846 92.8843C61.1484 93.6771 61.4681 94.4634 62.1188 94.9366C62.7695 95.4097 63.6163 95.471 64.329 95.0965L66.879 93.7558L69.4291 95.0965C69.739 95.2593 70.0741 95.3398 70.4075 95.3398C70.8406 95.3398 71.2709 95.204 71.6388 94.9368C72.2897 94.464 72.6096 93.6777 72.4736 92.8844L71.9865 90.0448L74.0498 88.0337C74.6258 87.4722 74.8293 86.648 74.5807 85.8828C74.3324 85.1178 73.6834 84.5705 72.887 84.4547ZM69.7863 88.3033C69.2917 88.7855 69.066 89.4797 69.1829 90.1606L69.4961 91.9873L67.8557 91.1251C67.5499 90.9642 67.2145 90.8839 66.879 90.8839C66.5435 90.8839 66.2084 90.9642 65.9026 91.1249L64.262 91.9873L64.5754 90.1606C64.6921 89.4798 64.4665 88.7855 63.9718 88.3033L62.6446 87.0097L64.4788 86.743C65.1625 86.6438 65.7531 86.2146 66.0589 85.595L66.879 83.9331L67.6993 85.595C68.0049 86.2146 68.5957 86.6438 69.2794 86.743L71.1135 87.0097L69.7863 88.3033Z" fill="#10417A"/>
<path id="Vector_9" d="M90.1067 84.4547L87.2556 84.0404L85.9807 81.4568C85.9807 81.4568 85.9807 81.4566 85.9805 81.4566C85.6245 80.7352 84.9034 80.2871 84.0991 80.2871C83.2946 80.2871 82.5735 80.7352 82.2173 81.4568L80.9424 84.0404L78.0909 84.4547C77.2947 84.5705 76.6459 85.1176 76.3972 85.8828C76.1486 86.648 76.3521 87.4722 76.9281 88.0337L78.9914 90.0448L78.5043 92.8843C78.3681 93.6771 78.6878 94.4636 79.3387 94.9366C79.7065 95.204 80.1369 95.3398 80.5702 95.3398C80.9038 95.3398 81.2389 95.2593 81.5486 95.0965L84.0987 93.7558L86.6489 95.0965C87.361 95.4706 88.2073 95.4097 88.8586 94.9368C89.5095 94.464 89.8293 93.6777 89.6933 92.8844L89.2063 90.0448L91.2697 88.0335C91.8457 87.4719 92.049 86.6477 91.8002 85.8826C91.552 85.1176 90.9029 84.5705 90.1067 84.4547ZM87.0066 88.3027C86.5116 88.7848 86.2858 89.4793 86.4027 90.1606L86.7159 91.9873L85.0754 91.1251C84.7698 90.9642 84.4344 90.8839 84.0989 90.8839C83.7634 90.8839 83.4282 90.9642 83.1222 91.1249L81.4818 91.9873L81.7952 90.1606C81.9119 89.4798 81.6862 88.7855 81.1916 88.3033L79.8644 87.0097L81.6985 86.743C82.3817 86.6438 82.9721 86.215 83.2786 85.595L84.0989 83.9331L84.919 85.595C85.2246 86.2146 85.8154 86.6438 86.4991 86.743L88.3333 87.0097L87.0066 88.3027Z" fill="#10417A"/>
<path id="Vector_10" d="M22.0682 66.1158L19.578 65.7538L18.4643 63.4972C18.1203 62.8003 17.424 62.3672 16.6467 62.3672C15.8695 62.3672 15.1729 62.8003 14.8291 63.4972L13.7155 65.7538L11.2254 66.1156C10.4563 66.2273 9.82936 66.7559 9.58908 67.495C9.34879 68.2342 9.54529 69.0304 10.1019 69.5729L11.904 71.3295L11.4787 73.8095C11.3473 74.5756 11.6563 75.3352 12.2851 75.7922C12.6404 76.0503 13.056 76.1815 13.4746 76.1815C13.7967 76.1815 14.1205 76.1038 14.4198 75.9464L16.6471 74.7754L18.8744 75.9464C19.5624 76.3083 20.3803 76.2491 21.0091 75.7922C21.6379 75.3354 21.9469 74.5756 21.8155 73.8097L21.3902 71.3295L23.1923 69.5729C23.7489 69.0304 23.9454 68.2342 23.7051 67.495C23.4641 66.7559 22.8371 66.2275 22.0682 66.1158ZM19.1622 69.6141C18.6844 70.0798 18.4664 70.7506 18.5792 71.4081L18.8128 72.7701L17.5899 72.1271C16.9993 71.8167 16.294 71.8167 15.7034 72.1271L14.4805 72.7701L14.7141 71.4081C14.8269 70.7506 14.6089 70.0798 14.1311 69.6143L13.1416 68.6498L14.5083 68.4511C15.169 68.3553 15.7398 67.9408 16.035 67.3423L16.6465 66.1032L17.2579 67.3419C17.5531 67.9406 18.1239 68.3552 18.7842 68.4509L20.1515 68.6496L19.1622 69.6141Z" fill="#10417A"/>
</g>
</g>
</g>
</g>
<defs>
<clipPath id="clip0_28_4974">
<rect width="95" height="95" fill="white" transform="translate(0.589844 0.339844)"/>
</clipPath>
</defs>
</svg>
