<svg width="43" height="43" viewBox="0 0 43 43" fill="none" xmlns="http://www.w3.org/2000/svg">
<g id="Link &#226;&#134;&#146; SVG" clip-path="url(#clip0_26_4847)">
<g id="Group">
<g id="Group_2">
<path id="Vector" d="M33.765 26.8479C32.9051 25.9526 31.868 25.4739 30.7688 25.4739C29.6785 25.4739 28.6325 25.9437 27.7372 26.839L24.9361 29.6313C24.7056 29.5072 24.4751 29.392 24.2535 29.2767C23.9344 29.1172 23.633 28.9665 23.3759 28.8069C20.7521 27.1404 18.3675 24.9687 16.0805 22.1586C14.9725 20.7581 14.2279 19.5791 13.6871 18.3824C14.414 17.7176 15.0877 17.0262 15.7437 16.3613C15.9919 16.1131 16.2401 15.8561 16.4883 15.6079C18.3498 13.7463 18.3498 11.3352 16.4883 9.4737L14.0683 7.05372C13.7935 6.77893 13.5099 6.49527 13.2439 6.21161C12.7121 5.66201 12.1536 5.09469 11.5774 4.56283C10.7176 3.71185 9.68931 3.25977 8.60785 3.25977C7.5264 3.25977 6.4804 3.71185 5.59396 4.56283C5.5851 4.57169 5.5851 4.57169 5.57623 4.58056L2.56234 7.62104C1.4277 8.75569 0.780601 10.1385 0.638771 11.743C0.426025 14.3314 1.18836 16.7425 1.77341 18.3204C3.20944 22.1941 5.35463 25.7842 8.55467 29.6313C12.4373 34.2674 17.1088 37.9284 22.4452 40.5079C24.484 41.4741 27.2053 42.6176 30.2458 42.8127C30.432 42.8215 30.627 42.8304 30.8043 42.8304C32.852 42.8304 34.5716 42.0947 35.919 40.632C35.9279 40.6143 35.9456 40.6054 35.9545 40.5877C36.4154 40.0292 36.9473 39.524 37.5058 38.9832C37.8869 38.6198 38.277 38.2386 38.6581 37.8397C39.5357 36.9267 39.9967 35.863 39.9967 34.7727C39.9967 33.6735 39.5268 32.6186 38.6315 31.7322L33.765 26.8479ZM36.9384 36.1821C36.9296 36.1821 36.9296 36.191 36.9384 36.1821C36.5927 36.5544 36.2382 36.8913 35.857 37.2636C35.2808 37.8131 34.6958 38.3893 34.1462 39.0364C33.2509 39.9938 32.196 40.4459 30.8131 40.4459C30.6802 40.4459 30.5384 40.4459 30.4054 40.437C27.7727 40.2686 25.3261 39.2403 23.4912 38.3627C18.4739 35.9339 14.0683 32.4857 10.4073 28.1155C7.38457 24.4722 5.36349 21.1038 4.02497 17.4871C3.20058 15.2799 2.89919 13.5602 3.03216 11.938C3.1208 10.9009 3.5197 10.041 4.25544 9.30528L7.2782 6.28252C7.71255 5.87476 8.1735 5.65315 8.62558 5.65315C9.18404 5.65315 9.63612 5.99 9.91978 6.27366C9.92865 6.28252 9.93751 6.29139 9.94638 6.30025C10.4871 6.80552 11.0012 7.32852 11.542 7.88698C11.8168 8.17064 12.1004 8.4543 12.3841 8.74682L14.8041 11.1668C15.7437 12.1064 15.7437 12.9751 14.8041 13.9148C14.547 14.1718 14.2988 14.4289 14.0417 14.6771C13.2971 15.4394 12.588 16.1486 11.8168 16.84C11.799 16.8577 11.7813 16.8666 11.7724 16.8843C11.0101 17.6467 11.1519 18.3913 11.3115 18.8965C11.3204 18.9231 11.3292 18.9497 11.3381 18.9763C11.9675 20.501 12.8539 21.937 14.2013 23.6479L14.2101 23.6567C16.6567 26.6706 19.2363 29.0197 22.0817 30.8191C22.4452 31.0496 22.8175 31.2358 23.172 31.4131C23.4912 31.5726 23.7926 31.7233 24.0496 31.8829C24.0851 31.9006 24.1205 31.9272 24.156 31.9449C24.4574 32.0956 24.741 32.1665 25.0336 32.1665C25.7693 32.1665 26.2303 31.7056 26.381 31.5549L29.4126 28.5233C29.714 28.2219 30.1926 27.8584 30.7511 27.8584C31.3007 27.8584 31.7528 28.2042 32.0276 28.5055C32.0364 28.5144 32.0364 28.5144 32.0453 28.5233L36.9296 33.4075C37.8426 34.3117 37.8426 35.2425 36.9384 36.1821Z" fill="white"/>
<path id="Vector_2" d="M23.2695 10.8212C25.5919 11.2112 27.7016 12.3104 29.3859 13.9947C31.0701 15.6789 32.1604 17.7886 32.5593 20.1111C32.6568 20.6961 33.1621 21.1039 33.7383 21.1039C33.8092 21.1039 33.8713 21.095 33.9422 21.0862C34.5981 20.9798 35.0325 20.3593 34.9261 19.7033C34.4474 16.8933 33.1178 14.3315 31.0878 12.3016C29.0579 10.2716 26.4961 8.94196 23.6861 8.46329C23.0301 8.35691 22.4185 8.79127 22.3032 9.43837C22.188 10.0855 22.6135 10.7148 23.2695 10.8212Z" fill="white"/>
<path id="Vector_3" d="M42.523 19.3572C41.7341 14.73 39.5534 10.5194 36.2027 7.16863C32.8519 3.81789 28.6413 1.63725 24.0141 0.848322C23.367 0.733085 22.7554 1.1763 22.6402 1.82341C22.5338 2.47937 22.9681 3.09101 23.6241 3.20625C27.7549 3.90654 31.5223 5.86557 34.5184 8.85286C37.5146 11.849 39.4648 15.6164 40.1651 19.7472C40.2626 20.3322 40.7678 20.74 41.344 20.74C41.4149 20.74 41.477 20.7311 41.5479 20.7223C42.195 20.6248 42.6382 20.0043 42.523 19.3572Z" fill="white"/>
</g>
</g>
</g>
<defs>
<clipPath id="clip0_26_4847">
<rect width="42" height="42" fill="white" transform="translate(0.571777 0.830078)"/>
</clipPath>
</defs>
</svg>
