<svg width="96" height="96" viewBox="0 0 96 96" fill="none" xmlns="http://www.w3.org/2000/svg">
<g id="SVG" clip-path="url(#clip0_26_3220)">
<g id="Group">
<path id="Vector" d="M62.7939 80.3008C63.8187 80.3008 64.6494 79.4701 64.6494 78.4453C64.6494 77.4206 63.8187 76.5898 62.7939 76.5898C61.7692 76.5898 60.9385 77.4206 60.9385 78.4453C60.9385 79.4701 61.7692 80.3008 62.7939 80.3008Z" fill="#F8B232"/>
<path id="Vector_2" d="M47.9502 49.6855C48.9749 49.6855 49.8057 48.8548 49.8057 47.8301C49.8057 46.8053 48.9749 45.9746 47.9502 45.9746C46.9254 45.9746 46.0947 46.8053 46.0947 47.8301C46.0947 48.8548 46.9254 49.6855 47.9502 49.6855Z" fill="#F8B232"/>
<path id="Vector_3" d="M44.2393 42.2637C45.264 42.2637 46.0947 41.433 46.0947 40.4082C46.0947 39.3835 45.264 38.5527 44.2393 38.5527C43.2145 38.5527 42.3838 39.3835 42.3838 40.4082C42.3838 41.433 43.2145 42.2637 44.2393 42.2637Z" fill="#F8B232"/>
<path id="Vector_4" d="M51.6611 42.2637C52.6859 42.2637 53.5166 41.433 53.5166 40.4082C53.5166 39.3835 52.6859 38.5527 51.6611 38.5527C50.6364 38.5527 49.8057 39.3835 49.8057 40.4082C49.8057 41.433 50.6364 42.2637 51.6611 42.2637Z" fill="#F8B232"/>
<path id="Vector_5" d="M44.2393 34.8418C45.264 34.8418 46.0947 34.0111 46.0947 32.9863C46.0947 31.9616 45.264 31.1309 44.2393 31.1309C43.2145 31.1309 42.3838 31.9616 42.3838 32.9863C42.3838 34.0111 43.2145 34.8418 44.2393 34.8418Z" fill="#F8B232"/>
<path id="Vector_6" d="M16.2217 24.8223C17.2464 24.8223 18.0771 23.9915 18.0771 22.9668C18.0771 21.942 17.2464 21.1113 16.2217 21.1113C15.1969 21.1113 14.3662 21.942 14.3662 22.9668C14.3662 23.9915 15.1969 24.8223 16.2217 24.8223Z" fill="#F8B232"/>
<path id="Vector_7" d="M13.9951 58.2207C15.0199 58.2207 15.8506 57.39 15.8506 56.3652C15.8506 55.3405 15.0199 54.5098 13.9951 54.5098C12.9704 54.5098 12.1396 55.3405 12.1396 56.3652C12.1396 57.39 12.9704 58.2207 13.9951 58.2207Z" fill="#F8B232"/>
<path id="Vector_8" d="M21.6025 59.334C22.6273 59.334 23.458 58.5033 23.458 57.4785C23.458 56.4538 22.6273 55.623 21.6025 55.623C20.5778 55.623 19.7471 56.4538 19.7471 57.4785C19.7471 58.5033 20.5778 59.334 21.6025 59.334Z" fill="#F8B232"/>
<path id="Vector_9" d="M8.7998 22.9668C9.82455 22.9668 10.6553 22.1361 10.6553 21.1113C10.6553 20.0866 9.82455 19.2559 8.7998 19.2559C7.77506 19.2559 6.94434 20.0866 6.94434 21.1113C6.94434 22.1361 7.77506 22.9668 8.7998 22.9668Z" fill="#F8B232"/>
<path id="Vector_10" d="M23.6436 22.9668C24.6683 22.9668 25.499 22.1361 25.499 21.1113C25.499 20.0866 24.6683 19.2559 23.6436 19.2559C22.6188 19.2559 21.7881 20.0866 21.7881 21.1113C21.7881 22.1361 22.6188 22.9668 23.6436 22.9668Z" fill="#F8B232"/>
<path id="Vector_11" d="M6.20215 56.5508C7.2269 56.5508 8.05762 55.7201 8.05762 54.6953C8.05762 53.6706 7.2269 52.8398 6.20215 52.8398C5.1774 52.8398 4.34668 53.6706 4.34668 54.6953C4.34668 55.7201 5.1774 56.5508 6.20215 56.5508Z" fill="#F8B232"/>
<path id="Vector_12" d="M11.583 72.6934C12.6078 72.6934 13.4385 71.8626 13.4385 70.8379C13.4385 69.8131 12.6078 68.9824 11.583 68.9824C10.5583 68.9824 9.72754 69.8131 9.72754 70.8379C9.72754 71.8626 10.5583 72.6934 11.583 72.6934Z" fill="#F8B232"/>
<path id="Vector_13" d="M19.0049 76.4043C20.0296 76.4043 20.8604 75.5736 20.8604 74.5488C20.8604 73.5241 20.0296 72.6934 19.0049 72.6934C17.9801 72.6934 17.1494 73.5241 17.1494 74.5488C17.1494 75.5736 17.9801 76.4043 19.0049 76.4043Z" fill="#F8B232"/>
<path id="Vector_14" d="M4.16113 74.3633C5.18588 74.3633 6.0166 73.5326 6.0166 72.5078C6.0166 71.4831 5.18588 70.6523 4.16113 70.6523C3.13639 70.6523 2.30566 71.4831 2.30566 72.5078C2.30566 73.5326 3.13639 74.3633 4.16113 74.3633Z" fill="#F8B232"/>
<path id="Vector_15" d="M4.16113 40.9648C5.18588 40.9648 6.0166 40.1341 6.0166 39.1094C6.0166 38.0846 5.18588 37.2539 4.16113 37.2539C3.13639 37.2539 2.30566 38.0846 2.30566 39.1094C2.30566 40.1341 3.13639 40.9648 4.16113 40.9648Z" fill="#F8B232"/>
<path id="Vector_16" d="M19.0049 41.707C20.0296 41.707 20.8604 40.8763 20.8604 39.8516C20.8604 38.8268 20.0296 37.9961 19.0049 37.9961C17.9801 37.9961 17.1494 38.8268 17.1494 39.8516C17.1494 40.8763 17.9801 41.707 19.0049 41.707Z" fill="#F8B232"/>
<path id="Vector_17" d="M11.7686 39.4805C12.7933 39.4805 13.624 38.6497 13.624 37.625C13.624 36.6003 12.7933 35.7695 11.7686 35.7695C10.7438 35.7695 9.91309 36.6003 9.91309 37.625C9.91309 38.6497 10.7438 39.4805 11.7686 39.4805Z" fill="#F8B232"/>
<path id="Vector_18" d="M51.6611 34.8418C52.6859 34.8418 53.5166 34.0111 53.5166 32.9863C53.5166 31.9616 52.6859 31.1309 51.6611 31.1309C50.6364 31.1309 49.8057 31.9616 49.8057 32.9863C49.8057 34.0111 50.6364 34.8418 51.6611 34.8418Z" fill="#F8B232"/>
<path id="Vector_19" d="M47.9502 64.5293C48.9749 64.5293 49.8057 63.6986 49.8057 62.6738C49.8057 61.6491 48.9749 60.8184 47.9502 60.8184C46.9254 60.8184 46.0947 61.6491 46.0947 62.6738C46.0947 63.6986 46.9254 64.5293 47.9502 64.5293Z" fill="#F8B232"/>
<path id="Vector_20" d="M44.2393 57.1074C45.264 57.1074 46.0947 56.2767 46.0947 55.252C46.0947 54.2272 45.264 53.3965 44.2393 53.3965C43.2145 53.3965 42.3838 54.2272 42.3838 55.252C42.3838 56.2767 43.2145 57.1074 44.2393 57.1074Z" fill="#F8B232"/>
<path id="Vector_21" d="M51.6611 57.1074C52.6859 57.1074 53.5166 56.2767 53.5166 55.252C53.5166 54.2272 52.6859 53.3965 51.6611 53.3965C50.6364 53.3965 49.8057 54.2272 49.8057 55.252C49.8057 56.2767 50.6364 57.1074 51.6611 57.1074Z" fill="#F8B232"/>
<path id="Vector_22" d="M87.6441 55.4507C88.0064 55.813 88.4811 55.9941 88.9561 55.9941C89.4311 55.9941 89.9057 55.813 90.2681 55.4507L94.9067 50.812C95.6313 50.0874 95.6313 48.9126 94.9067 48.1878L90.2681 43.5491C89.5433 42.8246 88.3688 42.8246 87.6439 43.5491C86.9193 44.2737 86.9193 45.4486 87.6439 46.1733L89.1151 47.6445H86.8221C83.6366 47.6445 80.9659 46.2164 80.9445 46.2047C80.8035 46.1271 77.4457 44.3047 73.2772 44.3047C71.4002 44.3047 69.6889 44.6743 68.3602 45.0877V32.3234C69.42 31.8987 71.243 31.3164 73.2772 31.3164C76.4626 31.3164 79.1334 32.7446 79.1547 32.7562C79.2957 32.8338 82.6536 34.6562 86.8221 34.6562H89.1149L87.6437 36.1275C86.9191 36.852 86.9191 38.0269 87.6437 38.7516C88.0064 39.1138 88.4811 39.2949 88.9561 39.2949C89.4311 39.2949 89.9057 39.1138 90.2681 38.7515L94.9067 34.1128C95.6313 33.3882 95.6313 32.2133 94.9067 31.4886L90.2681 26.8499C89.5433 26.1254 88.3688 26.1254 87.6439 26.8499C86.9193 27.5745 86.9193 28.7494 87.6439 29.4741L89.1151 30.9453H86.8223C83.6368 30.9453 80.966 29.5172 80.9447 29.5055C80.8037 29.4279 77.4458 27.6055 73.2773 27.6055C71.4004 27.6055 69.6891 27.9751 68.3604 28.3885V27.4199C68.3604 26.3957 67.5291 25.5645 66.5049 25.5645H64.6494V7.00977C64.6494 6.52178 64.4509 6.04307 64.1058 5.69795C63.7606 5.35283 63.2819 5.1543 62.7939 5.1543H33.1064C32.6185 5.1543 32.1397 5.35283 31.7946 5.69795C31.4495 6.04307 31.251 6.52178 31.251 7.00977V25.5645H29.3955C28.3713 25.5645 27.54 26.3957 27.54 27.4199V29.9383C26.4802 30.3631 24.6572 30.9453 22.623 30.9453C19.4376 30.9453 16.7668 29.5172 16.7455 29.5055C16.6045 29.4279 13.2466 27.6055 9.07813 27.6055C4.90963 27.6055 1.55179 29.4279 1.41077 29.5055C0.797169 29.8434 0.449639 30.4768 0.450196 31.1309C0.450567 31.4314 0.525714 31.7365 0.680089 32.0191C1.1703 32.9164 2.29694 33.2466 3.19555 32.759C3.2219 32.7446 5.89266 31.3164 9.07813 31.3164C12.2636 31.3164 14.9344 32.7446 14.9557 32.7562C15.0967 32.8338 18.4546 34.6562 22.623 34.6562C24.5 34.6562 26.2113 34.2866 27.54 33.8732V46.6376C26.4802 47.0623 24.6572 47.6445 22.623 47.6445C19.4376 47.6445 16.7668 46.2164 16.7455 46.2047C16.6045 46.1271 13.2466 44.3047 9.07813 44.3047C4.90963 44.3047 1.55179 46.1271 1.41077 46.2047C0.797169 46.5426 0.449639 47.176 0.450196 47.8301C0.450567 48.1307 0.525714 48.4357 0.680089 48.7183C1.1703 49.6156 2.29694 49.9459 3.19555 49.4583C3.2219 49.4438 5.89266 48.0156 9.07813 48.0156C12.2636 48.0156 14.9344 49.4438 14.9557 49.4555C15.0967 49.533 18.4546 51.3555 22.623 51.3555C24.5 51.3555 26.2113 50.9859 27.54 50.5725V63.3368C26.4802 63.7615 24.6572 64.3438 22.623 64.3438C19.4376 64.3438 16.7668 62.9156 16.7455 62.9039C16.6045 62.8263 13.2466 61.0039 9.07813 61.0039C4.90963 61.0039 1.55179 62.8263 1.41077 62.9039C0.80255 63.2386 0.450196 63.8374 0.450196 64.5119C0.450196 64.8182 0.522745 65.1295 0.680089 65.4177C1.1703 66.315 2.29694 66.6451 3.19555 66.1577C3.2219 66.143 5.89266 64.7148 9.07813 64.7148C12.2636 64.7148 14.9344 66.143 14.9557 66.1547C15.0967 66.2322 18.4546 68.0547 22.623 68.0547C24.5 68.0547 26.2113 67.6851 27.54 67.2717V68.2402C27.54 69.2645 28.3713 70.0957 29.3955 70.0957H31.251V88.6504C31.251 89.1384 31.4495 89.6171 31.7946 89.9622C32.1397 90.3073 32.6185 90.5059 33.1064 90.5059H62.7939C63.2819 90.5059 63.7606 90.3073 64.1058 89.9622C64.4509 89.6171 64.6494 89.1384 64.6494 88.6504V86.7949C64.6494 85.7726 63.8163 84.9395 62.7939 84.9395C61.7716 84.9395 60.9385 85.7726 60.9385 86.7949H34.9619V70.0957H36.8174C37.8416 70.0957 38.6729 69.2645 38.6729 68.2402V27.4199C38.6729 26.3957 37.8416 25.5645 36.8174 25.5645H34.9619V8.86523H60.9385V25.5645H59.083C58.0588 25.5645 57.2275 26.3957 57.2275 27.4199V68.2402C57.2275 69.2645 58.0588 70.0957 59.083 70.0957H60.9385C60.9385 71.1181 61.7716 71.9512 62.7939 71.9512C63.8182 71.9512 64.6494 71.1181 64.6494 70.0957H66.5049C67.5291 70.0957 68.3604 69.2645 68.3604 68.2402V65.7218C69.4202 65.2971 71.2432 64.7148 73.2773 64.7148C76.4628 64.7148 79.1336 66.143 79.1549 66.1547C79.2959 66.2322 82.6538 68.0547 86.8223 68.0547H89.1151L87.6441 69.5259C86.9195 70.2505 86.9195 71.4253 87.6441 72.1501C88.0064 72.5123 88.4811 72.6934 88.9561 72.6934C89.4311 72.6934 89.9057 72.5123 90.2681 72.1499L94.9067 67.5112C95.6313 66.7867 95.6313 65.6118 94.9067 64.887L90.2681 60.2484C89.5433 59.5238 88.3688 59.5238 87.6439 60.2484C86.9193 60.9729 86.9193 62.1478 87.6439 62.8726L89.1151 64.3438H86.8221C83.6366 64.3438 80.9659 62.9156 80.9445 62.9039C80.8035 62.8263 77.4457 61.0039 73.2772 61.0039C71.4002 61.0039 69.6889 61.3735 68.3602 61.7869V49.0226C69.42 48.5979 71.243 48.0156 73.2772 48.0156C76.4626 48.0156 79.1334 49.4438 79.1547 49.4555C79.2957 49.533 82.6536 51.3555 86.8221 51.3555H89.1149L87.6439 52.8267C86.9193 53.5512 86.9193 54.7261 87.6441 55.4507ZM34.9619 66.3848H31.251V29.2754H34.9619V66.3848ZM64.6494 66.3848H60.9385V29.2754H64.6494V66.3848Z" fill="#F8B232"/>
</g>
</g>
<defs>
<clipPath id="clip0_26_3220">
<rect width="95" height="95" fill="white" transform="translate(0.450195 0.330078)"/>
</clipPath>
</defs>
</svg>
