<svg width="96" height="96" viewBox="0 0 96 96" fill="none" xmlns="http://www.w3.org/2000/svg">
<g id="SVG" clip-path="url(#clip0_26_3311)">
<path id="Vector" d="M83.1902 54.5921C77.0701 51.0225 69.0104 48.4604 60.1193 47.2181C60.4317 46.9434 60.7376 46.6592 61.0347 46.3621C67.5064 39.8897 68.4472 29.7136 63.2715 22.1649L49.1199 1.5257C48.7742 1.02124 48.2016 0.719727 47.5898 0.719727C46.9781 0.719727 46.4055 1.02124 46.0598 1.5257L31.9082 22.1642C26.7325 29.7136 27.6725 39.8897 34.1449 46.3614C34.4421 46.6585 34.748 46.9434 35.0604 47.2181C26.1701 48.4604 18.1104 51.0225 11.9902 54.5914C4.31611 59.0662 0.0898438 64.9081 0.0898438 71.042C0.0898438 77.8775 5.20181 84.1977 14.4842 88.8393C23.3586 93.2765 35.1154 95.7197 47.5898 95.7197C60.0642 95.7197 71.8211 93.2765 80.6955 88.8393C89.9779 84.1977 95.0898 77.8775 95.0898 71.042C95.0898 64.9088 90.8636 59.067 83.1902 54.5921ZM34.969 24.2632L47.5898 5.85633L60.2107 24.2632C64.3768 30.3391 63.6194 38.5293 58.4103 43.7383C55.5205 46.6281 51.6777 48.2205 47.5898 48.2205C43.502 48.2205 39.6592 46.6281 36.7694 43.7376C31.5603 38.5285 30.8029 30.3384 34.969 24.2632ZM79.0357 85.5197C70.6672 89.7047 59.4996 92.0088 47.5898 92.0088C35.6801 92.0088 24.5125 89.7047 16.144 85.5197C8.18433 81.5399 3.80078 76.3982 3.80078 71.042C3.80078 60.9993 19.3766 52.143 40.0716 50.3905C42.4148 51.4001 44.9617 51.9307 47.5898 51.9307C50.2179 51.9307 52.7649 51.4001 55.1081 50.3905C75.8031 52.143 91.3789 61 91.3789 71.042C91.3789 76.3982 86.9954 81.5399 79.0357 85.5197Z" fill="#10417A"/>
<path id="Vector_2" d="M67.6898 59.5835C62.2901 57.1895 55.1524 55.8711 47.5899 55.8711C40.0274 55.8711 32.8897 57.1895 27.49 59.5835C21.6097 62.1906 18.3721 65.8392 18.3721 69.8574C18.3721 76.5777 27.4588 82.06 40.9834 83.4995C41.0501 83.5067 41.1161 83.5103 41.182 83.5103C42.1184 83.5103 42.923 82.8029 43.0244 81.8513C43.1332 80.8322 42.3953 79.9183 41.3763 79.8095C35.7461 79.2101 30.6747 77.7866 27.0971 75.8C23.8638 74.0047 22.083 71.8941 22.083 69.8581C22.083 64.9977 32.5584 59.582 47.5899 59.582C62.6214 59.582 73.0968 64.9977 73.0968 69.8581C73.0968 74.1772 65.198 78.41 54.7233 79.7037C53.7064 79.8298 52.9838 80.7561 53.1092 81.773C53.2353 82.7899 54.1623 83.5111 55.1785 83.3864C61.1471 82.6493 66.3425 81.0852 70.2034 78.8637C74.5239 76.3776 76.8077 73.2632 76.8077 69.8581C76.8077 65.8392 73.5701 62.1906 67.6898 59.5835Z" fill="#10417A"/>
<path id="Vector_3" d="M47.671 80.1338H47.5898C46.565 80.1338 45.7344 80.9644 45.7344 81.9893C45.7344 83.0141 46.565 83.8447 47.5898 83.8447H47.671C48.6959 83.8447 49.5265 83.0141 49.5265 81.9893C49.5265 80.9644 48.6959 80.1338 47.671 80.1338Z" fill="#10417A"/>
<path id="Vector_4" d="M59.1564 69.1249C59.1564 65.3429 53.1602 63.6201 47.5894 63.6201C42.0187 63.6201 36.0225 65.3429 36.0225 69.1249C36.0225 72.9069 42.0187 74.629 47.5894 74.629C53.1602 74.629 59.1564 72.9069 59.1564 69.1249ZM47.5894 67.3311C52.086 67.3311 54.7272 68.4929 55.3556 69.1249C54.7272 69.7562 52.086 70.9181 47.5894 70.9181C43.0928 70.9181 40.4517 69.7562 39.8233 69.1249C40.4517 68.4929 43.0928 67.3311 47.5894 67.3311Z" fill="#10417A"/>
<path id="Vector_5" d="M47.5898 44.5092C50.6862 44.5092 53.5969 43.3039 55.7865 41.1143C59.7323 37.1685 60.3056 30.9643 57.1506 26.3618C56.5707 25.5167 55.4154 25.3015 54.5703 25.8813C53.7252 26.4611 53.5099 27.6157 54.0898 28.4608C56.2352 31.5898 55.8452 35.8073 53.162 38.4905C51.674 39.9785 49.6946 40.7983 47.5898 40.7983C46.565 40.7983 45.7344 41.6289 45.7344 42.6537C45.7344 43.6786 46.565 44.5092 47.5898 44.5092Z" fill="#10417A"/>
<path id="Vector_6" d="M39.4545 41.174C39.8162 41.5291 40.2859 41.7067 40.7555 41.7067C41.2353 41.7067 41.7151 41.5219 42.0783 41.1522C42.7973 40.4224 42.7878 39.2475 42.0572 38.5285L42.0181 38.4893C41.2933 37.7653 40.1184 37.7653 39.3936 38.4893C38.6696 39.2141 38.6696 40.389 39.3936 41.1138L39.4545 41.174Z" fill="#10417A"/>
</g>
<defs>
<clipPath id="clip0_26_3311">
<rect width="95" height="95" fill="white" transform="translate(0.0898438 0.719727)"/>
</clipPath>
</defs>
</svg>
