<svg width="96" height="96" viewBox="0 0 96 96" fill="none" xmlns="http://www.w3.org/2000/svg">
<g id="SVG" clip-path="url(#clip0_26_3248)">
<g id="Group">
<g id="Group_2">
<path id="Vector" d="M53.2309 64.8857C54.2559 64.8857 55.0866 64.0548 55.0866 63.0299V45.0724C55.0866 44.0477 54.2557 43.2168 53.2309 43.2168C52.2059 43.2168 51.3751 44.0477 51.3751 45.0724V51.8874H42.6597V45.0724C42.6597 44.0477 41.8289 43.2168 40.8041 43.2168C39.7791 43.2168 38.9482 44.0477 38.9482 45.0724V63.0299C38.9482 64.0546 39.7791 64.8857 40.8041 64.8857C41.829 64.8857 42.6597 64.0548 42.6597 63.0299V55.5989H51.3751V63.0299C51.3751 64.0548 52.2059 64.8857 53.2309 64.8857Z" fill="#10417A"/>
<path id="Vector_2" d="M26.6513 49.1172C25.0291 49.1172 23.5189 49.6024 22.2552 50.4331C22.0238 49.6716 21.3169 49.1172 20.4799 49.1172C19.4549 49.1172 18.624 49.9481 18.624 50.9728V71.057C18.624 72.0818 19.4549 72.9126 20.4799 72.9126C21.5048 72.9126 22.3355 72.0818 22.3355 71.057V63.9077C23.5829 64.7065 25.0634 65.172 26.6513 65.172C31.0777 65.172 34.6788 61.5709 34.6788 57.1447C34.6788 52.7183 31.0777 49.1172 26.6513 49.1172ZM26.6513 61.4603C24.2715 61.4603 22.3355 59.5243 22.3355 57.1445C22.3355 54.7647 24.2717 52.8287 26.6513 52.8287C29.0312 52.8287 30.9673 54.7647 30.9673 57.1445C30.9673 59.5243 29.0312 61.4603 26.6513 61.4603Z" fill="#10417A"/>
<path id="Vector_3" d="M92.9581 26.474C92.7505 14.1863 82.3658 3.98034 70.0796 3.98034C63.5253 3.98034 57.4149 6.79453 53.1527 11.4596C53.1497 11.4625 53.1466 11.4647 53.1438 11.4677C53.0894 11.5221 53.0405 11.5798 52.9943 11.6388C51.9251 12.8337 50.9759 14.1463 50.1699 15.562L43.629 4.31284C42.3207 2.06271 39.9861 0.719727 37.3836 0.719727C34.7813 0.719727 32.4468 2.0629 31.1387 4.31266L7.77017 44.504C7.76924 44.5058 7.75978 44.5218 7.75866 44.5234L7.73324 44.5671C7.72285 44.5849 7.71283 44.6025 7.703 44.6205C4.60251 50.0444 3.05616 56.235 3.23113 62.5261C3.73193 80.5314 18.8891 95.467 36.9001 95.7162C52.4495 95.9377 66.5676 85.1998 70.4639 70.1287C70.7205 69.1366 70.1239 68.1241 69.1316 67.8675C68.1397 67.612 67.1272 68.2076 66.8706 69.1997C63.396 82.6398 50.8113 92.193 36.9515 92.0051C20.9063 91.783 7.38757 78.4667 6.94133 62.4228C6.78491 56.7998 8.16928 51.269 10.9449 46.4285C10.9495 46.4205 10.954 46.4123 10.9584 46.4043C10.9597 46.4019 10.961 46.4001 10.9616 46.3991L34.3473 6.17814C34.9834 5.08416 36.1186 4.43104 37.3838 4.43104C38.6491 4.43104 39.7842 5.08416 40.4205 6.17814L48.7321 20.4729C48.7352 20.4786 48.7376 20.4846 48.741 20.4903L58.3593 37.0307C58.3599 37.0316 58.3606 37.0326 58.3612 37.0335L63.663 46.1518C63.676 46.1765 63.6895 46.201 63.7036 46.2251C65.1023 48.6211 66.1659 51.2043 66.8646 53.9025C67.1216 54.8946 68.1343 55.4915 69.1263 55.2338C70.1184 54.9768 70.7145 53.9643 70.4576 52.9721C69.6803 49.9707 68.5006 47.0955 66.9505 44.4255C66.9383 44.4023 66.9255 44.3791 66.9121 44.3561L63.1895 37.9538H86.7493C88.9527 37.9538 90.9234 36.5722 91.6529 34.5158C91.6529 34.5154 91.6531 34.5152 91.6531 34.5149C92.5662 31.9367 93.0054 29.2314 92.9581 26.474ZM67.763 30.6071C67.9783 30.2324 68.269 29.987 68.6097 29.7337L74.5051 25.6071L72.1364 32.4002C71.5192 34.0083 69.5972 34.8167 68.1967 33.5073C67.4047 32.767 67.2224 31.5472 67.763 30.6071ZM86.7489 34.2419H75.4015C75.4823 34.056 75.5558 33.8673 75.6221 33.676L79.3937 22.8592C79.7312 21.8914 79.4089 20.8254 78.5916 20.207C77.7744 19.5887 76.6611 19.5678 75.821 20.1556L66.4364 26.7247C64.0384 28.3978 63.0847 31.535 64.2688 34.2421H61.0312L52.4025 19.4021C52.9881 18.0175 53.7285 16.7269 54.5959 15.5444L56.0578 17.0063C56.4202 17.3685 56.8952 17.5498 57.37 17.5498C57.8448 17.5498 58.3198 17.3685 58.6822 17.0063C59.4067 16.2815 59.4067 15.1065 58.6822 14.3817L57.0754 12.7749C60.1758 9.92155 64.1831 8.11229 68.505 7.75863V10.7389C68.505 11.7637 69.3359 12.5945 70.3609 12.5945C71.3858 12.5945 72.2165 11.7637 72.2165 10.7389V7.81133C76.2477 8.26313 80.0162 9.98687 83.0406 12.7766L81.4352 14.3819C80.7107 15.1067 80.7107 16.2817 81.4352 17.0065C81.7976 17.3687 82.2726 17.5499 82.7474 17.5499C83.2224 17.5499 83.6973 17.3687 84.0596 17.0065L85.5227 15.5434C87.7945 18.6207 89.0896 22.2849 89.2351 26.1345H87.2987C86.2738 26.1345 85.4431 26.9653 85.4431 27.9901C85.4431 29.0149 86.2739 29.8458 87.2987 29.8458H89.0185C88.8369 31.0121 88.5499 32.1586 88.1543 33.2754C87.9491 33.8534 87.3842 34.2419 86.7489 34.2419Z" fill="#10417A"/>
<path id="Vector_4" d="M71.4073 60.8439C70.7677 59.2842 68.4664 59.3803 67.934 60.9715C67.4024 62.5606 69.1833 63.9859 70.6213 63.1591C71.4168 62.7018 71.76 61.6911 71.4073 60.8439Z" fill="#10417A"/>
</g>
</g>
</g>
<defs>
<clipPath id="clip0_26_3248">
<rect width="95" height="95" fill="white" transform="translate(0.589844 0.719727)"/>
</clipPath>
</defs>
</svg>
