<svg width="96" height="96" viewBox="0 0 96 96" fill="none" xmlns="http://www.w3.org/2000/svg">
<g id="SVG">
<path id="Vector" d="M67.7439 54.2504C67.8187 54.3789 67.9185 54.4912 68.0375 54.5805C68.1564 54.6698 68.292 54.7344 68.4363 54.7705C68.5806 54.8065 68.7307 54.8133 68.8776 54.7904C69.0246 54.7674 69.1655 54.7153 69.292 54.637C69.4184 54.5587 69.528 54.4559 69.614 54.3346C69.7001 54.2133 69.761 54.076 69.7931 53.9307C69.8252 53.7855 69.8279 53.6353 69.801 53.489C69.7741 53.3427 69.7181 53.2033 69.6365 53.079C67.7333 49.9989 65.3006 47.2794 62.4506 45.0463C62.3357 44.9548 62.2039 44.8869 62.0626 44.8465C61.9214 44.8062 61.7735 44.7942 61.6276 44.8112C61.4817 44.8283 61.3407 44.874 61.2125 44.9459C61.0844 45.0177 60.9717 45.1141 60.881 45.2297C60.7903 45.3453 60.7234 45.4776 60.6841 45.6192C60.6448 45.7607 60.6339 45.9086 60.6521 46.0544C60.6702 46.2002 60.717 46.3409 60.7898 46.4685C60.8625 46.5961 60.9598 46.7081 61.0761 46.7979C63.7205 48.8697 65.9778 51.3927 67.7439 54.2504Z" fill="#10417A"/>
<path id="Vector_2" d="M56.8582 44.0518C57.119 44.1904 57.4242 44.2196 57.7066 44.1332C57.989 44.0467 58.2254 43.8516 58.364 43.5908C58.5025 43.33 58.5318 43.0248 58.4454 42.7425C58.3589 42.4601 58.1638 42.2236 57.903 42.085C57.405 41.8204 56.8929 41.5655 56.3815 41.33C56.2485 41.2663 56.1041 41.2296 55.9567 41.2221C55.8093 41.2147 55.662 41.2366 55.5231 41.2866C55.3843 41.3366 55.2568 41.4137 55.1481 41.5134C55.0393 41.6131 54.9515 41.7334 54.8896 41.8674C54.8278 42.0013 54.7932 42.1463 54.7878 42.2937C54.7825 42.4412 54.8065 42.5882 54.8585 42.7263C54.9105 42.8644 54.9894 42.9907 55.0907 43.0981C55.192 43.2054 55.3136 43.2915 55.4484 43.3514C55.9219 43.5711 56.3967 43.8065 56.8582 44.0518Z" fill="#10417A"/>
<path id="Vector_3" d="M29.2949 63.0508C28.7746 63.0505 28.2659 63.2046 27.8331 63.4935C27.4004 63.7824 27.063 64.1931 26.8637 64.6737C26.6644 65.1544 26.6121 65.6833 26.7135 66.1937C26.8148 66.704 27.0653 67.1729 27.4331 67.5409C27.8009 67.9089 28.2696 68.1595 28.7799 68.2611C29.2902 68.3627 29.8192 68.3107 30.2999 68.1117C30.7807 67.9126 31.1916 67.5755 31.4807 67.1428C31.7698 66.7102 31.9241 66.2016 31.9241 65.6813C31.9235 64.984 31.6463 64.3155 31.1534 63.8223C30.6605 63.3292 29.9921 63.0517 29.2949 63.0508ZM29.2949 66.0852C29.2149 66.0855 29.1367 66.062 29.0701 66.0178C29.0035 65.9735 28.9515 65.9106 28.9208 65.8368C28.89 65.763 28.8818 65.6817 28.8973 65.6033C28.9127 65.5248 28.9511 65.4527 29.0075 65.3961C29.0639 65.3395 29.1359 65.3009 29.2143 65.2852C29.2927 65.2695 29.374 65.2774 29.4479 65.308C29.5217 65.3385 29.5849 65.3903 29.6294 65.4567C29.6738 65.5232 29.6975 65.6013 29.6975 65.6813C29.6976 65.7882 29.6553 65.8908 29.5798 65.9666C29.5043 66.0423 29.4018 66.085 29.2949 66.0852Z" fill="#10417A"/>
<path id="Vector_4" d="M42.6846 70.5825C42.6849 71.1696 42.8592 71.7435 43.1856 72.2315C43.512 72.7195 43.9758 73.0998 44.5183 73.3242C45.0608 73.5487 45.6576 73.6073 46.2334 73.4926C46.8092 73.3779 47.338 73.095 47.7531 72.6798C48.1681 72.2645 48.4507 71.7355 48.5651 71.1597C48.6796 70.5838 48.6207 69.987 48.3959 69.4446C48.1712 68.9022 47.7907 68.4387 47.3025 68.1125C46.8143 67.7864 46.2404 67.6123 45.6533 67.6123C44.866 67.6134 44.1113 67.9267 43.5548 68.4836C42.9982 69.0404 42.6853 69.7953 42.6846 70.5825ZM45.6533 69.8389C45.8005 69.8385 45.9445 69.8819 46.0671 69.9634C46.1896 70.045 46.2852 70.161 46.3418 70.2969C46.3983 70.4329 46.4133 70.5825 46.3847 70.7269C46.3562 70.8713 46.2855 71.004 46.1815 71.1082C46.0775 71.2124 45.945 71.2834 45.8006 71.3122C45.6563 71.341 45.5066 71.3263 45.3706 71.2701C45.2346 71.2138 45.1183 71.1184 45.0365 70.996C44.9547 70.8736 44.9111 70.7297 44.9111 70.5825C44.9112 70.3856 44.9893 70.1967 45.1285 70.0573C45.2676 69.9178 45.4564 69.8393 45.6533 69.8389Z" fill="#10417A"/>
<path id="Vector_5" d="M37.0075 74.6377C36.337 74.6373 35.6816 74.8357 35.124 75.2079C34.5663 75.5801 34.1316 76.1092 33.8748 76.7285C33.618 77.3477 33.5505 78.0293 33.6811 78.6868C33.8116 79.3444 34.1343 79.9485 34.6082 80.4227C35.0821 80.8969 35.686 81.2199 36.3435 81.3508C37.001 81.4818 37.6825 81.4148 38.3019 81.1583C38.9213 80.9018 39.4508 80.4674 39.8233 79.91C40.1958 79.3527 40.3946 78.6973 40.3946 78.0269C40.3939 77.1286 40.0368 76.2673 39.4018 75.6319C38.7668 74.9965 37.9057 74.639 37.0075 74.6377ZM37.0075 79.1893C36.7774 79.1898 36.5524 79.1219 36.361 78.9944C36.1695 78.8669 36.0201 78.6854 35.9318 78.473C35.8435 78.2606 35.8202 78.0267 35.8649 77.8011C35.9095 77.5754 36.0201 77.3681 36.1826 77.2053C36.3452 77.0425 36.5524 76.9315 36.778 76.8865C37.0036 76.8415 37.2374 76.8645 37.45 76.9524C37.6625 77.0404 37.8442 77.1894 37.9721 77.3807C38.0999 77.572 38.1681 77.7969 38.168 78.0269C38.1679 78.3348 38.0456 78.6301 37.8281 78.8481C37.6105 79.066 37.3154 79.1887 37.0075 79.1893Z" fill="#10417A"/>
<path id="Vector_6" d="M65.6274 73.9053C66.1853 73.9056 66.7307 73.7404 67.1947 73.4307C67.6587 73.121 68.0204 72.6806 68.2341 72.1653C68.4478 71.65 68.5039 71.0828 68.3952 70.5357C68.2866 69.9885 68.0181 69.4858 67.6237 69.0912C67.2293 68.6967 66.7268 68.4279 66.1797 68.3189C65.6325 68.21 65.0654 68.2658 64.55 68.4792C64.0345 68.6926 63.594 69.0541 63.284 69.5179C62.974 69.9818 62.8086 70.5271 62.8086 71.085C62.8092 71.8325 63.1063 72.5493 63.6348 73.0781C64.1632 73.6068 64.8799 73.9043 65.6274 73.9053ZM65.6274 70.4912C65.7449 70.4909 65.8599 70.5255 65.9577 70.5906C66.0555 70.6556 66.1319 70.7482 66.177 70.8567C66.2222 70.9652 66.2342 71.0846 66.2114 71.1999C66.1887 71.3152 66.1323 71.4211 66.0493 71.5043C65.9663 71.5875 65.8605 71.6442 65.7453 71.6672C65.6301 71.6902 65.5106 71.6786 65.402 71.6337C65.2935 71.5888 65.2006 71.5127 65.1353 71.415C65.07 71.3173 65.0352 71.2025 65.0352 71.085C65.0352 70.9278 65.0976 70.777 65.2086 70.6658C65.3196 70.5545 65.4702 70.4918 65.6274 70.4914V70.4912Z" fill="#10417A"/>
<path id="Vector_7" d="M53.7354 84.2391C54.4808 84.2394 55.2095 84.0187 55.8295 83.6049C56.4495 83.191 56.9328 82.6026 57.2183 81.914C57.5038 81.2255 57.5787 80.4677 57.4335 79.7366C57.2883 79.0054 56.9295 78.3338 56.4026 77.8066C55.8756 77.2793 55.2041 76.9203 54.4731 76.7747C53.742 76.6291 52.9842 76.7037 52.2955 76.9888C51.6068 77.274 51.0181 77.757 50.604 78.3768C50.1898 78.9965 49.9688 79.7252 49.9688 80.4706C49.9696 81.4695 50.3666 82.4272 51.0728 83.1337C51.7789 83.8402 52.7365 84.2377 53.7354 84.2391ZM53.7354 78.9287C54.0404 78.9283 54.3387 79.0185 54.5925 79.1877C54.8463 79.3569 55.0442 79.5976 55.1612 79.8793C55.2782 80.161 55.309 80.4711 55.2497 80.7703C55.1904 81.0695 55.0437 81.3444 54.8281 81.5602C54.6126 81.7761 54.3379 81.9231 54.0387 81.9827C53.7396 82.0424 53.4294 82.012 53.1476 81.8953C52.8657 81.7787 52.6248 81.581 52.4553 81.3274C52.2858 81.0738 52.1953 80.7756 52.1953 80.4706C52.1955 80.0621 52.3578 79.6703 52.6465 79.3812C52.9352 79.0921 53.3268 78.9294 53.7354 78.9287Z" fill="#10417A"/>
<path id="Vector_8" d="M48.1268 89.4902C48.0021 89.4902 48.2515 89.4921 48.1268 89.4902V89.4902Z" fill="#10417A"/>
<path id="Vector_9" d="M25.3316 56.9999C24.5803 57.0612 23.8328 57.1626 23.0924 57.3039C22.8719 57.3462 22.6693 57.4541 22.5112 57.6137C22.3532 57.7732 22.247 57.9767 22.2068 58.1977C21.5418 61.8225 21.6396 65.5462 22.4941 69.1311C23.3485 72.7161 24.9408 76.0836 27.1693 79.0188C29.3979 81.954 32.2137 84.3925 35.4373 86.1787C38.6609 87.9649 42.2213 89.0596 45.8916 89.393C49.5618 89.7263 53.2613 89.2911 56.7539 88.1149C60.2466 86.9387 63.4557 85.0474 66.1766 82.5618C68.8975 80.0761 71.0704 77.0506 72.5568 73.6783C74.0432 70.306 74.8103 66.6608 74.8093 62.9755C74.8093 62.3092 74.7832 61.6232 74.7312 60.9369C74.7171 60.7501 74.6561 60.5699 74.5538 60.413C74.4516 60.2561 74.3114 60.1275 74.1463 60.0391C73.9811 59.9508 73.7963 59.9055 73.6091 59.9075C73.4218 59.9096 73.238 59.9588 73.0748 60.0507C71.0043 61.2224 68.8359 62.2118 66.594 63.0078C63.0768 64.2465 59.5928 64.8746 56.2383 64.8746C52.1818 64.8997 48.1848 63.8987 44.619 61.9646C39.8415 59.3685 32.6161 56.4004 25.3316 56.9999ZM67.3344 65.1074C69.1327 64.4713 70.8863 63.715 72.5833 62.8437V62.9764C72.5934 66.1978 71.9584 69.3886 70.7155 72.3605C69.4727 75.3325 67.6473 78.0255 65.347 80.2807C63.0677 82.5329 60.3637 84.3098 57.3921 85.5085C54.4205 86.7072 51.2404 87.3036 48.0363 87.2633C44.8323 87.2229 41.6682 86.5465 38.7277 85.2734C35.7872 84.0003 33.1289 82.1557 30.9071 79.8469C28.2917 77.1786 26.3312 73.9397 25.1798 70.3852C24.0284 66.8307 23.7175 63.0575 24.2715 59.3625C24.6797 59.302 25.0957 59.2543 25.5147 59.2198C32.2528 58.6649 39.0453 61.4703 43.5565 63.9212C47.4482 66.0336 51.8108 67.1275 56.2387 67.1013C59.8453 67.1006 63.5782 66.43 67.3344 65.1074Z" fill="#10417A"/>
<path id="Vector_10" d="M48.1019 93.6582C47.9548 93.6582 48.2503 93.6602 48.1019 93.6582V93.6582Z" fill="#10417A"/>
<path id="Vector_11" d="M48.1015 93.6587C56.2079 93.6587 64.0539 90.5355 69.8361 84.8335C73.3695 81.3494 76.0057 77.0606 77.5188 72.3346C79.0319 67.6086 79.3768 62.5863 78.5239 57.6978C77.6711 52.8094 75.646 48.2005 72.622 44.266C69.598 40.3316 65.6653 37.1888 61.1609 35.1069C60.2121 34.6726 59.4069 33.9767 58.8398 33.1008C58.2727 32.2249 57.9672 31.2054 57.9592 30.1619V11.0152H58.2342C58.793 11.0152 59.3463 10.9051 59.8626 10.6913C60.3789 10.4774 60.8479 10.164 61.2431 9.76886C61.6382 9.37374 61.9516 8.90465 62.1655 8.38839C62.3793 7.87214 62.4894 7.31881 62.4894 6.76002V6.62624C62.4894 6.06743 62.3793 5.51409 62.1654 4.99782C61.9516 4.48155 61.6381 4.01246 61.243 3.61733C60.8479 3.2222 60.3787 2.90877 59.8625 2.69494C59.3462 2.48111 58.7928 2.37107 58.234 2.37109H38.4024C37.8436 2.37109 37.2903 2.48116 36.7741 2.695C36.2578 2.90884 35.7888 3.22228 35.3936 3.61741C34.9985 4.01254 34.6851 4.48162 34.4713 4.99788C34.2575 5.51414 34.1474 6.06745 34.1475 6.62624V6.76002C34.1475 7.88855 34.5958 8.97087 35.3938 9.76886C36.1918 10.5669 37.2741 11.0152 38.4026 11.0152H38.6776V14.9883C38.6776 15.2835 38.7949 15.5667 39.0037 15.7755C39.2124 15.9843 39.4956 16.1016 39.7909 16.1016C40.0861 16.1016 40.3693 15.9843 40.5781 15.7755C40.7869 15.5667 40.9041 15.2835 40.9041 14.9883V11.0152H55.7327V30.1617C55.7416 31.6302 56.1692 33.0655 56.9653 34.2994C57.7614 35.5333 58.893 36.5146 60.2272 37.1279C66.1323 39.8445 70.9313 44.4983 73.8279 50.3173C76.7245 56.1362 77.5447 62.7706 76.1524 69.1198C74.7601 75.4689 71.239 81.1513 66.1732 85.2242C61.1075 89.2971 54.8015 91.5158 48.3015 91.5121C41.8014 91.5084 35.498 89.2826 30.4368 85.2039C25.3757 81.1252 21.8611 75.4388 20.476 69.0881C19.091 62.7373 19.9187 56.1039 22.822 50.2882C25.7252 44.4726 30.5294 39.8242 36.4377 37.1144C37.7633 36.5082 38.8881 35.5358 39.6795 34.3117C40.471 33.0876 40.8961 31.6628 40.9049 30.2052V24.6367C40.9049 24.3415 40.7876 24.0583 40.5788 23.8495C40.37 23.6407 40.0869 23.5234 39.7916 23.5234C39.4963 23.5234 39.2132 23.6407 39.0044 23.8495C38.7956 24.0583 38.6783 24.3415 38.6783 24.6367V30.2052C38.6703 31.2372 38.3676 32.2454 37.8057 33.1111C37.2438 33.9768 36.4463 34.664 35.507 35.0915C30.3237 37.4767 25.9035 41.2527 22.738 45.9998C18.8537 51.8266 17.0895 58.811 17.7408 65.7834C18.3922 72.7558 21.4195 79.2926 26.3157 84.2991C29.1544 87.2136 32.5394 89.5402 36.2775 91.1462C40.0156 92.7521 44.0334 93.6059 48.1015 93.6587ZM38.4024 8.78953C37.8646 8.78889 37.349 8.57496 36.9688 8.19466C36.5885 7.81436 36.3746 7.29875 36.374 6.76095V6.62717C36.3744 6.08921 36.5881 5.57336 36.9684 5.19286C37.3487 4.81236 37.8645 4.5983 38.4024 4.59766H58.2342C58.7721 4.59825 59.2877 4.81216 59.668 5.19247C60.0483 5.57277 60.2622 6.08841 60.2628 6.62624V6.76002C60.2622 7.29785 60.0483 7.81349 59.668 8.19379C59.2877 8.5741 58.7721 8.78801 58.2342 8.7886L38.4024 8.78953Z" fill="#10417A"/>
</g>
</svg>
