<svg width="96" height="96" viewBox="0 0 96 96" fill="none" xmlns="http://www.w3.org/2000/svg">
<g id="SVG" clip-path="url(#clip0_26_3276)">
<g id="Group">
<path id="Vector" d="M3.25429 48.2197C3.25429 36.2758 7.90544 25.0468 16.3512 16.6012C24.7968 8.15562 36.0258 3.50429 47.9697 3.50429C61.5415 3.50429 74.2239 9.56498 82.7651 20.1324L84.9307 18.3818C75.8582 7.15745 62.3865 0.719727 47.9697 0.719727C35.282 0.719727 23.3536 5.66047 14.3821 14.6321C5.41066 23.6036 0.469727 35.532 0.469727 48.2197C0.469727 67.3107 11.8222 84.4753 29.3913 91.9487L30.4812 89.3863C13.9414 82.3507 3.25429 66.1918 3.25429 48.2197Z" fill="#F8B232"/>
<path id="Vector_2" d="M86.7022 20.7178L84.433 22.3319C89.8313 29.9211 92.6848 38.8729 92.6848 48.2198C92.6848 60.1637 88.0336 71.3927 79.5879 79.8383C71.1423 88.2839 59.9132 92.9352 47.9693 92.9352C42.8316 92.9352 37.7953 92.0718 33.0004 90.3686L32.0684 92.9926C37.1634 94.8022 42.5133 95.7198 47.9693 95.7198C60.6571 95.7198 72.5854 90.7791 81.5569 81.8074C90.5284 72.8359 95.4693 60.9076 95.4693 48.2198C95.4693 38.2913 92.4377 28.7811 86.7022 20.7178Z" fill="#F8B232"/>
<path id="Vector_3" d="M34.5906 11.0166C29.4245 11.0166 25.2217 15.2196 25.2217 20.3855C25.2217 25.5515 29.4245 29.7545 34.5906 29.7545C39.7567 29.7545 43.9596 25.5515 43.9596 20.3855C43.9596 15.2196 39.7565 11.0166 34.5906 11.0166ZM34.5906 26.9697C30.9599 26.9697 28.0062 24.0161 28.0062 20.3854C28.0062 16.7547 30.9599 13.801 34.5906 13.801C38.2213 13.801 41.175 16.7547 41.175 20.3854C41.175 24.0161 38.2211 26.9697 34.5906 26.9697Z" fill="#F8B232"/>
<path id="Vector_4" d="M79.4817 38.5255C79.4817 34.6646 76.3407 31.5234 72.4796 31.5234C68.6185 31.5234 65.4775 34.6646 65.4775 38.5255C65.4775 42.3864 68.6185 45.5276 72.4796 45.5276C76.3407 45.5276 79.4817 42.3864 79.4817 38.5255ZM72.4796 42.743C70.1541 42.743 68.2621 40.8512 68.2621 38.5255C68.2621 36.1998 70.1539 34.308 72.4796 34.308C74.8053 34.308 76.6971 36.1998 76.6971 38.5255C76.6971 40.8512 74.8053 42.743 72.4796 42.743Z" fill="#F8B232"/>
<path id="Vector_5" d="M37.2861 47.4627C37.2861 50.5335 39.7844 53.0318 42.8553 53.0318C45.9261 53.0318 48.4244 50.5335 48.4244 47.4627C48.4244 44.3919 45.9261 41.8936 42.8553 41.8936C39.7844 41.8936 37.2861 44.3919 37.2861 47.4627ZM45.6398 47.4627C45.6398 48.9981 44.3907 50.2472 42.8553 50.2472C41.3199 50.2472 40.0707 48.9981 40.0707 47.4627C40.0707 45.9273 41.3199 44.6781 42.8553 44.6781C44.3907 44.6781 45.6398 45.9271 45.6398 47.4627Z" fill="#F8B232"/>
<path id="Vector_6" d="M52.2703 31.3267C55.3411 31.3267 57.8394 28.8284 57.8394 25.7576C57.8394 22.6868 55.3411 20.1885 52.2703 20.1885C49.1995 20.1885 46.7012 22.6868 46.7012 25.7576C46.7012 28.8284 49.1995 31.3267 52.2703 31.3267ZM52.2703 22.973C53.8057 22.973 55.0549 24.2222 55.0549 25.7576C55.0549 27.293 53.8057 28.5422 52.2703 28.5422C50.7349 28.5422 49.4857 27.293 49.4857 25.7576C49.4857 24.2222 50.7349 22.973 52.2703 22.973Z" fill="#F8B232"/>
<path id="Vector_7" d="M50.8779 38.5662C50.8779 41.637 53.3762 44.1353 56.4471 44.1353C59.5179 44.1353 62.0162 41.637 62.0162 38.5662C62.0162 35.4954 59.5179 32.9971 56.4471 32.9971C53.3762 32.9971 50.8779 35.4954 50.8779 38.5662ZM59.2316 38.5662C59.2316 40.1016 57.9825 41.3508 56.4471 41.3508C54.9116 41.3508 53.6625 40.1016 53.6625 38.5662C53.6625 37.0308 54.9116 35.7816 56.4471 35.7816C57.9825 35.7816 59.2316 37.0308 59.2316 38.5662Z" fill="#F8B232"/>
<path id="Vector_8" d="M70.0955 49.6123C67.0247 49.6123 64.5264 52.1106 64.5264 55.1814C64.5264 58.2522 67.0247 60.7506 70.0955 60.7506C73.1663 60.7506 75.6646 58.2522 75.6646 55.1814C75.6646 52.1106 73.1663 49.6123 70.0955 49.6123ZM70.0955 57.966C68.5601 57.966 67.3109 56.7168 67.3109 55.1814C67.3109 53.646 68.5601 52.3969 70.0955 52.3969C71.6309 52.3969 72.8801 53.646 72.8801 55.1814C72.8801 56.7168 71.6309 57.966 70.0955 57.966Z" fill="#F8B232"/>
<path id="Vector_9" d="M89.4166 49.0857C89.4166 46.0149 86.9183 43.5166 83.8474 43.5166C80.7766 43.5166 78.2783 46.0149 78.2783 49.0857C78.2783 52.1565 80.7766 54.6549 83.8474 54.6549C86.9183 54.6549 89.4166 52.1565 89.4166 49.0857ZM83.8474 51.8703C82.312 51.8703 81.0629 50.6211 81.0629 49.0857C81.0629 47.5503 82.312 46.3012 83.8474 46.3012C85.3829 46.3012 86.632 47.5503 86.632 49.0857C86.632 50.6211 85.3829 51.8703 83.8474 51.8703Z" fill="#F8B232"/>
<path id="Vector_10" d="M81.3846 69.1041C84.4554 69.1041 86.9537 66.6058 86.9537 63.5349C86.9537 60.4641 84.4554 57.9658 81.3846 57.9658C78.3137 57.9658 75.8154 60.4641 75.8154 63.5349C75.8154 66.6058 78.3137 69.1041 81.3846 69.1041ZM81.3846 60.7504C82.92 60.7504 84.1691 61.9995 84.1691 63.5349C84.1691 65.0704 82.92 66.3195 81.3846 66.3195C79.8491 66.3195 78.6 65.0704 78.6 63.5349C78.6 61.9995 79.8491 60.7504 81.3846 60.7504Z" fill="#F8B232"/>
<path id="Vector_11" d="M58.2105 57.9539C58.2105 54.8831 55.7122 52.3848 52.6414 52.3848C49.5706 52.3848 47.0723 54.8831 47.0723 57.9539C47.0723 61.0247 49.5706 63.523 52.6414 63.523C55.7122 63.523 58.2105 61.0247 58.2105 57.9539ZM52.6414 60.7385C51.106 60.7385 49.8568 59.4893 49.8568 57.9539C49.8568 56.4185 51.106 55.1693 52.6414 55.1693C54.1768 55.1693 55.426 56.4185 55.426 57.9539C55.426 59.4893 54.1766 60.7385 52.6414 60.7385Z" fill="#F8B232"/>
<path id="Vector_12" d="M50.7547 89.4312C53.8255 89.4312 56.3238 86.9329 56.3238 83.8621C56.3238 80.7913 53.8255 78.293 50.7547 78.293C47.6839 78.293 45.1855 80.7913 45.1855 83.8621C45.1855 86.9329 47.6839 89.4312 50.7547 89.4312ZM50.7547 81.0775C52.2901 81.0775 53.5392 82.3267 53.5392 83.8621C53.5392 85.3975 52.2901 86.6467 50.7547 86.6467C49.2193 86.6467 47.9701 85.3975 47.9701 83.8621C47.9701 82.3267 49.2193 81.0775 50.7547 81.0775Z" fill="#F8B232"/>
<path id="Vector_13" d="M32.5349 85.7994C35.6058 85.7994 38.1041 83.3011 38.1041 80.2303C38.1041 77.1594 35.6058 74.6611 32.5349 74.6611C29.4641 74.6611 26.9658 77.1594 26.9658 80.2303C26.9658 83.3011 29.4643 85.7994 32.5349 85.7994ZM32.5349 77.4457C34.0704 77.4457 35.3195 78.6949 35.3195 80.2303C35.3195 81.7657 34.0704 83.0148 32.5349 83.0148C30.9995 83.0148 29.7504 81.7657 29.7504 80.2303C29.7504 78.6949 30.9995 77.4457 32.5349 77.4457Z" fill="#F8B232"/>
<path id="Vector_14" d="M42.8553 76.0533C45.9261 76.0533 48.4244 73.555 48.4244 70.4842C48.4244 67.4133 45.9261 64.915 42.8553 64.915C39.7844 64.915 37.2861 67.4133 37.2861 70.4842C37.2861 73.555 39.7844 76.0533 42.8553 76.0533ZM42.8553 67.6996C44.3907 67.6996 45.6398 68.9488 45.6398 70.4842C45.6398 72.0196 44.3907 73.2687 42.8553 73.2687C41.3199 73.2687 40.0707 72.0196 40.0707 70.4842C40.0707 68.9488 41.3199 67.6996 42.8553 67.6996Z" fill="#F8B232"/>
<path id="Vector_15" d="M29.3445 42.6627C32.4153 42.6627 34.9136 40.1644 34.9136 37.0935C34.9136 34.0227 32.4153 31.5244 29.3445 31.5244C26.2737 31.5244 23.7754 34.0227 23.7754 37.0935C23.7754 40.1644 26.2737 42.6627 29.3445 42.6627ZM29.3445 34.309C30.8799 34.309 32.1291 35.5581 32.1291 37.0935C32.1291 38.6289 30.8799 39.8781 29.3445 39.8781C27.8091 39.8781 26.56 38.6289 26.56 37.0935C26.56 35.5581 27.8091 34.309 29.3445 34.309Z" fill="#F8B232"/>
<path id="Vector_16" d="M19.9078 34.2967C19.9078 31.2258 17.4095 28.7275 14.3387 28.7275C11.2678 28.7275 8.76953 31.2258 8.76953 34.2967C8.76953 37.3675 11.2678 39.8658 14.3387 39.8658C17.4095 39.8658 19.9078 37.3675 19.9078 34.2967ZM11.5541 34.2967C11.5541 32.7613 12.8032 31.5121 14.3387 31.5121C15.8741 31.5121 17.1232 32.7613 17.1232 34.2967C17.1232 35.8321 15.8741 37.0812 14.3387 37.0812C12.8032 37.0812 11.5541 35.8321 11.5541 34.2967Z" fill="#F8B232"/>
<path id="Vector_17" d="M52.6414 16.1968C55.7122 16.1968 58.2105 13.6985 58.2105 10.6277C58.2105 7.5569 55.7122 5.05859 52.6414 5.05859C49.5706 5.05859 47.0723 7.5569 47.0723 10.6277C47.0723 13.6985 49.5706 16.1968 52.6414 16.1968ZM52.6414 7.84316C54.1768 7.84316 55.426 9.09231 55.426 10.6277C55.426 12.1631 54.1768 13.4123 52.6414 13.4123C51.106 13.4123 49.8568 12.1631 49.8568 10.6277C49.8568 9.09231 51.106 7.84316 52.6414 7.84316Z" fill="#F8B232"/>
<path id="Vector_18" d="M65.9187 24.5631C68.9896 24.5631 71.4879 22.0647 71.4879 18.9939C71.4879 15.9231 68.9896 13.4248 65.9187 13.4248C62.8479 13.4248 60.3496 15.9231 60.3496 18.9939C60.3496 22.0647 62.8481 24.5631 65.9187 24.5631ZM65.9187 16.2094C67.4541 16.2094 68.7033 17.4585 68.7033 18.9939C68.7033 20.5293 67.4541 21.7785 65.9187 21.7785C64.3833 21.7785 63.1342 20.5293 63.1342 18.9939C63.1342 17.4585 64.3835 16.2094 65.9187 16.2094Z" fill="#F8B232"/>
<path id="Vector_19" d="M38.0724 57.9545C38.0724 56.8592 37.9232 55.774 37.6289 54.7288L34.9487 55.4832C35.1737 56.2828 35.2879 57.1143 35.2879 57.9545C35.2879 62.9719 31.2059 67.0539 26.1885 67.0539C21.171 67.0539 17.0891 62.9721 17.0891 57.9545C17.0891 52.9369 21.171 48.8551 26.1885 48.8551C29.3656 48.8551 32.2614 50.4707 33.9346 53.1769L36.3031 51.7124C34.1189 48.1797 30.3376 46.0703 26.1886 46.0703C19.6358 46.0703 14.3047 51.4015 14.3047 57.9543C14.3047 64.5071 19.6358 69.8382 26.1886 69.8382C32.7415 69.8382 38.0724 64.5073 38.0724 57.9545Z" fill="#F8B232"/>
<path id="Vector_20" d="M65.8953 83.0152C71.0614 83.0152 75.2642 78.8122 75.2642 73.6463C75.2642 68.4804 71.0614 64.2773 65.8953 64.2773C60.7292 64.2773 56.5264 68.4804 56.5264 73.6463C56.5264 78.8122 60.7292 83.0152 65.8953 83.0152ZM65.8953 67.0621C69.526 67.0621 72.4797 70.0158 72.4797 73.6465C72.4797 77.2772 69.526 80.2308 65.8953 80.2308C62.2646 80.2308 59.3109 77.2772 59.3109 73.6465C59.3109 70.0158 62.2646 67.0621 65.8953 67.0621Z" fill="#F8B232"/>
<path id="Vector_21" d="M20.124 24.3652H22.8854V27.1498H20.124V24.3652Z" fill="#F8B232"/>
<path id="Vector_22" d="M13.2559 44.043H16.0172V46.8275H13.2559V44.043Z" fill="#F8B232"/>
<path id="Vector_23" d="M73.3213 24.6748H76.0826V27.4594H73.3213V24.6748Z" fill="#F8B232"/>
<path id="Vector_24" d="M82.4678 34.2969H85.2291V37.0814H82.4678V34.2969Z" fill="#F8B232"/>
<path id="Vector_25" d="M51.2607 69.0918H54.0221V71.8764H51.2607V69.0918Z" fill="#F8B232"/>
<path id="Vector_26" d="M41.1865 34.2969H43.9479V37.0814H41.1865V34.2969Z" fill="#F8B232"/>
<path id="Vector_27" d="M59.6143 49.6123H62.3756V52.3969H59.6143V49.6123Z" fill="#F8B232"/>
<path id="Vector_28" d="M21.3535 74.6387H24.1149V77.4232H21.3535V74.6387Z" fill="#F8B232"/>
<path id="Vector_29" d="M9.06802 62.3395C8.74223 61.4401 8.4441 60.5178 8.18198 59.5978L10.86 58.8347C11.1045 59.6923 11.3824 60.5524 11.6863 61.3911L9.06802 62.3395ZM7.48899 56.8012C7.29166 55.8656 7.12477 54.9108 6.99278 53.9634L9.75061 53.5795C9.87369 54.4633 10.0294 55.354 10.2136 56.2266L7.48899 56.8012ZM6.69502 51.098C6.62912 50.1452 6.5957 49.1767 6.5957 48.2197H9.38027C9.38027 49.113 9.41145 50.0169 9.4729 50.9063L6.69502 51.098Z" fill="#F8B232"/>
</g>
</g>
<defs>
<clipPath id="clip0_26_3276">
<rect width="95" height="95" fill="white" transform="translate(0.469727 0.719727)"/>
</clipPath>
</defs>
</svg>
