<svg width="96" height="96" viewBox="0 0 96 96" fill="none" xmlns="http://www.w3.org/2000/svg">
<g id="SVG">
<g id="Group">
<path id="Vector" d="M89.6523 16.6582H59.9648C57.5097 16.6582 55.5117 18.6562 55.5117 21.1113V25.5645H37.6992L49.5742 9.73063V1.81445H10.9805V9.73063L22.8555 25.5645H6.52734C4.07219 25.5645 2.07422 27.5624 2.07422 30.0176V71.5801C2.07422 73.5127 3.31961 75.1455 5.04297 75.7601V84.0236C4.13008 85.0671 3.55859 86.4164 3.55859 87.9082C3.55859 91.1827 6.22156 93.8457 9.49609 93.8457C12.7706 93.8457 15.4336 91.1827 15.4336 87.9082C15.4336 86.4164 14.8621 85.0671 13.9492 84.0221V76.0332H40.668V84.0221C39.7551 85.0656 39.1836 86.4149 39.1836 87.9082C39.1836 91.1827 41.8466 93.8457 45.1211 93.8457C48.3956 93.8457 51.0586 91.1827 51.0586 87.9082C51.0586 86.4164 50.4871 85.0671 49.5742 84.0221V76.0332H82.2305V84.0221C81.3176 85.0656 80.7461 86.4149 80.7461 87.9082C80.7461 91.1827 83.4091 93.8457 86.6836 93.8457C89.9581 93.8457 92.6211 91.1827 92.6211 87.9082C92.6211 86.4164 92.0496 85.0671 91.1367 84.0221V75.7601C92.8601 75.1455 94.1055 73.5127 94.1055 71.5801V21.1113C94.1055 18.6562 92.1075 16.6582 89.6523 16.6582ZM59.9648 19.627H89.6523C90.4702 19.627 91.1367 20.2934 91.1367 21.1113V22.5957H58.4805V21.1113C58.4805 20.2934 59.147 19.627 59.9648 19.627ZM55.5117 43.377H48.8365C47.0671 38.0866 42.2399 33.9764 36.2148 32.3139V28.5332H55.5117V43.377ZM16.918 73.0645V61.1895H43.6367V73.0645H16.918ZM6.52734 73.0645C5.70945 73.0645 5.04297 72.3995 5.04297 71.5801V52.2832H16.918V58.2207H13.9492V73.0645H6.52734ZM33.2461 28.5332V31.7083C32.2738 31.5791 31.2852 31.502 30.2773 31.502C29.2709 31.502 28.2809 31.5791 27.3086 31.7083V28.5332H33.2461ZM30.2773 34.4707C31.2882 34.4707 32.2798 34.5509 33.2461 34.6978V43.377H27.3086V34.6978C28.2749 34.5509 29.2665 34.4707 30.2773 34.4707ZM36.2148 43.377V35.3999C40.57 36.7997 44.0612 39.6912 45.6584 43.377H36.2148ZM25.8242 58.2207V52.2832H34.7305V58.2207H25.8242ZM22.8555 46.3457V49.3145H19.8867V46.3457H22.8555ZM22.8555 52.2832V58.2207H19.8867V52.2832H22.8555ZM25.8242 49.3145V46.3457H34.7305V49.3145H25.8242ZM24.3398 43.377H14.8962C16.4934 39.6927 19.9862 36.8012 24.3398 35.4014V43.377ZM16.918 46.3457V49.3145H5.04297V46.3457H16.918ZM37.6992 58.2207V52.2832H40.668V58.2207H37.6992ZM37.6992 49.3145V46.3457H40.668V49.3145H37.6992ZM43.6367 46.3457H55.5117V49.3145H43.6367V46.3457ZM13.9492 8.74203V4.7832H46.6055V8.74203L33.9883 25.5645H26.5664L13.9492 8.74203ZM6.52734 28.5332H24.3398V32.3139C18.3162 33.9764 13.4876 38.0866 11.7182 43.377H5.04297V30.0176C5.04297 29.1997 5.70945 28.5332 6.52734 28.5332ZM9.49609 90.877C7.85883 90.877 6.52734 89.5455 6.52734 87.9082C6.52734 86.2709 7.85883 84.9395 9.49609 84.9395C11.1334 84.9395 12.4648 86.2709 12.4648 87.9082C12.4648 89.5455 11.1334 90.877 9.49609 90.877ZM10.9805 82.1815C10.5025 82.0568 10.0112 81.9707 9.49609 81.9707C8.98102 81.9707 8.48969 82.0568 8.01172 82.1815V76.0332H10.9805V82.1815ZM45.1211 90.877C43.4838 90.877 42.1523 89.5455 42.1523 87.9082C42.1523 86.2709 43.4838 84.9395 45.1211 84.9395C46.7584 84.9395 48.0898 86.2709 48.0898 87.9082C48.0898 89.5455 46.7584 90.877 45.1211 90.877ZM46.6055 82.1815C46.1275 82.0568 45.6362 81.9707 45.1211 81.9707C44.606 81.9707 44.1147 82.0568 43.6367 82.1815V76.0332H46.6055V82.1815ZM46.6055 73.0645V58.2207H43.6367V52.2832H55.5117V73.0645H46.6055ZM88.168 76.0332V82.1815C87.69 82.0568 87.1987 81.9707 86.6836 81.9707C86.1685 81.9707 85.6772 82.0568 85.1992 82.1815V76.0332H88.168ZM86.6836 90.877C85.0463 90.877 83.7148 89.5455 83.7148 87.9082C83.7148 86.2709 85.0463 84.9395 86.6836 84.9395C88.3209 84.9395 89.6523 86.2709 89.6523 87.9082C89.6523 89.5455 88.3209 90.877 86.6836 90.877ZM89.6523 73.0645H58.4805V25.5645H91.1367V71.5801C91.1367 72.3995 90.4702 73.0645 89.6523 73.0645Z" fill="#10417A"/>
<path id="Vector_2" d="M61.4492 49.3145H88.168V28.5332H61.4492V49.3145ZM64.418 46.3457V37.4395H67.9538L71.6558 44.8435L75.6027 38.9238H85.1992V46.3457H64.418ZM85.1992 31.502V35.9551H74.0145L72.0239 38.9416L69.7884 34.4707H64.418V31.502H85.1992Z" fill="#10417A"/>
<path id="Vector_3" d="M71.8398 52.2832C69.3847 52.2832 67.3867 54.2812 67.3867 56.7363C67.3867 59.1915 69.3847 61.1895 71.8398 61.1895C74.295 61.1895 76.293 59.1915 76.293 56.7363C76.293 54.2812 74.295 52.2832 71.8398 52.2832ZM71.8398 58.2207C71.022 58.2207 70.3555 57.5557 70.3555 56.7363C70.3555 55.917 71.022 55.252 71.8398 55.252C72.6577 55.252 73.3242 55.917 73.3242 56.7363C73.3242 57.5557 72.6577 58.2207 71.8398 58.2207Z" fill="#10417A"/>
<path id="Vector_4" d="M83.7148 52.2832C81.2597 52.2832 79.2617 54.2812 79.2617 56.7363C79.2617 59.1915 81.2597 61.1895 83.7148 61.1895C86.17 61.1895 88.168 59.1915 88.168 56.7363C88.168 54.2812 86.17 52.2832 83.7148 52.2832ZM83.7148 58.2207C82.897 58.2207 82.2305 57.5557 82.2305 56.7363C82.2305 55.917 82.897 55.252 83.7148 55.252C84.5327 55.252 85.1992 55.917 85.1992 56.7363C85.1992 57.5557 84.5327 58.2207 83.7148 58.2207Z" fill="#10417A"/>
</g>
</g>
</svg>
