<svg width="96" height="96" viewBox="0 0 96 96" fill="none" xmlns="http://www.w3.org/2000/svg">
<g id="SVG" clip-path="url(#clip0_26_3192)">
<g id="Group">
<path id="Vector" d="M11.667 21.8329C12.4357 21.8329 13.0586 21.21 13.0586 20.4413V14.451C13.0586 12.6607 14.5154 11.204 16.3057 11.204H64.6637C66.454 11.204 67.9108 12.6607 67.9108 14.451V39.0399C67.9108 39.8086 68.5337 40.4315 69.3024 40.4315C70.0711 40.4315 70.694 39.8086 70.694 39.0399V14.451C70.694 11.1258 67.9889 8.42073 64.6637 8.42073H46.0524L45.2928 1.56843C45.2145 0.86353 44.6187 0.330078 43.9095 0.330078H37.0595C36.3503 0.330078 35.7545 0.86353 35.6764 1.56843L34.9168 8.42073H16.3057C12.9805 8.42073 10.2754 11.1258 10.2754 14.451V20.4413C10.2754 21.2098 10.8983 21.8329 11.667 21.8329ZM38.3054 3.1133H42.6636L43.2522 8.42073H37.7171L38.3054 3.1133Z" fill="#F8B232"/>
<path id="Vector_2" d="M23.1943 34.3085H46.2485C47.0173 34.3085 47.6402 33.6856 47.6402 32.9169V21.8945C47.6402 21.1258 47.0173 20.5029 46.2485 20.5029H23.1943C22.4256 20.5029 21.8027 21.1258 21.8027 21.8945V32.9169C21.8027 33.6856 22.4256 34.3085 23.1943 34.3085ZM24.586 23.2862H44.8569V31.5252H24.586V23.2862Z" fill="#F8B232"/>
<path id="Vector_3" d="M54.8657 31.8749C57.2065 31.8749 59.1112 29.9702 59.1112 27.6293C59.1112 25.2884 57.2065 23.3838 54.8657 23.3838C52.5248 23.3838 50.6201 25.2884 50.6201 27.6293C50.6201 29.9702 52.5248 31.8749 54.8657 31.8749ZM54.8657 26.167C55.672 26.167 56.328 26.8229 56.328 27.6293C56.328 28.4357 55.672 29.0916 54.8657 29.0916C54.0593 29.0916 53.4033 28.4357 53.4033 27.6293C53.4033 26.8229 54.0593 26.167 54.8657 26.167Z" fill="#F8B232"/>
<path id="Vector_4" d="M57.7199 63.6417C58.4886 63.6417 59.1115 63.0188 59.1115 62.2501V39.1846C59.1115 38.4159 58.4886 37.793 57.7199 37.793H23.1943C22.4256 37.793 21.8027 38.4159 21.8027 39.1846V62.2501C21.8027 63.0188 22.4256 63.6417 23.1943 63.6417H42.2086C42.9773 63.6417 43.6002 63.0188 43.6002 62.2501C43.6002 61.4814 42.9773 60.8585 42.2086 60.8585H24.586V57.8745H56.3283V60.8585H48.3384C47.5696 60.8585 46.9468 61.4814 46.9468 62.2501C46.9468 63.0188 47.5696 63.6417 48.3384 63.6417H57.7199ZM24.586 46.3399H56.3283V49.3239H24.586V46.3399ZM56.3283 40.5762V43.5565H24.586V40.5762H56.3283ZM24.586 55.0913V52.1071H56.3283V55.0913H24.586Z" fill="#F8B232"/>
<path id="Vector_5" d="M27.5171 66.6113C24.3663 66.6113 21.8027 69.1747 21.8027 72.3257C21.8027 75.4766 24.3661 78.04 27.5171 78.04C30.668 78.04 33.2314 75.4766 33.2314 72.3257C33.2314 69.1747 30.6679 66.6113 27.5171 66.6113ZM27.5171 75.2568C25.9009 75.2568 24.586 73.9418 24.586 72.3257C24.586 70.7095 25.9009 69.3946 27.5171 69.3946C29.1332 69.3946 30.4482 70.7095 30.4482 72.3257C30.4482 73.9418 29.133 75.2568 27.5171 75.2568Z" fill="#F8B232"/>
<path id="Vector_6" d="M84.4316 35.499H82.2212V30.481L85.2696 28.182C85.8834 27.7193 86.0056 26.8467 85.5429 26.2331C85.0799 25.6194 84.2073 25.4972 83.5939 25.9597L79.9918 28.6763C79.643 28.9393 79.4382 29.3508 79.4382 29.7874V35.4988H77.2275C76.4588 35.4988 75.8359 36.1217 75.8359 36.8904V47.6969C75.8359 49.9676 77.3598 51.8879 79.4382 52.492V67.6868C79.4382 69.4771 77.9814 70.9339 76.1911 70.9339H70.694V45.1699C70.694 44.4012 70.0711 43.7783 69.3024 43.7783C68.5337 43.7783 67.9108 44.4012 67.9108 45.1699V70.9341H64.9305V17.4297C64.9305 15.9462 63.7235 14.7393 62.2401 14.7393H18.7292C17.2457 14.7393 16.0387 15.9462 16.0387 17.4297V81.1129C16.0387 82.5963 17.2457 83.8033 18.7292 83.8033H62.2399C63.7233 83.8033 64.9303 82.5963 64.9303 81.1129V73.7173H67.9106V83.5367C67.9106 85.327 66.4539 86.7838 64.6635 86.7838H16.3057C14.5154 86.7838 13.0586 85.327 13.0586 83.5367V26.5019C13.0586 25.7332 12.4357 25.1103 11.667 25.1103C10.8983 25.1103 10.2754 25.7332 10.2754 26.5019V83.5367C10.2754 86.7723 12.8371 89.42 16.0389 89.5603V93.9391C16.0389 94.7078 16.6618 95.3307 17.4305 95.3307H26.0759C26.8447 95.3307 27.4676 94.7078 27.4676 93.9391V89.5672H53.5022V93.9391C53.5022 94.7078 54.1251 95.3307 54.8938 95.3307H63.5391C64.3078 95.3307 64.9307 94.7078 64.9307 93.9391V89.5603C68.1325 89.4202 70.6942 86.7725 70.6942 83.5367V73.7173H76.1911C79.5163 73.7173 82.2214 71.0122 82.2214 67.687V52.4922C84.2997 51.8881 85.8234 49.9678 85.8234 47.6971V36.8906C85.8232 36.122 85.2002 35.499 84.4316 35.499ZM62.1471 81.0201H18.8219V17.5225H62.1471V70.9339H58.9948C58.3717 68.4535 56.1236 66.6111 53.4527 66.6111C50.3019 66.6111 47.7383 69.1745 47.7383 72.3255C47.7383 75.4765 50.3017 78.0398 53.4527 78.0398C56.1236 78.0398 58.3717 76.1975 58.9948 73.7171H62.1471V81.0201ZM53.4527 73.7173H56.0316C54.5803 76.3959 50.5216 75.3449 50.5216 72.3257C50.5216 69.3053 54.5806 68.2562 56.0316 70.9341H53.4527C52.6839 70.9341 52.0611 71.5569 52.0611 72.3257C52.0611 73.0944 52.6839 73.7173 53.4527 73.7173ZM24.6841 92.5473H18.8219V89.567H24.6841V92.5473ZM56.2851 92.5473V89.567H62.1471V92.5473H56.2851ZM83.04 47.6971C83.04 48.916 82.0485 49.9077 80.8296 49.9077C79.6107 49.9077 78.619 48.916 78.619 47.6971V38.2822H83.04V47.6971Z" fill="#F8B232"/>
</g>
</g>
<defs>
<clipPath id="clip0_26_3192">
<rect width="95" height="95" fill="white" transform="translate(0.549805 0.330078)"/>
</clipPath>
</defs>
</svg>
