<svg width="96" height="96" viewBox="0 0 96 96" fill="none" xmlns="http://www.w3.org/2000/svg">
<g id="SVG" clip-path="url(#clip0_26_3269)">
<g id="Group">
<path id="Vector" d="M76.7658 86.658H71.102C71.6165 85.3888 71.5172 83.9715 70.8057 82.7632L63.1572 69.7764C62.3497 68.4054 61.9232 66.8399 61.9232 65.2492V59.678C61.9232 58.2018 60.7221 57.0007 59.2461 57.0007H52.1927C50.7165 57.0007 49.5155 58.2018 49.5155 59.678V65.2492C49.5155 66.8403 49.0887 68.4057 48.2814 69.7764L40.6329 82.7632C39.9214 83.9715 39.8223 85.3888 40.3366 86.658H34.8621V28.3716C35.5074 27.6083 35.9748 26.6909 36.2019 25.683H48.3729V26.7878C48.3729 27.612 48.8555 28.3235 49.5518 28.6607V38.4286C48.4782 38.6635 47.6717 39.6207 47.6717 40.7637V44.6715C47.6717 45.99 48.7443 47.063 50.063 47.063H54.3276V52.2238C54.3276 52.9925 54.9505 53.6154 55.7192 53.6154C56.4879 53.6154 57.1108 52.9925 57.1108 52.2238V47.063H61.3756C62.6941 47.063 63.7671 45.9902 63.7671 44.6715V44.1099H65.9582V46.2481C65.9582 47.0168 66.5811 47.6397 67.3498 47.6397C68.1186 47.6397 68.7414 47.0168 68.7414 46.2481V44.1099H70.3887C71.1575 44.1099 71.7803 43.487 71.7803 42.7183C71.7803 41.9495 71.1575 41.3267 70.3887 41.3267H68.7414V39.1873C68.7414 38.4186 68.1186 37.7957 67.3498 37.7957C66.5811 37.7957 65.9582 38.4186 65.9582 39.1873V41.3267H63.7671V40.7639C63.7671 39.6209 62.9604 38.6637 61.8868 38.4288V28.6609C62.5831 28.3237 63.0658 27.6121 63.0658 26.788V21.7947C63.0658 20.9703 62.5831 20.2586 61.8868 19.9216V15.2184C61.8868 14.4496 61.2639 13.8268 60.4952 13.8268C59.7265 13.8268 59.1036 14.4496 59.1036 15.2184V19.7127H52.335V16.7205H53.6775C54.4462 16.7205 55.0691 16.0977 55.0691 15.3289C55.0691 14.5602 54.4462 13.9373 53.6775 13.9373H52.335V10.7198H53.6775C54.4462 10.7198 55.0691 10.0969 55.0691 9.32817C55.0691 8.55945 54.4462 7.93657 53.6775 7.93657H52.335V4.85186H59.1036V8.72422C59.1036 9.49294 59.7265 10.1158 60.4952 10.1158C61.2639 10.1158 61.8868 9.49294 61.8868 8.72422V4.82959C61.8868 3.30718 60.6483 2.06847 59.1259 2.06847H52.3126C50.7902 2.06847 49.5516 3.30718 49.5516 4.82959V19.9212C48.8553 20.2584 48.3727 20.9701 48.3727 21.7943V22.8998H36.2017C35.9746 21.8919 35.5072 20.9742 34.8619 20.2109V3.09287C34.8619 1.78421 33.7974 0.719727 32.4887 0.719727H27.5662C26.2575 0.719727 25.193 1.78421 25.193 3.09287V20.2114C24.261 21.3141 23.6975 22.7376 23.6975 24.2912C23.6975 25.8448 24.261 27.2683 25.193 28.371V71.9846C25.193 72.7533 25.8159 73.3762 26.5846 73.3762C27.3534 73.3762 27.9762 72.7533 27.9762 71.9846V30.2783C28.6201 30.4996 29.31 30.6213 30.028 30.6213C30.7457 30.6213 31.4352 30.4996 32.0789 30.2785V86.658H27.9764V78.4787C27.9764 77.71 27.3535 77.0871 26.5848 77.0871C25.8161 77.0871 25.1932 77.71 25.1932 78.4787V86.658H19.9146C18.4981 86.658 17.3457 87.8104 17.3457 89.2269V93.1508C17.3457 94.5673 18.4981 95.7197 19.9146 95.7197H76.7658C78.1823 95.7197 79.3347 94.5673 79.3347 93.1508V89.2269C79.3347 87.8104 78.1823 86.658 76.7658 86.658ZM52.335 38.3724V34.7232H53.6775C54.4462 34.7232 55.0691 34.1004 55.0691 33.3316C55.0691 32.5629 54.4462 31.94 53.6775 31.94H52.335V28.8696H59.1036V38.3724H52.335ZM60.2827 22.4957V26.0864H51.1561C51.1561 22.8204 51.1561 22.9854 51.1561 22.4957H60.2827ZM50.4549 44.2798V41.1556H60.9839V44.2798H50.4549ZM32.0789 3.50293V18.3038C31.4352 18.0826 30.7457 17.9609 30.028 17.9609C29.31 17.9609 28.6203 18.0828 27.9762 18.304V3.50293H32.0789ZM26.4809 24.291C26.4809 22.3352 28.0722 20.7441 30.028 20.7441C31.9837 20.7441 33.5746 22.3354 33.5746 24.2914C33.5746 26.2471 31.9837 27.8381 30.028 27.8381C28.0724 27.8381 26.4809 26.2469 26.4809 24.291ZM50.6796 71.1888C51.7389 69.3904 52.2988 67.3364 52.2988 65.249V59.7838H59.1399V65.249C59.1399 67.3361 59.6999 69.3899 60.759 71.1886L63.9944 76.6823H47.4444L50.6796 71.1888ZM43.0208 85.8282C42.8781 85.5788 42.5938 84.9185 43.0315 84.1754L45.8053 79.4655H65.6335L68.4073 84.1754C68.845 84.9185 68.5605 85.5788 68.418 85.8284C68.2754 86.0778 67.8506 86.658 66.9884 86.658H44.4504C43.5882 86.658 43.1634 86.0778 43.0208 85.8282ZM76.5515 92.9365H20.1289V89.4412H76.5515V92.9365Z" fill="#10417A"/>
</g>
</g>
<defs>
<clipPath id="clip0_26_3269">
<rect width="95" height="95" fill="white" transform="translate(0.839844 0.719727)"/>
</clipPath>
</defs>
</svg>
