<svg width="96" height="96" viewBox="0 0 96 96" fill="none" xmlns="http://www.w3.org/2000/svg">
<g id="SVG" clip-path="url(#clip0_26_3259)">
<path id="Vector" d="M83.7675 52.8419V21.1315C83.7675 18.6759 81.7699 16.6784 79.3143 16.6784H68.7317L71.051 7.67794C71.4221 6.23777 71.2104 4.73963 70.4545 3.45964C69.6992 2.17893 68.4896 1.26932 67.0501 0.898225C65.6107 0.527132 64.1125 0.738771 62.8318 1.49473C61.5511 2.25069 60.6415 3.45964 60.2711 4.89981L57.2357 16.6784H16.3697C14.7592 16.6784 13.3176 17.5105 12.5131 18.905C11.7079 20.2995 11.7079 21.9643 12.5131 23.3581L16.2298 29.7921V61.1147C16.2298 62.1396 17.0605 62.9702 18.0846 62.9702C19.1095 62.9702 19.9401 62.1396 19.9401 61.1147V53.8306C27.6874 46.4203 39.8327 46.2239 47.8134 53.2391L41.1801 78.9809C40.414 81.9532 42.2093 84.9937 45.181 85.7598C45.6441 85.8794 46.1138 85.9389 46.5798 85.9389C47.5626 85.9389 48.531 85.6765 49.3993 85.1633C50.68 84.4081 51.5896 83.1984 51.9599 81.759L57.6213 59.7927C60.3226 60.7791 63.1652 61.2742 66.0079 61.2742C70.9357 61.2742 75.8636 59.7905 80.0565 56.8247V64.1777H76.5377C75.5128 64.1777 74.6822 65.0083 74.6822 66.0332C74.6822 67.0573 75.5128 67.8886 76.5377 67.8886H80.0565V73.0832H71.7192C70.6951 73.0832 69.8645 73.9146 69.8645 74.9387C69.8645 75.9635 70.6951 76.7942 71.7192 76.7942H80.0565V81.9895H76.5377C75.5128 81.9895 74.6822 82.8208 74.6822 83.8449C74.6822 84.8698 75.5128 85.7004 76.5377 85.7004H79.7601C78.778 89.3302 75.4577 92.009 71.5214 92.009H28.4752C23.7691 92.009 19.9401 88.1799 19.9401 83.4738V75.9585C19.9401 74.9336 19.1095 74.103 18.0846 74.103C17.0605 74.103 16.2298 74.9336 16.2298 75.9585V83.4738C16.2298 90.2267 21.7231 95.7199 28.4752 95.7199H71.5214C78.2743 95.7199 83.7675 90.2267 83.7675 83.4738V52.8434C83.7675 52.8434 83.7675 52.8427 83.7675 52.8419ZM63.8639 5.82537C63.9879 5.34555 64.2908 4.94257 64.7178 4.69107C65.1454 4.43884 65.644 4.36853 66.1238 4.49175C66.6037 4.61569 67.0074 4.91865 67.2589 5.34555C67.5104 5.77246 67.5814 6.27184 67.4575 6.75165L64.8997 16.6784H61.0677L63.8639 5.82537ZM63.9437 20.3893L55.1548 54.4923C54.0285 53.7958 52.9558 52.9804 51.9527 52.0468L60.111 20.3886H63.9437V20.3893ZM19.9401 49.0114V29.2949C19.9401 28.9694 19.8545 28.6491 19.6915 28.3671L15.7268 21.5026C15.5406 21.1794 15.6464 20.8989 15.7268 20.7604C15.8066 20.622 15.9965 20.3893 16.3697 20.3893H56.279L48.8325 49.2868C40.3241 42.8811 28.5419 42.7891 19.9401 49.0114ZM48.3672 80.8334C48.2432 81.3132 47.9403 81.7162 47.5133 81.9677C47.0864 82.22 46.5871 82.291 46.1073 82.1663C45.1165 81.9112 44.5178 80.8972 44.7736 79.9064L50.922 56.0484C51.9636 56.8718 53.0573 57.5995 54.1923 58.2286L48.3672 80.8334ZM58.5519 56.1789L67.7757 20.3893H79.3143C79.7239 20.3893 80.0565 20.722 80.0565 21.1315V28.5527H76.5377C75.5128 28.5527 74.6822 29.384 74.6822 30.4082C74.6822 31.433 75.5128 32.2636 76.5377 32.2636H80.0565V37.4589H71.7192C70.6951 37.4589 69.8645 38.2896 69.8645 39.3144C69.8645 40.3393 70.6951 41.1699 71.7192 41.1699H80.0565V46.3652H76.5377C75.5128 46.3652 74.6822 47.1958 74.6822 48.2207C74.6822 49.2455 75.5128 50.0761 76.5377 50.0761H80.0565V52.0526C74.1277 57.569 65.7187 58.944 58.5519 56.1789Z" fill="#F8B232"/>
<path id="Vector_2" d="M30.7617 24.2402C27.6922 24.2402 25.1953 26.7371 25.1953 29.8059C25.1953 32.8754 27.6922 35.3723 30.7617 35.3723C33.8312 35.3723 36.3281 32.8754 36.3281 29.8059C36.3281 26.7371 33.8312 24.2402 30.7617 24.2402ZM30.7617 31.6614C29.7383 31.6614 28.9063 30.8293 28.9063 29.8059C28.9063 28.7832 29.7383 27.9504 30.7617 27.9504C31.7844 27.9504 32.6172 28.7832 32.6172 29.8059C32.6172 30.8293 31.7844 31.6614 30.7617 31.6614Z" fill="#F8B232"/>
<path id="Vector_3" d="M42.5892 34.8483C42.2442 34.5033 41.7651 34.3047 41.2773 34.3047C40.7896 34.3047 40.3105 34.5033 39.9655 34.8483C39.6205 35.194 39.4219 35.6702 39.4219 36.1602C39.4219 36.6501 39.6205 37.127 39.9655 37.472C40.3112 37.817 40.7896 38.0156 41.2773 38.0156C41.7651 38.0156 42.2442 37.817 42.5892 37.472C42.9342 37.127 43.1328 36.6487 43.1328 36.1602C43.1328 35.6724 42.9342 35.194 42.5892 34.8483Z" fill="#F8B232"/>
<path id="Vector_4" d="M25.4453 38.8818C24.9554 38.8818 24.4784 39.0783 24.1334 39.4254C23.7863 39.7704 23.5898 40.2488 23.5898 40.7373C23.5898 41.2251 23.7863 41.702 24.1334 42.0492C24.4784 42.3942 24.9554 42.5928 25.4453 42.5928C25.9331 42.5928 26.4122 42.3942 26.7572 42.0492C27.1022 41.7035 27.3008 41.2251 27.3008 40.7373C27.3008 40.2473 27.1022 39.7704 26.7572 39.4254C26.4122 39.0783 25.9331 38.8818 25.4453 38.8818Z" fill="#F8B232"/>
<path id="Vector_5" d="M18.0842 70.3916C18.5727 70.3916 19.0511 70.1945 19.3961 69.848C19.7411 69.503 19.9397 69.0261 19.9397 68.5361C19.9397 68.0476 19.7418 67.5693 19.3961 67.2243C19.0511 66.8793 18.5727 66.6807 18.0842 66.6807C17.5965 66.6807 17.1181 66.8793 16.7731 67.2243C16.4274 67.57 16.2295 68.0476 16.2295 68.5361C16.2295 69.0261 16.4274 69.503 16.7731 69.848C17.1181 70.1952 17.5965 70.3916 18.0842 70.3916Z" fill="#F8B232"/>
</g>
<defs>
<clipPath id="clip0_26_3259">
<rect width="95" height="95" fill="white" transform="translate(0.219727 0.719727)"/>
</clipPath>
</defs>
</svg>
